<svg width="600" height="449" viewBox="0 0 600 449" fill="none" xmlns="http://www.w3.org/2000/svg">
<rect y="1" width="600" height="447.202" rx="30" fill="#1D1C22"/>
<path d="M353.055 52.1347L301.447 124.835L262.379 52.1347C237.46 39.3886 187.674 1 181.5 1H64.5L0 74.3224V167.794C21.0611 203.2 65.7878 275.9 76.2058 283.453C86.6238 291.006 141.961 325.625 168.328 341.99L272.026 448.208L301.447 411.858L388.746 351.432L510.289 283.453C513.666 283.453 600 158.824 600 155.52C600 152.876 554.019 60.0027 531.029 13.8964H427.331L353.055 52.1347Z" fill="white"/>
<path d="M353.054 38.918L301.446 111.618L262.379 38.918L194.854 198.008V296.2L353.054 230.582L510.289 208.866C510.289 207.355 570.096 163.861 599.999 142.303C599.999 139.659 554.018 46.7859 531.028 0.679688H427.33L353.054 38.918Z" fill="#FF5695"/>
<path d="M37.6201 167.794C58.6812 203.2 103.408 275.9 113.826 283.453C144.533 238.291 205.948 147.4 205.948 145.134C205.948 142.868 221.141 43.8017 225 1H100.5L37.6201 74.3224V167.794Z" fill="#FF5695"/>
<path d="M415.273 351.903L536.816 283.924L473.15 287.7C430.546 289.117 344.372 292.421 340.514 294.31C336.655 296.198 241.8 327.198 194.854 342.461L298.552 448.679L327.973 412.329L415.273 351.903Z" fill="#FF5695"/>
</svg>
