<svg width="290" height="170" viewBox="0 0 290 170" fill="none" xmlns="http://www.w3.org/2000/svg">
<g clip-path="url(#clip0_291_319)">
<rect width="290" height="170" fill="white"/>
<path d="M25.5 84L-4.49998 88.5C-4.50013 67.5 -4.49926 21.5 -4.49972 -3.5H293V17V67.5L274.5 64.5L262.5 67.5L247.5 79.5L249.5 101.5L247.5 114L238.5 116L233 108C233.4 106.8 235.833 88.5 237 79.5L225 75L214.5 78L207.5 86.5V117L210 132.5L200 139L192.5 130.5C192.5 130.1 195.5 102.167 195.5 87L185.5 82L152 84L138 82L126 88.5V114L128 141.5L122.5 176L112.5 174.5L111.5 147L114.5 86.5L107.5 82L99 84L95 98L97.5 124L86.5 128L79.5 124L81 103L75 93.5H59.5L54.5 124L57.5 145L52.5 161L40.5 157.5L37.5 147L40.5 124L37.5 91L25.5 84Z" fill="#FF5695"/>
</g>
<defs>
<clipPath id="clip0_291_319">
<rect width="290" height="170" rx="30" fill="white"/>
</clipPath>
</defs>
</svg>
