<svg width="290" height="245" viewBox="0 0 290 245" fill="none" xmlns="http://www.w3.org/2000/svg">
<rect width="290" height="244.84" rx="30" fill="#1D1C22"/>
<path d="M157.97 29.3516H147.199L113.42 31.3085L96.2857 46.4748L82.5781 91.4845V133.069L96.2857 203.03L188.322 239.234L197.134 234.341L202.519 196.67V141.876L181.468 76.8074L168.74 44.0286H155.522L157.97 29.3516Z" fill="#FF5695"/>
<path fill-rule="evenodd" clip-rule="evenodd" d="M79.4992 44.8115L79.0289 38.2122L58.6175 39.6648L53.7262 63.8912L46.9537 89.578L34.1611 123.653L36.8417 161.269L63.7432 204.458L142.473 241.305L183.766 244.999L191.855 237.791L191.88 237.24L200.566 241.305L241.859 244.999L249.949 237.791L252.018 192.54L249.009 150.304L242.989 140.12L241.06 113.062L231.278 96.5132L216.322 81.6587L208.515 74.2549L229.585 72.7554L228.362 55.597L220.414 46.2134L206.587 47.1975L212.842 32.8233L204.706 20.7999L192.854 21.6434L191.914 8.44461L184.012 9.00692L179.78 5.32845L170.656 16.5904L155.606 0.416016L143.566 7.90574L157.299 24.1738L152.381 29.3244L146.612 20.7999L134.76 21.6434L133.82 8.44461L125.919 9.00692L121.686 5.32845L112.562 16.5904L97.5121 0.416016L85.4722 7.90574L99.2052 24.1738L79.4992 44.8115ZM152.381 29.3244L137.593 44.8115L137.123 38.2122L116.711 39.6648L111.82 63.8912L105.047 89.578L92.2549 123.653L94.9355 161.269L121.837 204.458L191.88 237.24L193.925 192.54L190.915 150.304L184.895 140.12L182.967 113.062L173.184 96.5132L158.229 81.6587L150.422 74.2549L171.491 72.7554L170.269 55.597L162.32 46.2134L148.493 47.1975L154.749 32.8233L152.381 29.3244Z" fill="white"/>
</svg>
