<svg width="290" height="409" viewBox="0 0 290 409" fill="none" xmlns="http://www.w3.org/2000/svg">
<rect width="290" height="409" fill="#FF5695"/>
<path d="M112.092 94.3984V102.653L138.419 78.7153L122.787 57.2542L138.419 49L155.696 70.461L168.037 57.2542L172.973 62.2068H182.846V78.7153H197.655L206.705 94.3984L197.655 111.732H214.932L223.982 124.114V145.575H197.655L206.705 155.48L223.982 175.29L234.678 196.751V230.593L241.259 243.8V296.627L234.678 352.756L223.982 361.01L172.973 352.756L78.3602 299.929L48.7422 243.8V196.751L67.6648 155.48L78.3602 124.114L86.5874 94.3984H112.092Z" fill="white"/>
<path d="M116.074 330.663L161.384 282.369L189.225 262.835L216.521 246.014L246 225.395" stroke="#FF5695" stroke-width="8.43913"/>
<path d="M216.601 151.422C216.222 156.333 207.908 195.077 203.799 213.835V229.694V255.273C200.479 258.854 193.841 266.733 193.841 269.598C193.841 272.463 188.151 294.324 185.306 304.897L173.925 335.592L170.132 352.474" stroke="#FF5695" stroke-width="8.43913"/>
<path d="M44 188.408L74.8527 260.597L84.7883 277.004L107.274 302.161L127.145 315.286L143.879 333.333L155.906 352.474" stroke="#FF5695" stroke-width="8.43913"/>
</svg>
