<svg width="604" height="396" viewBox="0 0 604 396" fill="none" xmlns="http://www.w3.org/2000/svg">
<path d="M0 0H600V396H0V0Z" fill="#FF5695"/>
<g clip-path="url(#clip0_318_2509)">
<path fill-rule="evenodd" clip-rule="evenodd" d="M241.158 135.335H200.975V33.0672H241.158V135.335ZM304.868 135.335H264.685V33.0672H310.304L366.324 133.997V33.0672H406.507V135.335H325.814L304.868 97.5964V135.335ZM511.265 135.335H471.082V72.7775H423.808V33.0672H558.539V72.7775H511.265V135.335ZM693.372 135.335H626.664C609.462 132.372 595.923 126.332 586.047 117.215C575.962 107.603 570.919 95.7054 570.919 81.5232C570.919 66.3955 576.356 54.0254 587.229 44.413C598.102 34.8006 612.048 29.9944 629.066 29.9944C643.721 29.9944 656.958 33.6976 668.776 41.1039C680.595 48.5101 689.104 58.4377 694.305 70.8865L655.067 84.8324C652.861 79.6322 649.473 75.5351 644.903 72.5411C640.491 69.5471 635.606 68.0501 630.248 68.0501C625.206 68.0501 621.03 69.3107 617.721 71.832C614.569 74.1957 612.993 77.2685 612.993 81.0505C612.993 84.6748 614.805 87.59 618.43 89.7962C622.212 92.0023 628.2 93.7357 636.394 94.9963C654.831 98.1479 669.328 104.687 679.886 114.615C686.376 120.718 690.872 127.624 693.372 135.335ZM35.9316 135.335V33.0672H76.1146V95.7054H82.4966L131.898 33.0672H183.19L116.77 115.797L132.457 135.335H35.9316ZM1104.23 135.335H1064.05V33.0672H1104.23V135.335ZM1043.71 135.335H947.736V99.9601H1044.18C1044.81 104.057 1045.12 110.36 1045.12 118.87C1045.12 124.589 1044.65 130.077 1043.71 135.335ZM916.959 135.335H874.911C873.666 129.07 873.043 122.478 873.043 115.561C873.043 90.3477 881.316 69.5471 897.862 53.1587C914.565 36.6128 934.972 28.3398 959.082 28.3398C975.785 28.3398 990.992 32.4369 1004.7 40.6311C1018.57 48.8253 1028.97 59.9347 1035.9 73.9593L999.738 92.869C995.956 85.3051 990.44 79.3959 983.192 75.1412C975.943 70.7289 967.906 68.5228 959.082 68.5228C946.318 68.5228 935.445 72.9351 926.463 81.7596C917.638 90.5841 913.226 101.851 913.226 115.561C913.226 122.841 914.47 129.432 916.959 135.335ZM853.912 135.335H813.37C813.689 133.126 813.849 130.789 813.849 128.325V33.0672H854.032V130.688C854.032 132.258 853.992 133.807 853.912 135.335ZM755.235 135.335H714.693C714.613 133.807 714.573 132.258 714.573 130.688V33.0672H754.756V128.325C754.756 130.789 754.916 133.126 755.235 135.335Z" fill="#1D1C22"/>
<path fill-rule="evenodd" clip-rule="evenodd" d="M53.9717 135.334V193.221H94.1547V135.334H53.9717ZM103.761 135.334L149.938 193.221H201.23L154.755 135.334H103.761ZM219.015 135.334V193.221H259.198V135.334H219.015ZM282.725 135.334V193.221H322.908V135.334H282.725ZM346.798 135.334L378.927 193.221H424.547V135.334H346.798ZM489.122 135.334V193.221H529.305V135.334H489.122ZM664.648 135.334C669.184 137.751 671.452 140.816 671.452 144.529C671.452 148.468 669.719 151.699 666.252 154.22C662.786 156.584 658.373 157.765 653.016 157.765C647.343 157.765 642.143 156.111 637.415 152.802C632.688 149.492 629.142 145.001 626.778 139.329L587.541 158.002C592.899 169.505 601.566 178.724 613.542 185.657C625.518 192.433 638.833 195.821 653.488 195.821C671.137 195.821 685.556 191.172 696.744 181.875C708.09 172.42 713.763 160.287 713.763 145.474C713.763 141.964 713.439 138.584 712.792 135.334H664.648ZM733.18 135.334C735.052 151.278 741.561 164.822 752.705 175.966C766.099 189.203 782.645 195.821 802.343 195.821C822.04 195.821 838.586 189.203 851.98 175.966C863.125 164.822 869.633 151.278 871.505 135.334H830.265C828.904 139.95 826.688 143.881 823.616 147.129C818.101 152.802 811.01 155.638 802.343 155.638C793.676 155.638 786.585 152.802 781.069 147.129C777.998 143.881 775.781 139.95 774.42 135.334H733.18ZM894.175 135.334C897.954 149.668 905.196 162.188 915.902 172.893C932.605 189.281 953.012 197.476 977.122 197.476C1001.23 197.476 1021.56 189.518 1038.11 173.602C1049.49 162.751 1057 149.995 1060.62 135.334H1016.68C1013.65 141.206 1009.13 146.083 1003.12 149.965C995.559 154.85 986.892 157.293 977.122 157.293C964.358 157.293 953.485 152.88 944.503 144.056C941.821 141.374 939.547 138.467 937.68 135.334H894.175ZM1082.09 135.334V193.221H1122.27V135.334H1082.09Z" fill="#1D1C22"/>
</g>
<g clip-path="url(#clip1_318_2509)">
<path fill-rule="evenodd" clip-rule="evenodd" d="M-311.345 304.792H-351.528V202.524H-311.345V304.792ZM-247.636 304.792H-287.819V202.524H-242.2L-186.18 303.454V202.524H-145.997V304.792H-226.69L-247.636 267.053V304.792ZM-41.2387 304.792H-81.4217V242.235H-128.696V202.524H6.0354V242.235H-41.2387V304.792ZM140.868 304.792H74.1602C56.9584 301.829 43.4193 295.789 33.543 286.672C23.4578 277.06 18.4152 265.162 18.4152 250.98C18.4152 235.853 23.8517 223.482 34.7248 213.87C45.5978 204.258 59.5437 199.451 76.5624 199.451C91.2173 199.451 104.454 203.155 116.273 210.561C128.091 217.967 136.6 227.895 141.801 240.344L102.563 254.289C100.357 249.089 96.969 244.992 92.3992 241.998C87.9869 239.004 83.1019 237.507 77.7442 237.507C72.7017 237.507 68.5258 238.768 65.2166 241.289C62.065 243.653 60.4892 246.726 60.4892 250.507C60.4892 254.132 62.3013 257.047 65.9257 259.253C69.7076 261.459 75.6957 263.193 83.8898 264.453C102.327 267.605 116.824 274.145 127.382 284.072C133.872 290.175 138.368 297.081 140.868 304.792ZM-516.572 304.792V202.524H-476.389V265.162H-470.007L-420.606 202.524H-369.313L-435.734 285.254L-420.047 304.792H-516.572ZM551.73 304.792H511.547V202.524H551.73V304.792ZM491.207 304.792H395.232V269.417H491.671C492.302 273.514 492.617 279.817 492.617 288.327C492.617 294.046 492.147 299.534 491.207 304.792ZM364.455 304.792H322.407C321.162 298.527 320.539 291.935 320.539 285.018C320.539 259.805 328.812 239.004 345.358 222.616C362.062 206.07 382.468 197.797 406.578 197.797C423.281 197.797 438.488 201.894 452.197 210.088C466.065 218.282 476.465 229.392 483.398 243.416L447.234 262.326C443.452 254.762 437.936 248.853 430.688 244.598C423.439 240.186 415.402 237.98 406.578 237.98C393.814 237.98 382.941 242.392 373.959 251.217C365.134 260.041 360.722 271.308 360.722 285.018C360.722 292.298 361.966 298.889 364.455 304.792ZM301.408 304.792H260.866C261.185 302.583 261.345 300.246 261.345 297.782V202.524H301.528V300.145C301.528 301.715 301.488 303.264 301.408 304.792ZM202.731 304.792H162.189C162.109 303.264 162.069 301.715 162.069 300.145V202.524H202.252V297.782C202.252 300.246 202.412 302.583 202.731 304.792Z" fill="#1D1C22"/>
<path fill-rule="evenodd" clip-rule="evenodd" d="M-498.536 304.791V362.678H-458.353V304.791H-498.536ZM-448.747 304.791L-402.57 362.678H-351.277L-397.752 304.791H-448.747ZM-333.492 304.791V362.678H-293.309V304.791H-333.492ZM-269.783 304.791V362.678H-229.6V304.791H-269.783ZM-205.71 304.791L-173.58 362.678H-127.961V304.791H-205.71ZM-63.3856 304.791V362.678H-23.2026V304.791H-63.3856ZM112.14 304.791C116.677 307.208 118.945 310.273 118.945 313.986C118.945 317.925 117.211 321.156 113.745 323.677C110.278 326.041 105.865 327.222 100.508 327.222C94.8349 327.222 89.6347 325.568 84.9073 322.259C80.1799 318.949 76.6343 314.458 74.2706 308.786L35.0331 327.459C40.3909 338.962 49.0578 348.181 61.0339 355.114C73.01 361.89 86.3256 365.278 100.981 365.278C118.63 365.278 133.048 360.629 144.236 351.332C155.582 341.877 161.255 329.744 161.255 314.931C161.255 311.421 160.932 308.041 160.285 304.791H112.14ZM180.673 304.791C182.545 320.735 189.053 334.279 200.197 345.423C213.591 358.66 230.137 365.278 249.835 365.278C269.532 365.278 286.078 358.66 299.473 345.423C310.617 334.279 317.125 320.735 318.997 304.791H277.757C276.396 309.407 274.18 313.339 271.108 316.586C265.593 322.259 258.502 325.095 249.835 325.095C241.168 325.095 234.077 322.259 228.561 316.586C225.49 313.339 223.273 309.407 221.912 304.791H180.673ZM341.668 304.791C345.446 319.125 352.689 331.645 363.394 342.35C380.098 358.739 400.504 366.933 424.614 366.933C448.724 366.933 469.052 358.975 485.598 343.059C496.986 332.208 504.493 319.452 508.116 304.791H464.169C461.144 310.663 456.626 315.54 450.615 319.422C443.051 324.307 434.384 326.75 424.614 326.75C411.85 326.75 400.977 322.337 391.995 313.513C389.313 310.831 387.039 307.924 385.172 304.791H341.668ZM529.583 304.791V362.678H569.766V304.791H529.583Z" fill="#1D1C22"/>
</g>
<defs>
<clipPath id="clip0_318_2509">
<rect width="529.874" height="174.55" fill="white" transform="translate(35.9346 29)"/>
</clipPath>
<clipPath id="clip1_318_2509">
<rect width="589" height="180.208" fill="white" transform="translate(15 197.609)"/>
</clipPath>
</defs>
</svg>
