<svg width="910" height="281" viewBox="0 0 910 281" fill="none" xmlns="http://www.w3.org/2000/svg">
<g clip-path="url(#clip0_291_861)">
<rect x="-40.248" y="-31" width="1920.25" height="2289.04" fill="#1D1C22"/>
<path fill-rule="evenodd" clip-rule="evenodd" d="M77.2961 15.9614C78.5002 9.55242 79.13 2.94086 79.13 -3.81779C79.13 -62.6149 31.4656 -110.279 -27.3315 -110.279C-86.1285 -110.279 -133.793 -62.6149 -133.793 -3.81779C-133.793 12.4002 -130.167 27.7712 -123.68 41.5286L77.2961 15.9614Z" fill="white"/>
<path fill-rule="evenodd" clip-rule="evenodd" d="M-105.463 45.7607C-88.439 81.8927 -51.6911 106.9 -9.10252 106.9C42.9452 106.9 86.2694 69.5505 95.53 20.1914L-105.463 45.7607Z" fill="white"/>
<path fill-rule="evenodd" clip-rule="evenodd" d="M985.093 233.143C986.297 226.734 986.927 220.123 986.927 213.364C986.927 154.567 939.262 106.902 880.465 106.902C821.668 106.902 774.004 154.567 774.004 213.364C774.004 229.582 777.63 244.953 784.117 258.71L985.093 233.143Z" fill="white"/>
<path fill-rule="evenodd" clip-rule="evenodd" d="M802.334 262.941C819.358 299.074 856.106 324.082 898.695 324.082C950.744 324.082 994.068 286.731 1003.33 237.371L802.334 262.941Z" fill="white"/>
<path fill-rule="evenodd" clip-rule="evenodd" d="M218.545 233.143C219.749 226.734 220.379 220.123 220.379 213.364C220.379 154.567 172.715 106.902 113.918 106.902C55.1205 106.902 7.45605 154.567 7.45605 213.364C7.45605 229.582 11.0825 244.953 17.5687 258.71L218.545 233.143Z" fill="white"/>
<path fill-rule="evenodd" clip-rule="evenodd" d="M35.7861 262.941C52.8097 299.074 89.558 324.082 132.147 324.082C184.196 324.082 227.521 286.731 236.78 237.371L35.7861 262.941Z" fill="white"/>
<path fill-rule="evenodd" clip-rule="evenodd" d="M1099.54 15.9614C1100.75 9.55242 1101.38 2.94086 1101.38 -3.81779C1101.38 -62.6149 1053.71 -110.279 994.917 -110.279C936.12 -110.279 888.455 -62.6149 888.455 -3.81779C888.455 12.4002 892.082 27.7712 898.568 41.5286L1099.54 15.9614Z" fill="white"/>
<path fill-rule="evenodd" clip-rule="evenodd" d="M843.843 15.9614C845.047 9.55242 845.677 2.94086 845.677 -3.81779C845.677 -62.6149 798.012 -110.279 739.215 -110.279C680.418 -110.279 632.754 -62.6149 632.754 -3.81779C632.754 12.4002 636.38 27.7712 642.867 41.5286L843.843 15.9614Z" fill="white"/>
<path fill-rule="evenodd" clip-rule="evenodd" d="M661.085 45.7607C678.109 81.8927 714.857 106.9 757.445 106.9C809.493 106.9 852.817 69.5505 862.078 20.1914L661.085 45.7607Z" fill="white"/>
<path fill-rule="evenodd" clip-rule="evenodd" d="M332.859 15.9614C334.063 9.55242 334.693 2.94086 334.693 -3.81779C334.693 -62.6149 287.028 -110.279 228.231 -110.279C169.434 -110.279 121.77 -62.6149 121.77 -3.81779C121.77 12.4002 125.396 27.7712 131.882 41.5286L332.859 15.9614Z" fill="white"/>
<path fill-rule="evenodd" clip-rule="evenodd" d="M150.101 45.7607C167.125 81.8927 203.872 106.9 246.461 106.9C298.509 106.9 341.833 69.5505 351.094 20.1914L150.101 45.7607Z" fill="white"/>
<path fill-rule="evenodd" clip-rule="evenodd" d="M474.11 233.143C475.314 226.734 475.944 220.123 475.944 213.364C475.944 154.567 428.279 106.902 369.482 106.902C310.685 106.902 263.021 154.567 263.021 213.364C263.021 229.582 266.647 244.953 273.133 258.71L474.11 233.143Z" fill="white"/>
<path fill-rule="evenodd" clip-rule="evenodd" d="M291.351 262.941C308.374 299.074 345.122 324.082 387.712 324.082C439.76 324.082 483.085 286.731 492.345 237.371L291.351 262.941Z" fill="white"/>
<path fill-rule="evenodd" clip-rule="evenodd" d="M588.423 15.9614C589.627 9.55242 590.257 2.94086 590.257 -3.81779C590.257 -62.6149 542.593 -110.279 483.795 -110.279C424.998 -110.279 377.334 -62.6149 377.334 -3.81779C377.334 12.4002 380.96 27.7712 387.447 41.5286L588.423 15.9614Z" fill="white"/>
<path fill-rule="evenodd" clip-rule="evenodd" d="M405.665 45.7607C422.689 81.8927 459.437 106.9 502.025 106.9C554.073 106.9 597.397 69.5505 606.658 20.1914L405.665 45.7607Z" fill="white"/>
<path fill-rule="evenodd" clip-rule="evenodd" d="M729.674 233.143C730.878 226.734 731.508 220.123 731.508 213.364C731.508 154.567 683.844 106.902 625.046 106.902C566.249 106.902 518.585 154.567 518.585 213.364C518.585 229.582 522.211 244.953 528.698 258.71L729.674 233.143Z" fill="white"/>
<path fill-rule="evenodd" clip-rule="evenodd" d="M546.915 262.941C563.939 299.074 600.687 324.082 643.276 324.082C695.325 324.082 738.65 286.731 747.909 237.371L546.915 262.941Z" fill="white"/>
</g>
<defs>
<clipPath id="clip0_291_861">
<rect width="910" height="281" fill="white"/>
</clipPath>
</defs>
</svg>
