<svg width="910" height="40" viewBox="0 0 910 40" fill="none" xmlns="http://www.w3.org/2000/svg">
<rect width="910" height="40" fill="#1D1C22"/>
<path d="M365.984 25.2727L370.553 14.9091H372.462L366.803 28H365.166L359.609 14.9091H361.484L365.984 25.2727ZM360.837 14.9091V28H358.825V14.9091H360.837ZM371.132 28V14.9091H373.143V28H371.132ZM380.678 28.3068C379.848 28.3068 379.095 28.1506 378.419 27.8381C377.743 27.5199 377.206 27.0625 376.808 26.4659C376.411 25.8636 376.212 25.1364 376.212 24.2841C376.212 23.5341 376.359 22.9261 376.655 22.4602C376.95 21.9886 377.345 21.6193 377.839 21.3523C378.334 21.0852 378.879 20.8864 379.476 20.7557C380.078 20.6193 380.683 20.5114 381.291 20.4318C382.087 20.3295 382.732 20.2528 383.226 20.2017C383.726 20.1449 384.089 20.0511 384.317 19.9205C384.55 19.7898 384.666 19.5625 384.666 19.2386V19.1705C384.666 18.3295 384.436 17.6761 383.976 17.2102C383.521 16.7443 382.831 16.5114 381.905 16.5114C380.945 16.5114 380.192 16.7216 379.646 17.142C379.101 17.5625 378.717 18.0114 378.496 18.4886L376.587 17.8068C376.928 17.0114 377.382 16.392 377.95 15.9489C378.524 15.5 379.149 15.1875 379.825 15.0114C380.507 14.8295 381.178 14.7386 381.837 14.7386C382.257 14.7386 382.74 14.7898 383.286 14.892C383.837 14.9886 384.368 15.1903 384.879 15.4972C385.396 15.804 385.825 16.267 386.166 16.8864C386.507 17.5057 386.678 18.3352 386.678 19.375V28H384.666V26.2273H384.564C384.428 26.5114 384.2 26.8153 383.882 27.1392C383.564 27.4631 383.141 27.7386 382.612 27.9659C382.084 28.1932 381.439 28.3068 380.678 28.3068ZM380.984 26.5C381.78 26.5 382.45 26.3438 382.996 26.0312C383.547 25.7188 383.962 25.3153 384.24 24.821C384.524 24.3267 384.666 23.8068 384.666 23.2614V21.4205C384.581 21.5227 384.393 21.6165 384.104 21.7017C383.82 21.7812 383.49 21.8523 383.115 21.9148C382.746 21.9716 382.385 22.0227 382.033 22.0682C381.686 22.108 381.405 22.142 381.189 22.1705C380.666 22.2386 380.178 22.3494 379.723 22.5028C379.274 22.6506 378.911 22.875 378.632 23.1761C378.359 23.4716 378.223 23.875 378.223 24.3864C378.223 25.0852 378.482 25.6136 378.999 25.9716C379.521 26.3239 380.183 26.5 380.984 26.5ZM390.349 32.9091V14.9091H392.292V16.9886H392.531C392.678 16.7614 392.883 16.4716 393.144 16.1193C393.411 15.7614 393.792 15.4432 394.286 15.1648C394.786 14.8807 395.462 14.7386 396.315 14.7386C397.417 14.7386 398.388 15.0142 399.229 15.5653C400.07 16.1165 400.727 16.8977 401.198 17.9091C401.67 18.9205 401.906 20.1136 401.906 21.4886C401.906 22.875 401.67 24.0767 401.198 25.0938C400.727 26.1051 400.073 26.8892 399.238 27.446C398.403 27.9972 397.44 28.2727 396.349 28.2727C395.508 28.2727 394.835 28.1335 394.329 27.8551C393.823 27.571 393.434 27.25 393.161 26.892C392.888 26.5284 392.678 26.2273 392.531 25.9886H392.36V32.9091H390.349ZM392.326 21.4545C392.326 22.4432 392.471 23.3153 392.761 24.071C393.05 24.821 393.474 25.4091 394.031 25.8352C394.587 26.2557 395.269 26.4659 396.076 26.4659C396.917 26.4659 397.619 26.2443 398.181 25.8011C398.749 25.3523 399.175 24.75 399.46 23.9943C399.749 23.233 399.894 22.3864 399.894 21.4545C399.894 20.5341 399.752 19.7045 399.468 18.9659C399.19 18.2216 398.766 17.6335 398.198 17.2017C397.636 16.7642 396.928 16.5455 396.076 16.5455C395.258 16.5455 394.57 16.7528 394.013 17.1676C393.457 17.5767 393.036 18.1506 392.752 18.8892C392.468 19.6222 392.326 20.4773 392.326 21.4545ZM406.985 25.0341L413.292 14.9091H415.61V28H413.599V17.875L407.326 28H404.974V14.9091H406.985V25.0341ZM427.169 28V16.75H423.692C422.908 16.75 422.291 16.9318 421.842 17.2955C421.393 17.6591 421.169 18.1591 421.169 18.7955C421.169 19.4205 421.371 19.9119 421.774 20.2699C422.183 20.6278 422.743 20.8068 423.453 20.8068H427.68V22.6818H423.453C422.567 22.6818 421.803 22.5256 421.161 22.2131C420.518 21.9006 420.024 21.4545 419.678 20.875C419.331 20.2898 419.158 19.5966 419.158 18.7955C419.158 17.9886 419.339 17.2955 419.703 16.7159C420.067 16.1364 420.587 15.6903 421.263 15.3778C421.945 15.0653 422.754 14.9091 423.692 14.9091H429.078V28H427.169ZM418.442 28L422.158 21.4886H424.339L420.624 28H418.442ZM443.373 28.3068C442.543 28.3068 441.79 28.1506 441.114 27.8381C440.438 27.5199 439.901 27.0625 439.504 26.4659C439.106 25.8636 438.907 25.1364 438.907 24.2841C438.907 23.5341 439.055 22.9261 439.35 22.4602C439.646 21.9886 440.04 21.6193 440.535 21.3523C441.029 21.0852 441.575 20.8864 442.171 20.7557C442.773 20.6193 443.379 20.5114 443.987 20.4318C444.782 20.3295 445.427 20.2528 445.921 20.2017C446.421 20.1449 446.785 20.0511 447.012 19.9205C447.245 19.7898 447.362 19.5625 447.362 19.2386V19.1705C447.362 18.3295 447.131 17.6761 446.671 17.2102C446.217 16.7443 445.526 16.5114 444.6 16.5114C443.64 16.5114 442.887 16.7216 442.342 17.142C441.796 17.5625 441.413 18.0114 441.191 18.4886L439.282 17.8068C439.623 17.0114 440.077 16.392 440.646 15.9489C441.219 15.5 441.844 15.1875 442.521 15.0114C443.202 14.8295 443.873 14.7386 444.532 14.7386C444.952 14.7386 445.435 14.7898 445.981 14.892C446.532 14.9886 447.063 15.1903 447.575 15.4972C448.092 15.804 448.521 16.267 448.862 16.8864C449.202 17.5057 449.373 18.3352 449.373 19.375V28H447.362V26.2273H447.259C447.123 26.5114 446.896 26.8153 446.577 27.1392C446.259 27.4631 445.836 27.7386 445.308 27.9659C444.779 28.1932 444.134 28.3068 443.373 28.3068ZM443.68 26.5C444.475 26.5 445.146 26.3438 445.691 26.0312C446.242 25.7188 446.657 25.3153 446.935 24.821C447.219 24.3267 447.362 23.8068 447.362 23.2614V21.4205C447.276 21.5227 447.089 21.6165 446.799 21.7017C446.515 21.7812 446.185 21.8523 445.81 21.9148C445.441 21.9716 445.08 22.0227 444.728 22.0682C444.381 22.108 444.1 22.142 443.884 22.1705C443.362 22.2386 442.873 22.3494 442.418 22.5028C441.969 22.6506 441.606 22.875 441.327 23.1761C441.055 23.4716 440.918 23.875 440.918 24.3864C440.918 25.0852 441.177 25.6136 441.694 25.9716C442.217 26.3239 442.879 26.5 443.68 26.5ZM453.044 28V14.9091H455.055V20.6023H456.385L461.089 14.9091H463.68L458.396 21.2159L463.749 28H461.158L456.862 22.4773H455.055V28H453.044ZM470.714 28.2727C469.487 28.2727 468.43 27.983 467.543 27.4034C466.657 26.8239 465.975 26.0256 465.498 25.0085C465.021 23.9915 464.782 22.8295 464.782 21.5227C464.782 20.1932 465.026 19.0199 465.515 18.0028C466.009 16.9801 466.697 16.1818 467.577 15.608C468.464 15.0284 469.498 14.7386 470.68 14.7386C471.6 14.7386 472.43 14.9091 473.168 15.25C473.907 15.5909 474.512 16.0682 474.984 16.6818C475.455 17.2955 475.748 18.0114 475.862 18.8295H473.85C473.697 18.233 473.356 17.7045 472.827 17.2443C472.305 16.7784 471.6 16.5455 470.714 16.5455C469.93 16.5455 469.242 16.75 468.651 17.1591C468.066 17.5625 467.609 18.1335 467.279 18.8722C466.955 19.6051 466.793 20.4659 466.793 21.4545C466.793 22.4659 466.952 23.3466 467.271 24.0966C467.594 24.8466 468.049 25.429 468.634 25.8438C469.225 26.2585 469.918 26.4659 470.714 26.4659C471.237 26.4659 471.711 26.375 472.137 26.1932C472.563 26.0114 472.924 25.75 473.219 25.4091C473.515 25.0682 473.725 24.6591 473.85 24.1818H475.862C475.748 24.9545 475.467 25.6506 475.018 26.2699C474.575 26.8835 473.987 27.3722 473.254 27.7358C472.526 28.0938 471.68 28.2727 470.714 28.2727ZM484.29 28.2727C483.029 28.2727 481.941 27.9943 481.026 27.4375C480.117 26.875 479.415 26.0909 478.921 25.0852C478.433 24.0739 478.188 22.8977 478.188 21.5568C478.188 20.2159 478.433 19.0341 478.921 18.0114C479.415 16.983 480.103 16.1818 480.984 15.608C481.87 15.0284 482.904 14.7386 484.086 14.7386C484.768 14.7386 485.441 14.8523 486.106 15.0795C486.771 15.3068 487.376 15.6761 487.921 16.1875C488.467 16.6932 488.901 17.3636 489.225 18.1989C489.549 19.0341 489.711 20.0625 489.711 21.2841V22.1364H479.62V20.3977H487.665C487.665 19.6591 487.518 19 487.222 18.4205C486.933 17.8409 486.518 17.3835 485.978 17.0483C485.444 16.7131 484.813 16.5455 484.086 16.5455C483.285 16.5455 482.592 16.7443 482.006 17.142C481.427 17.5341 480.981 18.0455 480.668 18.6761C480.356 19.3068 480.2 19.983 480.2 20.7045V21.8636C480.2 22.8523 480.37 23.6903 480.711 24.3778C481.058 25.0597 481.538 25.5795 482.151 25.9375C482.765 26.2898 483.478 26.4659 484.29 26.4659C484.819 26.4659 485.296 26.392 485.722 26.2443C486.154 26.0909 486.526 25.8636 486.839 25.5625C487.151 25.2557 487.393 24.875 487.563 24.4205L489.506 24.9659C489.302 25.625 488.958 26.2045 488.475 26.7045C487.992 27.1989 487.396 27.5852 486.685 27.8636C485.975 28.1364 485.177 28.2727 484.29 28.2727ZM481.529 12.7273C481.171 12.7273 480.853 12.5909 480.575 12.3182C480.302 12.0398 480.165 11.7216 480.165 11.3636C480.165 10.9716 480.302 10.6477 480.575 10.392C480.853 10.1307 481.171 10 481.529 10C481.921 10 482.245 10.1307 482.501 10.392C482.762 10.6477 482.893 10.9716 482.893 11.3636C482.893 11.7216 482.762 12.0398 482.501 12.3182C482.245 12.5909 481.921 12.7273 481.529 12.7273ZM486.438 12.7273C486.08 12.7273 485.762 12.5909 485.484 12.3182C485.211 12.0398 485.075 11.7216 485.075 11.3636C485.075 10.9716 485.211 10.6477 485.484 10.392C485.762 10.1307 486.08 10 486.438 10C486.83 10 487.154 10.1307 487.41 10.392C487.671 10.6477 487.802 10.9716 487.802 11.3636C487.802 11.7216 487.671 12.0398 487.41 12.3182C487.154 12.5909 486.83 12.7273 486.438 12.7273ZM501.532 20.5341V22.4091H494.305V20.5341H501.532ZM494.782 14.9091V28H492.771V14.9091H494.782ZM503.066 14.9091V28H501.055V14.9091H503.066ZM512.058 28.2727C510.876 28.2727 509.839 27.9915 508.947 27.429C508.06 26.8665 507.367 26.0795 506.867 25.0682C506.373 24.0568 506.126 22.875 506.126 21.5227C506.126 20.1591 506.373 18.9687 506.867 17.9517C507.367 16.9347 508.06 16.1449 508.947 15.5824C509.839 15.0199 510.876 14.7386 512.058 14.7386C513.239 14.7386 514.273 15.0199 515.16 15.5824C516.052 16.1449 516.745 16.9347 517.239 17.9517C517.739 18.9687 517.989 20.1591 517.989 21.5227C517.989 22.875 517.739 24.0568 517.239 25.0682C516.745 26.0795 516.052 26.8665 515.16 27.429C514.273 27.9915 513.239 28.2727 512.058 28.2727ZM512.058 26.4659C512.955 26.4659 513.694 26.2358 514.273 25.7756C514.853 25.3153 515.282 24.7102 515.56 23.9602C515.839 23.2102 515.978 22.3977 515.978 21.5227C515.978 20.6477 515.839 19.8324 515.56 19.0767C515.282 18.321 514.853 17.7102 514.273 17.2443C513.694 16.7784 512.955 16.5455 512.058 16.5455C511.16 16.5455 510.421 16.7784 509.842 17.2443C509.262 17.7102 508.833 18.321 508.555 19.0767C508.276 19.8324 508.137 20.6477 508.137 21.5227C508.137 22.3977 508.276 23.2102 508.555 23.9602C508.833 24.7102 509.262 25.3153 509.842 25.7756C510.421 26.2358 511.16 26.4659 512.058 26.4659ZM521.06 28V14.9091H526.412C527.821 14.9091 528.94 15.2273 529.77 15.8636C530.599 16.5 531.014 17.3409 531.014 18.3864C531.014 19.1818 530.778 19.7983 530.307 20.2358C529.835 20.6676 529.23 20.9602 528.491 21.1136C528.974 21.1818 529.443 21.3523 529.898 21.625C530.358 21.8977 530.739 22.2727 531.04 22.75C531.341 23.2216 531.491 23.8011 531.491 24.4886C531.491 25.1591 531.321 25.7585 530.98 26.2869C530.639 26.8153 530.151 27.233 529.514 27.5398C528.878 27.8466 528.116 28 527.23 28H521.06ZM522.969 26.1591H527.23C527.923 26.1591 528.466 25.9943 528.858 25.6648C529.25 25.3352 529.446 24.8864 529.446 24.3182C529.446 23.642 529.25 23.1108 528.858 22.7244C528.466 22.3324 527.923 22.1364 527.23 22.1364H522.969V26.1591ZM522.969 20.3977H526.412C526.952 20.3977 527.415 20.3239 527.801 20.1761C528.188 20.0227 528.483 19.8068 528.688 19.5284C528.898 19.2443 529.003 18.9091 529.003 18.5227C529.003 17.9716 528.773 17.5398 528.312 17.2273C527.852 16.9091 527.219 16.75 526.412 16.75H522.969V20.3977ZM538.388 28.3068C537.559 28.3068 536.806 28.1506 536.13 27.8381C535.454 27.5199 534.917 27.0625 534.519 26.4659C534.121 25.8636 533.923 25.1364 533.923 24.2841C533.923 23.5341 534.07 22.9261 534.366 22.4602C534.661 21.9886 535.056 21.6193 535.55 21.3523C536.045 21.0852 536.59 20.8864 537.187 20.7557C537.789 20.6193 538.394 20.5114 539.002 20.4318C539.798 20.3295 540.442 20.2528 540.937 20.2017C541.437 20.1449 541.8 20.0511 542.028 19.9205C542.261 19.7898 542.377 19.5625 542.377 19.2386V19.1705C542.377 18.3295 542.147 17.6761 541.687 17.2102C541.232 16.7443 540.542 16.5114 539.616 16.5114C538.656 16.5114 537.903 16.7216 537.357 17.142C536.812 17.5625 536.428 18.0114 536.207 18.4886L534.298 17.8068C534.638 17.0114 535.093 16.392 535.661 15.9489C536.235 15.5 536.86 15.1875 537.536 15.0114C538.218 14.8295 538.888 14.7386 539.548 14.7386C539.968 14.7386 540.451 14.7898 540.996 14.892C541.548 14.9886 542.079 15.1903 542.59 15.4972C543.107 15.804 543.536 16.267 543.877 16.8864C544.218 17.5057 544.388 18.3352 544.388 19.375V28H542.377V26.2273H542.275C542.138 26.5114 541.911 26.8153 541.593 27.1392C541.275 27.4631 540.852 27.7386 540.323 27.9659C539.795 28.1932 539.15 28.3068 538.388 28.3068ZM538.695 26.5C539.491 26.5 540.161 26.3438 540.707 26.0312C541.258 25.7188 541.673 25.3153 541.951 24.821C542.235 24.3267 542.377 23.8068 542.377 23.2614V21.4205C542.292 21.5227 542.104 21.6165 541.815 21.7017C541.531 21.7812 541.201 21.8523 540.826 21.9148C540.457 21.9716 540.096 22.0227 539.744 22.0682C539.397 22.108 539.116 22.142 538.9 22.1705C538.377 22.2386 537.888 22.3494 537.434 22.5028C536.985 22.6506 536.621 22.875 536.343 23.1761C536.07 23.4716 535.934 23.875 535.934 24.3864C535.934 25.0852 536.192 25.6136 536.71 25.9716C537.232 26.3239 537.894 26.5 538.695 26.5Z" fill="white"/>
</svg>
