<svg width="1198" height="158" viewBox="0 0 1198 158" fill="none" xmlns="http://www.w3.org/2000/svg">
<g clip-path="url(#clip0_323_2767)">
<circle cx="90.612" cy="78.612" r="58.612" fill="white"/>
<path d="M110.364 22.2695L95.7933 45.0498L93.1253 61.8784V75.8339L85.3267 89.3789L71.9869 125.499L65.8301 134.324" stroke="#FF5695" stroke-width="3.28364"/>
<path d="M41.8193 114.006H50.6441L63.3682 110.928L86.5589 106.824H90.8687L109.544 98.6144L121.653 96.1517L133.146 88.7635L151 86.3008" stroke="#FF5695" stroke-width="3.28364"/>
<circle cx="239.642" cy="78.3824" r="58.612" transform="rotate(15 239.642 78.3824)" fill="white"/>
<path d="M273.304 29.0713L253.333 47.304L246.401 62.8687L242.789 76.3487L231.75 87.4137L209.516 118.85L201.285 125.781" stroke="#FF5695" stroke-width="3.28364"/>
<path d="M183.352 99.9414L191.876 102.225L204.963 102.545L228.426 104.583L232.589 105.698L252.753 102.602L265.086 103.357L278.099 99.1955L295.983 101.438" stroke="#FF5695" stroke-width="3.28364"/>
<circle cx="389.731" cy="78.1671" r="58.612" transform="rotate(30 389.731 78.1671)" fill="white"/>
<path d="M435.008 39.2477L410.999 51.6904L400.274 64.9304L393.297 77.0162L379.77 84.8472L350.158 109.458L340.413 114.022" stroke="#FF5695" stroke-width="3.28364"/>
<path d="M329.778 84.4216L337.42 88.834L349.979 92.53L372.115 100.571L375.847 102.726L396.126 104.954L407.843 108.876L421.49 108.224L438.184 115.018" stroke="#FF5695" stroke-width="3.28364"/>
<circle cx="539.872" cy="77.9837" r="58.612" transform="rotate(45 539.872 77.9837)" fill="white"/>
<path d="M593.68 52.1097L567.269 57.9144L553.482 67.9275L543.614 77.7955L528.522 81.8588L493.549 97.9669L482.955 99.8534" stroke="#FF5695" stroke-width="3.28364"/>
<path d="M480.344 68.5089L486.584 74.7489L497.758 81.5695L517.058 95.0654L520.106 98.1129L539.116 105.514L549.42 112.334L562.771 115.237L577.137 126.121" stroke="#FF5695" stroke-width="3.28364"/>
<circle cx="689.612" cy="78.612" r="58.612" fill="white"/>
<path d="M709.364 22.2695L694.793 45.0498L692.125 61.8784V75.8339L684.327 89.3789L670.987 125.499L664.83 134.324" stroke="#FF5695" stroke-width="3.28364"/>
<path d="M640.819 114.006H649.644L662.368 110.928L685.559 106.824H689.869L708.544 98.6144L720.653 96.1517L732.146 88.7635L750 86.3008" stroke="#FF5695" stroke-width="3.28364"/>
<circle cx="838.642" cy="78.3824" r="58.612" transform="rotate(15 838.642 78.3824)" fill="white"/>
<path d="M872.304 29.0713L852.333 47.304L845.401 62.8687L841.789 76.3487L830.75 87.4137L808.516 118.85L800.285 125.781" stroke="#FF5695" stroke-width="3.28364"/>
<path d="M782.352 99.9414L790.876 102.225L803.963 102.545L827.426 104.583L831.589 105.698L851.753 102.602L864.086 103.357L877.099 99.1955L894.983 101.438" stroke="#FF5695" stroke-width="3.28364"/>
<circle cx="988.731" cy="78.1671" r="58.612" transform="rotate(30 988.731 78.1671)" fill="white"/>
<path d="M1034.01 39.2477L1010 51.6904L999.274 64.9304L992.297 77.0162L978.77 84.8472L949.158 109.458L939.413 114.022" stroke="#FF5695" stroke-width="3.28364"/>
<path d="M928.778 84.4216L936.42 88.834L948.979 92.53L971.115 100.571L974.847 102.726L995.126 104.954L1006.84 108.876L1020.49 108.224L1037.18 115.018" stroke="#FF5695" stroke-width="3.28364"/>
<circle cx="1138.87" cy="77.9837" r="58.612" transform="rotate(45 1138.87 77.9837)" fill="white"/>
<path d="M1192.68 52.1097L1166.27 57.9144L1152.48 67.9275L1142.61 77.7955L1127.52 81.8588L1092.55 97.9669L1081.96 99.8534" stroke="#FF5695" stroke-width="3.28364"/>
<path d="M1079.34 68.5089L1085.58 74.7489L1096.76 81.5695L1116.06 95.0654L1119.11 98.1129L1138.12 105.514L1148.42 112.334L1161.77 115.237L1176.14 126.121" stroke="#FF5695" stroke-width="3.28364"/>
</g>
<defs>
<clipPath id="clip0_323_2767">
<rect width="1198" height="158" fill="white"/>
</clipPath>
</defs>
</svg>
