<svg width="571" height="158" viewBox="0 0 571 158" fill="none" xmlns="http://www.w3.org/2000/svg">
<g clip-path="url(#clip0_334_15866)">
<g clip-path="url(#clip1_334_15866)">
<path d="M21.8003 35.844L22.0227 38.967L31.342 29.2007L24.8475 21.5022L30.5414 17.9579L37.6587 25.612L41.9736 20.2826L43.9753 22.0233L47.7119 21.7572L48.1567 28.0032L53.7616 27.6041L57.6094 33.2938L54.6512 40.0961L61.1903 39.6304L64.9491 44.0709L65.5274 52.1907L55.5631 52.9003L59.2552 56.404L66.328 63.4335L70.9543 71.265L71.8661 84.0693L74.713 88.8887L76.1364 108.876L75.1577 130.29L71.3321 133.701L51.804 131.953L14.5715 114.516L1.84933 94.0777L0.581625 76.2766L6.63142 60.1516L9.83427 47.9959L12.1474 36.5314L21.8003 35.844Z" fill="#1D1C22"/>
</g>
<g clip-path="url(#clip2_334_15866)">
<path d="M39.5249 39.1233L39.7473 42.2463L49.0666 32.48L42.5721 24.7815L48.266 21.2372L55.3833 28.8913L59.6982 23.5619L61.6999 25.3026L65.4365 25.0365L65.8813 31.2825L71.4862 30.8834L75.334 36.5731L72.3758 43.3753L78.9149 42.9097L82.6737 47.3502L83.252 55.47L73.2877 56.1796L76.9798 59.6833L84.0526 66.7128L88.6789 74.5443L89.5907 87.3486L92.4376 92.168L93.861 112.155L92.8823 133.569L89.0567 136.98L69.5286 135.232L32.2961 117.795L19.5739 97.357L18.3062 79.5559L24.356 63.4309L27.5589 51.2752L29.8721 39.8107L39.5249 39.1233Z" fill="#1D1C22"/>
</g>
<g clip-path="url(#clip3_334_15866)">
<path d="M116.561 35.844L116.783 38.967L126.103 29.2007L119.608 21.5022L125.302 17.9579L132.419 25.612L136.734 20.2826L138.736 22.0233L142.473 21.7572L142.917 28.0032L148.522 27.6041L152.37 33.2938L149.412 40.0961L155.951 39.6304L159.71 44.0709L160.288 52.1907L150.324 52.9003L154.016 56.404L161.089 63.4335L165.715 71.265L166.627 84.0693L169.474 88.8887L170.897 108.876L169.918 130.29L166.093 133.701L146.565 131.953L109.332 114.516L96.6101 94.0777L95.3424 76.2766L101.392 60.1516L104.595 47.9959L106.908 36.5314L116.561 35.844Z" fill="#1D1C22"/>
</g>
<g clip-path="url(#clip4_334_15866)">
<path d="M134.293 39.1233L134.515 42.2463L143.834 32.48L137.34 24.7815L143.034 21.2372L150.151 28.8913L154.466 23.5619L156.468 25.3026L160.204 25.0365L160.649 31.2825L166.254 30.8834L170.102 36.5731L167.143 43.3753L173.682 42.9097L177.441 47.3502L178.02 55.47L168.055 56.1796L171.747 59.6833L178.82 66.7128L183.446 74.5443L184.358 87.3486L187.205 92.168L188.629 112.155L187.65 133.569L183.824 136.98L164.296 135.232L127.064 117.795L114.342 97.357L113.074 79.5559L119.124 63.4309L122.326 51.2752L124.64 39.8107L134.293 39.1233Z" fill="#1D1C22"/>
</g>
<g clip-path="url(#clip5_334_15866)">
<path d="M211.322 35.844L211.544 38.967L220.864 29.2007L214.369 21.5022L220.063 17.9579L227.18 25.612L231.495 20.2826L233.497 22.0233L237.233 21.7572L237.678 28.0032L243.283 27.6041L247.131 33.2938L244.173 40.0961L250.712 39.6304L254.471 44.0709L255.049 52.1907L245.085 52.9003L248.777 56.404L255.85 63.4335L260.476 71.265L261.388 84.0693L264.235 88.8887L265.658 108.876L264.679 130.29L260.854 133.701L241.325 131.953L204.093 114.516L191.371 94.0777L190.103 76.2766L196.153 60.1516L199.356 47.9959L201.669 36.5314L211.322 35.844Z" fill="#1D1C22"/>
</g>
<g clip-path="url(#clip6_334_15866)">
<path d="M229.049 39.1233L229.272 42.2463L238.591 32.48L232.097 24.7815L237.79 21.2372L244.908 28.8913L249.223 23.5619L251.224 25.3026L254.961 25.0365L255.406 31.2825L261.011 30.8834L264.858 36.5731L261.9 43.3753L268.439 42.9097L272.198 47.3502L272.776 55.47L262.812 56.1796L266.504 59.6833L273.577 66.7128L278.203 74.5443L279.115 87.3486L281.962 92.168L283.385 112.155L282.407 133.569L278.581 136.98L259.053 135.232L221.821 117.795L209.098 97.357L207.831 79.5559L213.88 63.4309L217.083 51.2752L219.396 39.8107L229.049 39.1233Z" fill="#1D1C22"/>
</g>
<g clip-path="url(#clip7_334_15866)">
<g clip-path="url(#clip8_334_15866)">
<path d="M308.8 35.844L309.023 38.967L318.342 29.2007L311.847 21.5022L317.541 17.9579L324.659 25.612L328.974 20.2826L330.975 22.0233L334.712 21.7572L335.157 28.0032L340.762 27.6041L344.609 33.2938L341.651 40.0961L348.19 39.6304L351.949 44.0709L352.527 52.1907L342.563 52.9003L346.255 56.404L353.328 63.4335L357.954 71.265L358.866 84.0693L361.713 88.8887L363.136 108.876L362.158 130.29L358.332 133.701L338.804 131.953L301.571 114.516L288.849 94.0777L287.582 76.2766L293.631 60.1516L296.834 47.9959L299.147 36.5314L308.8 35.844Z" fill="#1D1C22"/>
</g>
<g clip-path="url(#clip9_334_15866)">
<path d="M326.525 39.1233L326.747 42.2463L336.067 32.48L329.572 24.7815L335.266 21.2372L342.383 28.8913L346.698 23.5619L348.7 25.3026L352.437 25.0365L352.881 31.2825L358.486 30.8834L362.334 36.5731L359.376 43.3753L365.915 42.9097L369.674 47.3502L370.252 55.47L360.288 56.1796L363.98 59.6833L371.053 66.7128L375.679 74.5443L376.591 87.3486L379.438 92.168L380.861 112.155L379.882 133.569L376.057 136.98L356.529 135.232L319.296 117.795L306.574 97.357L305.306 79.5559L311.356 63.4309L314.559 51.2752L316.872 39.8107L326.525 39.1233Z" fill="#1D1C22"/>
</g>
<g clip-path="url(#clip10_334_15866)">
<path d="M403.561 35.844L403.783 38.967L413.103 29.2007L406.608 21.5022L412.302 17.9579L419.419 25.612L423.734 20.2826L425.736 22.0233L429.473 21.7572L429.917 28.0032L435.522 27.6041L439.37 33.2938L436.412 40.0961L442.951 39.6304L446.71 44.0709L447.288 52.1907L437.324 52.9003L441.016 56.404L448.089 63.4335L452.715 71.265L453.627 84.0693L456.474 88.8887L457.897 108.876L456.918 130.29L453.093 133.701L433.565 131.953L396.332 114.516L383.61 94.0777L382.342 76.2766L388.392 60.1516L391.595 47.9959L393.908 36.5314L403.561 35.844Z" fill="#1D1C22"/>
</g>
<g clip-path="url(#clip11_334_15866)">
<path d="M421.293 39.1233L421.515 42.2463L430.834 32.48L424.34 24.7815L430.034 21.2372L437.151 28.8913L441.466 23.5619L443.468 25.3026L447.204 25.0365L447.649 31.2825L453.254 30.8834L457.102 36.5731L454.143 43.3753L460.682 42.9097L464.441 47.3502L465.02 55.47L455.055 56.1796L458.747 59.6833L465.82 66.7128L470.446 74.5443L471.358 87.3486L474.205 92.168L475.629 112.155L474.65 133.569L470.824 136.98L451.296 135.232L414.064 117.795L401.342 97.357L400.074 79.5559L406.124 63.4309L409.326 51.2752L411.64 39.8107L421.293 39.1233Z" fill="#1D1C22"/>
</g>
<g clip-path="url(#clip12_334_15866)">
<path d="M498.322 35.844L498.544 38.967L507.864 29.2007L501.369 21.5022L507.063 17.9579L514.18 25.612L518.495 20.2826L520.497 22.0233L524.233 21.7572L524.678 28.0032L530.283 27.6041L534.131 33.2938L531.173 40.0961L537.712 39.6304L541.471 44.0709L542.049 52.1907L532.085 52.9003L535.777 56.404L542.85 63.4335L547.476 71.265L548.388 84.0693L551.235 88.8887L552.658 108.876L551.679 130.29L547.854 133.701L528.325 131.953L491.093 114.516L478.371 94.0777L477.103 76.2766L483.153 60.1516L486.356 47.9959L488.669 36.5314L498.322 35.844Z" fill="#1D1C22"/>
</g>
<g clip-path="url(#clip13_334_15866)">
<path d="M516.049 39.1233L516.272 42.2463L525.591 32.48L519.097 24.7815L524.79 21.2372L531.908 28.8913L536.223 23.5619L538.224 25.3026L541.961 25.0365L542.406 31.2825L548.011 30.8834L551.858 36.5731L548.9 43.3753L555.439 42.9097L559.198 47.3502L559.776 55.47L549.812 56.1796L553.504 59.6833L560.577 66.7128L565.203 74.5443L566.115 87.3486L568.962 92.168L570.385 112.155L569.407 133.569L565.581 136.98L546.053 135.232L508.821 117.795L496.098 97.357L494.831 79.5559L500.88 63.4309L504.083 51.2752L506.396 39.8107L516.049 39.1233Z" fill="#1D1C22"/>
</g>
</g>
</g>
<defs>
<clipPath id="clip0_334_15866">
<rect width="571" height="158" fill="white"/>
</clipPath>
<clipPath id="clip1_334_15866">
<rect width="104.901" height="82.4226" fill="white" transform="translate(-10 13)"/>
</clipPath>
<clipPath id="clip2_334_15866">
<rect width="104.901" height="42.8764" fill="white" transform="translate(-0.426758 98.7012)"/>
</clipPath>
<clipPath id="clip3_334_15866">
<rect width="104.901" height="82.4226" fill="white" transform="translate(84.7627 13)"/>
</clipPath>
<clipPath id="clip4_334_15866">
<rect width="104.901" height="42.8764" fill="white" transform="translate(94.3359 98.7012)"/>
</clipPath>
<clipPath id="clip5_334_15866">
<rect width="104.901" height="82.4226" fill="white" transform="translate(179.525 13)"/>
</clipPath>
<clipPath id="clip6_334_15866">
<rect width="104.901" height="42.8764" fill="white" transform="translate(189.099 98.7012)"/>
</clipPath>
<clipPath id="clip7_334_15866">
<rect width="290" height="158" fill="white" transform="translate(284)"/>
</clipPath>
<clipPath id="clip8_334_15866">
<rect width="104.901" height="82.4226" fill="white" transform="translate(277 13)"/>
</clipPath>
<clipPath id="clip9_334_15866">
<rect width="104.901" height="42.8764" fill="white" transform="translate(286.573 98.7012)"/>
</clipPath>
<clipPath id="clip10_334_15866">
<rect width="104.901" height="82.4226" fill="white" transform="translate(371.763 13)"/>
</clipPath>
<clipPath id="clip11_334_15866">
<rect width="104.901" height="42.8764" fill="white" transform="translate(381.336 98.7012)"/>
</clipPath>
<clipPath id="clip12_334_15866">
<rect width="104.901" height="82.4226" fill="white" transform="translate(466.525 13)"/>
</clipPath>
<clipPath id="clip13_334_15866">
<rect width="104.901" height="42.8764" fill="white" transform="translate(476.099 98.7012)"/>
</clipPath>
</defs>
</svg>
