<svg width="910" height="158" viewBox="0 0 910 158" fill="none" xmlns="http://www.w3.org/2000/svg">
<g clip-path="url(#clip0_336_16323)">
<rect width="39.5652" height="39.5652" fill="#1D1C22"/>
<rect y="79.1309" width="39.5652" height="39.5652" fill="#1D1C22"/>
<rect x="39.5654" width="39.5652" height="39.5652" fill="white"/>
<rect x="39.5645" y="79.1309" width="39.5652" height="39.5652" fill="white"/>
<rect y="39.5664" width="39.5652" height="39.5652" fill="white"/>
<rect y="118.695" width="39.5652" height="39.5652" fill="white"/>
<rect x="79.1299" width="39.5652" height="39.5652" fill="#1D1C22"/>
<rect x="79.1299" y="79.1309" width="39.5652" height="39.5652" fill="#1D1C22"/>
<rect x="39.5654" y="39.5645" width="39.5652" height="39.5652" fill="#1D1C22"/>
<rect x="39.5645" y="118.695" width="39.5652" height="39.5652" fill="#1D1C22"/>
<rect x="118.695" width="39.5652" height="39.5652" fill="white"/>
<rect x="118.695" y="79.1309" width="39.5652" height="39.5652" fill="white"/>
<rect x="79.1299" y="39.5645" width="39.5652" height="39.5652" fill="white"/>
<rect x="79.1299" y="118.695" width="39.5652" height="39.5652" fill="white"/>
<rect x="158.261" width="39.5652" height="39.5652" fill="#1D1C22"/>
<rect x="158.261" y="79.1309" width="39.5652" height="39.5652" fill="#1D1C22"/>
<rect x="118.695" y="39.5645" width="39.5652" height="39.5652" fill="#1D1C22"/>
<rect x="118.695" y="118.695" width="39.5652" height="39.5652" fill="#1D1C22"/>
<rect x="197.826" width="39.5652" height="39.5652" fill="white"/>
<rect x="197.826" y="79.1309" width="39.5652" height="39.5652" fill="white"/>
<rect x="158.261" y="39.5645" width="39.5652" height="39.5652" fill="white"/>
<rect x="158.261" y="118.695" width="39.5652" height="39.5652" fill="white"/>
<rect x="237.391" width="39.5652" height="39.5652" fill="#1D1C22"/>
<rect x="237.391" y="79.1309" width="39.5652" height="39.5652" fill="#1D1C22"/>
<rect x="197.826" y="39.5645" width="39.5652" height="39.5652" fill="#1D1C22"/>
<rect x="197.826" y="118.695" width="39.5652" height="39.5652" fill="#1D1C22"/>
<rect x="276.956" width="39.5652" height="39.5652" fill="white"/>
<rect x="276.956" y="79.1309" width="39.5652" height="39.5652" fill="white"/>
<rect x="237.391" y="39.5645" width="39.5652" height="39.5652" fill="white"/>
<rect x="237.391" y="118.695" width="39.5652" height="39.5652" fill="white"/>
<rect x="316.521" width="39.5652" height="39.5652" fill="#1D1C22"/>
<rect x="316.521" y="79.1309" width="39.5652" height="39.5652" fill="#1D1C22"/>
<rect x="276.956" y="39.5645" width="39.5652" height="39.5652" fill="#1D1C22"/>
<rect x="276.956" y="118.695" width="39.5652" height="39.5652" fill="#1D1C22"/>
<rect x="356.087" width="39.5652" height="39.5652" fill="white"/>
<rect x="356.087" y="79.1309" width="39.5652" height="39.5652" fill="white"/>
<rect x="316.521" y="39.5645" width="39.5652" height="39.5652" fill="white"/>
<rect x="316.521" y="118.695" width="39.5652" height="39.5652" fill="white"/>
<rect x="395.652" width="39.5652" height="39.5652" fill="#1D1C22"/>
<rect x="395.652" y="79.1309" width="39.5652" height="39.5652" fill="#1D1C22"/>
<rect x="356.087" y="39.5645" width="39.5652" height="39.5652" fill="#1D1C22"/>
<rect x="356.087" y="118.695" width="39.5652" height="39.5652" fill="#1D1C22"/>
<rect x="435.217" width="39.5652" height="39.5652" fill="white"/>
<rect x="435.217" y="79.1309" width="39.5652" height="39.5652" fill="white"/>
<rect x="395.652" y="39.5645" width="39.5652" height="39.5652" fill="white"/>
<rect x="395.652" y="118.695" width="39.5652" height="39.5652" fill="white"/>
<rect x="474.782" width="39.5652" height="39.5652" fill="#1D1C22"/>
<rect x="474.782" y="79.1309" width="39.5652" height="39.5652" fill="#1D1C22"/>
<rect x="435.217" y="39.5645" width="39.5652" height="39.5652" fill="#1D1C22"/>
<rect x="435.217" y="118.695" width="39.5652" height="39.5652" fill="#1D1C22"/>
<rect x="514.348" width="39.5652" height="39.5652" fill="white"/>
<rect x="514.348" y="79.1309" width="39.5652" height="39.5652" fill="white"/>
<rect x="474.782" y="39.5645" width="39.5652" height="39.5652" fill="white"/>
<rect x="474.782" y="118.695" width="39.5652" height="39.5652" fill="white"/>
<rect x="553.913" width="39.5652" height="39.5652" fill="#1D1C22"/>
<rect x="553.913" y="79.1309" width="39.5652" height="39.5652" fill="#1D1C22"/>
<rect x="514.348" y="39.5645" width="39.5652" height="39.5652" fill="#1D1C22"/>
<rect x="514.348" y="118.695" width="39.5652" height="39.5652" fill="#1D1C22"/>
<rect x="593.479" width="39.5652" height="39.5652" fill="white"/>
<rect x="593.479" y="79.1309" width="39.5652" height="39.5652" fill="white"/>
<rect x="553.913" y="39.5645" width="39.5652" height="39.5652" fill="white"/>
<rect x="553.913" y="118.695" width="39.5652" height="39.5652" fill="white"/>
<rect x="633.043" width="39.5652" height="39.5652" fill="#1D1C22"/>
<rect x="633.043" y="79.1309" width="39.5652" height="39.5652" fill="#1D1C22"/>
<rect x="593.479" y="39.5645" width="39.5652" height="39.5652" fill="#1D1C22"/>
<rect x="593.479" y="118.695" width="39.5652" height="39.5652" fill="#1D1C22"/>
<rect x="672.608" width="39.5652" height="39.5652" fill="white"/>
<rect x="672.608" y="79.1309" width="39.5652" height="39.5652" fill="white"/>
<rect x="633.043" y="39.5664" width="39.5652" height="39.5652" fill="white"/>
<rect x="633.043" y="118.695" width="39.5652" height="39.5652" fill="white"/>
<rect x="712.174" width="39.5652" height="39.5652" fill="#1D1C22"/>
<rect x="712.174" y="79.1309" width="39.5652" height="39.5652" fill="#1D1C22"/>
<rect x="672.608" y="39.5645" width="39.5652" height="39.5652" fill="#1D1C22"/>
<rect x="672.608" y="118.695" width="39.5652" height="39.5652" fill="#1D1C22"/>
<rect x="751.739" width="39.5652" height="39.5652" fill="white"/>
<rect x="751.739" y="79.1309" width="39.5652" height="39.5652" fill="white"/>
<rect x="712.174" y="39.5645" width="39.5652" height="39.5652" fill="white"/>
<rect x="712.174" y="118.695" width="39.5652" height="39.5652" fill="white"/>
<rect x="791.304" width="39.5652" height="39.5652" fill="#1D1C22"/>
<rect x="791.304" y="79.1309" width="39.5652" height="39.5652" fill="#1D1C22"/>
<rect x="751.739" y="39.5645" width="39.5652" height="39.5652" fill="#1D1C22"/>
<rect x="751.739" y="118.695" width="39.5652" height="39.5652" fill="#1D1C22"/>
<rect x="830.869" width="39.5652" height="39.5652" fill="white"/>
<rect x="830.869" y="79.1309" width="39.5652" height="39.5652" fill="white"/>
<rect x="791.304" y="39.5645" width="39.5652" height="39.5652" fill="white"/>
<rect x="791.304" y="118.695" width="39.5652" height="39.5652" fill="white"/>
<rect x="870.435" width="39.5652" height="39.5652" fill="#1D1C22"/>
<rect x="870.435" y="79.1309" width="39.5652" height="39.5652" fill="#1D1C22"/>
<rect x="830.869" y="39.5645" width="39.5652" height="39.5652" fill="#1D1C22"/>
<rect x="830.869" y="118.695" width="39.5652" height="39.5652" fill="#1D1C22"/>
<rect x="870.435" y="39.5645" width="39.5652" height="39.5652" fill="white"/>
<rect x="870.435" y="118.695" width="39.5652" height="39.5652" fill="white"/>
</g>
<defs>
<clipPath id="clip0_336_16323">
<rect width="910" height="158" fill="white"/>
</clipPath>
</defs>
</svg>
