<svg width="290" height="158" viewBox="0 0 290 158" fill="none" xmlns="http://www.w3.org/2000/svg">
<g clip-path="url(#clip0_315_2484)">
<rect width="290" height="158" rx="30" fill="#1D1C22"/>
<path d="M94.1209 106.643L73.4822 166.545L35.0074 166.545L94.1209 106.643Z" fill="white"/>
<path d="M150.853 -12.9993L103.803 82.9727L87.4078 -12.9993L150.853 -12.9993Z" fill="white"/>
<path d="M94.1209 92.6342C61.2518 110.025 -5.14902 144.806 -7.79892 144.806L-7.79892 132.73L94.1209 92.6342Z" fill="white"/>
<path d="M51.5694 74.2773L88.7701 82.9727L59.2134 39.4957L51.5694 74.2773Z" fill="white"/>
<path d="M111.702 92.6342L270.697 18.7234L167.248 -3.98117L111.702 92.6342Z" fill="white"/>
<path d="M297.528 70.8509L107.455 102.159L249.066 159.71L298.779 159.018L297.528 70.8509Z" fill="white"/>
<path d="M103 112L89 167H216.5L103 112Z" fill="white"/>
</g>
<defs>
<clipPath id="clip0_315_2484">
<rect width="290" height="158" fill="white"/>
</clipPath>
</defs>
</svg>
