<svg width="290" height="225" viewBox="0 0 290 225" fill="none" xmlns="http://www.w3.org/2000/svg">
<g clip-path="url(#clip0_318_2538)">
<rect width="290" height="225" rx="30" fill="#1D1C22"/>
<path d="M93.7027 173.727L72.2158 233.33L33.745 232.783L93.7027 173.727Z" fill="white"/>
<path d="M162 -10.999L103.72 150.196L98.5612 -11.8996L162 -10.999Z" fill="white"/>
<path d="M93.9016 159.719C60.7889 176.642 -6.09891 210.477 -8.74855 210.44L-8.57713 198.364L93.9016 159.719Z" fill="white"/>
<path d="M51.6149 140.76L88.6884 149.983L59.7518 106.091L51.6149 140.76Z" fill="white"/>
<path d="M111.481 159.969L271.509 88.3221L168.393 64.1515L111.481 159.969Z" fill="white"/>
<path d="M297.597 140.825L107.099 169.432L247.879 228.988L297.597 229.001L297.597 140.825Z" fill="white"/>
</g>
<defs>
<clipPath id="clip0_318_2538">
<rect width="290" height="225" fill="white"/>
</clipPath>
</defs>
</svg>
