<svg width="447" height="40" viewBox="0 0 447 40" fill="none" xmlns="http://www.w3.org/2000/svg">
<rect width="447" height="40" fill="#1D1C22"/>
<path d="M18.8409 27.9091V9.90909H20.7841V11.9886H21.0227C21.1705 11.7614 21.375 11.4716 21.6364 11.1193C21.9034 10.7614 22.2841 10.4432 22.7784 10.1648C23.2784 9.88068 23.9545 9.73864 24.8068 9.73864C25.9091 9.73864 26.8807 10.0142 27.7216 10.5653C28.5625 11.1165 29.2188 11.8977 29.6903 12.9091C30.1619 13.9205 30.3977 15.1136 30.3977 16.4886C30.3977 17.875 30.1619 19.0767 29.6903 20.0938C29.2188 21.1051 28.5653 21.8892 27.7301 22.446C26.8949 22.9972 25.9318 23.2727 24.8409 23.2727C24 23.2727 23.3267 23.1335 22.821 22.8551C22.3153 22.571 21.9261 22.25 21.6534 21.892C21.3807 21.5284 21.1705 21.2273 21.0227 20.9886H20.8523V27.9091H18.8409ZM20.8182 16.4545C20.8182 17.4432 20.9631 18.3153 21.2528 19.071C21.5426 19.821 21.9659 20.4091 22.5227 20.8352C23.0795 21.2557 23.7614 21.4659 24.5682 21.4659C25.4091 21.4659 26.1108 21.2443 26.6733 20.8011C27.2415 20.3523 27.6676 19.75 27.9517 18.9943C28.2415 18.233 28.3864 17.3864 28.3864 16.4545C28.3864 15.5341 28.2443 14.7045 27.9602 13.9659C27.6818 13.2216 27.2585 12.6335 26.6903 12.2017C26.1278 11.7642 25.4205 11.5455 24.5682 11.5455C23.75 11.5455 23.0625 11.7528 22.5057 12.1676C21.9489 12.5767 21.5284 13.1506 21.2443 13.8892C20.9602 14.6222 20.8182 15.4773 20.8182 16.4545ZM38.9545 23.2727C37.6932 23.2727 36.6051 22.9943 35.6903 22.4375C34.7812 21.875 34.0795 21.0909 33.5852 20.0852C33.0966 19.0739 32.8523 17.8977 32.8523 16.5568C32.8523 15.2159 33.0966 14.0341 33.5852 13.0114C34.0795 11.983 34.767 11.1818 35.6477 10.608C36.5341 10.0284 37.5682 9.73864 38.75 9.73864C39.4318 9.73864 40.1051 9.85227 40.7699 10.0795C41.4347 10.3068 42.0398 10.6761 42.5852 11.1875C43.1307 11.6932 43.5653 12.3636 43.8892 13.1989C44.2131 14.0341 44.375 15.0625 44.375 16.2841V17.1364H34.2841V15.3977H42.3295C42.3295 14.6591 42.1818 14 41.8864 13.4205C41.5966 12.8409 41.1818 12.3835 40.642 12.0483C40.108 11.7131 39.4773 11.5455 38.75 11.5455C37.9489 11.5455 37.2557 11.7443 36.6705 12.142C36.0909 12.5341 35.6449 13.0455 35.3324 13.6761C35.0199 14.3068 34.8636 14.983 34.8636 15.7045V16.8636C34.8636 17.8523 35.0341 18.6903 35.375 19.3778C35.7216 20.0597 36.2017 20.5795 36.8153 20.9375C37.429 21.2898 38.142 21.4659 38.9545 21.4659C39.483 21.4659 39.9602 21.392 40.3864 21.2443C40.8182 21.0909 41.1903 20.8636 41.5028 20.5625C41.8153 20.2557 42.0568 19.875 42.2273 19.4205L44.1705 19.9659C43.9659 20.625 43.6222 21.2045 43.1392 21.7045C42.6563 22.1989 42.0597 22.5852 41.3494 22.8636C40.6392 23.1364 39.8409 23.2727 38.9545 23.2727ZM52.7528 23.2727C51.5256 23.2727 50.4688 22.983 49.5824 22.4034C48.696 21.8239 48.0142 21.0256 47.5369 20.0085C47.0597 18.9915 46.821 17.8295 46.821 16.5227C46.821 15.1932 47.0653 14.0199 47.554 13.0028C48.0483 11.9801 48.7358 11.1818 49.6165 10.608C50.5028 10.0284 51.5369 9.73864 52.7188 9.73864C53.6392 9.73864 54.4688 9.90909 55.2074 10.25C55.946 10.5909 56.5511 11.0682 57.0227 11.6818C57.4943 12.2955 57.7869 13.0114 57.9006 13.8295H55.8892C55.7358 13.233 55.3949 12.7045 54.8665 12.2443C54.3438 11.7784 53.6392 11.5455 52.7528 11.5455C51.9688 11.5455 51.2813 11.75 50.6903 12.1591C50.1051 12.5625 49.6477 13.1335 49.3182 13.8722C48.9943 14.6051 48.8324 15.4659 48.8324 16.4545C48.8324 17.4659 48.9915 18.3466 49.3097 19.0966C49.6335 19.8466 50.0881 20.429 50.6733 20.8438C51.2642 21.2585 51.9574 21.4659 52.7528 21.4659C53.2756 21.4659 53.75 21.375 54.1761 21.1932C54.6023 21.0114 54.9631 20.75 55.2585 20.4091C55.554 20.0682 55.7642 19.6591 55.8892 19.1818H57.9006C57.7869 19.9545 57.5057 20.6506 57.0568 21.2699C56.6136 21.8835 56.0256 22.3722 55.2926 22.7358C54.5653 23.0938 53.7188 23.2727 52.7528 23.2727ZM59.8097 11.7841V9.90909H70.446V11.7841H66.1506V23H64.1392V11.7841H59.8097ZM76.5526 23.3068C75.723 23.3068 74.9702 23.1506 74.294 22.8381C73.6179 22.5199 73.081 22.0625 72.6832 21.4659C72.2855 20.8636 72.0866 20.1364 72.0866 19.2841C72.0866 18.5341 72.2344 17.9261 72.5298 17.4602C72.8253 16.9886 73.2202 16.6193 73.7145 16.3523C74.2088 16.0852 74.7543 15.8864 75.3509 15.7557C75.9531 15.6193 76.5582 15.5114 77.1662 15.4318C77.9616 15.3295 78.6065 15.2528 79.1009 15.2017C79.6009 15.1449 79.9645 15.0511 80.1918 14.9205C80.4247 14.7898 80.5412 14.5625 80.5412 14.2386V14.1705C80.5412 13.3295 80.3111 12.6761 79.8509 12.2102C79.3963 11.7443 78.706 11.5114 77.7798 11.5114C76.8196 11.5114 76.0668 11.7216 75.5213 12.142C74.9759 12.5625 74.5923 13.0114 74.3707 13.4886L72.4616 12.8068C72.8026 12.0114 73.2571 11.392 73.8253 10.9489C74.3991 10.5 75.0241 10.1875 75.7003 10.0114C76.3821 9.82955 77.0526 9.73864 77.7116 9.73864C78.1321 9.73864 78.6151 9.78977 79.1605 9.89204C79.7116 9.98864 80.2429 10.1903 80.7543 10.4972C81.2713 10.804 81.7003 11.267 82.0412 11.8864C82.3821 12.5057 82.5526 13.3352 82.5526 14.375V23H80.5412V21.2273H80.4389C80.3026 21.5114 80.0753 21.8153 79.7571 22.1392C79.4389 22.4631 79.0156 22.7386 78.4872 22.9659C77.9588 23.1932 77.3139 23.3068 76.5526 23.3068ZM76.8594 21.5C77.6548 21.5 78.3253 21.3438 78.8707 21.0312C79.4219 20.7188 79.8366 20.3153 80.1151 19.821C80.3991 19.3267 80.5412 18.8068 80.5412 18.2614V16.4205C80.456 16.5227 80.2685 16.6165 79.9787 16.7017C79.6946 16.7812 79.3651 16.8523 78.9901 16.9148C78.6207 16.9716 78.2599 17.0227 77.9077 17.0682C77.5611 17.108 77.2798 17.142 77.0639 17.1705C76.5412 17.2386 76.0526 17.3494 75.598 17.5028C75.1491 17.6506 74.7855 17.875 74.5071 18.1761C74.2344 18.4716 74.098 18.875 74.098 19.3864C74.098 20.0852 74.3565 20.6136 74.8736 20.9716C75.3963 21.3239 76.0582 21.5 76.8594 21.5ZM86.2237 23V9.90909H91.576C92.9851 9.90909 94.1044 10.2273 94.9339 10.8636C95.7635 11.5 96.1783 12.3409 96.1783 13.3864C96.1783 14.1818 95.9425 14.7983 95.4709 15.2358C94.9993 15.6676 94.3942 15.9602 93.6555 16.1136C94.1385 16.1818 94.6072 16.3523 95.0618 16.625C95.522 16.8977 95.9027 17.2727 96.2038 17.75C96.505 18.2216 96.6555 18.8011 96.6555 19.4886C96.6555 20.1591 96.4851 20.7585 96.1442 21.2869C95.8033 21.8153 95.3146 22.233 94.6783 22.5398C94.0419 22.8466 93.2805 23 92.3942 23H86.2237ZM88.1328 21.1591H92.3942C93.0874 21.1591 93.63 20.9943 94.022 20.6648C94.4141 20.3352 94.6101 19.8864 94.6101 19.3182C94.6101 18.642 94.4141 18.1108 94.022 17.7244C93.63 17.3324 93.0874 17.1364 92.3942 17.1364H88.1328V21.1591ZM88.1328 15.3977H91.576C92.1158 15.3977 92.5788 15.3239 92.9652 15.1761C93.3516 15.0227 93.647 14.8068 93.8516 14.5284C94.0618 14.2443 94.1669 13.9091 94.1669 13.5227C94.1669 12.9716 93.9368 12.5398 93.4766 12.2273C93.0163 11.9091 92.3828 11.75 91.576 11.75H88.1328V15.3977ZM99.7003 27.9091V9.90909H101.643V11.9886H101.882C102.03 11.7614 102.234 11.4716 102.496 11.1193C102.763 10.7614 103.143 10.4432 103.638 10.1648C104.138 9.88068 104.814 9.73864 105.666 9.73864C106.768 9.73864 107.74 10.0142 108.581 10.5653C109.422 11.1165 110.078 11.8977 110.55 12.9091C111.021 13.9205 111.257 15.1136 111.257 16.4886C111.257 17.875 111.021 19.0767 110.55 20.0938C110.078 21.1051 109.425 21.8892 108.589 22.446C107.754 22.9972 106.791 23.2727 105.7 23.2727C104.859 23.2727 104.186 23.1335 103.68 22.8551C103.175 22.571 102.786 22.25 102.513 21.892C102.24 21.5284 102.03 21.2273 101.882 20.9886H101.712V27.9091H99.7003ZM101.678 16.4545C101.678 17.4432 101.822 18.3153 102.112 19.071C102.402 19.821 102.825 20.4091 103.382 20.8352C103.939 21.2557 104.621 21.4659 105.428 21.4659C106.268 21.4659 106.97 21.2443 107.533 20.8011C108.101 20.3523 108.527 19.75 108.811 18.9943C109.101 18.233 109.246 17.3864 109.246 16.4545C109.246 15.5341 109.104 14.7045 108.82 13.9659C108.541 13.2216 108.118 12.6335 107.55 12.2017C106.987 11.7642 106.28 11.5455 105.428 11.5455C104.609 11.5455 103.922 11.7528 103.365 12.1676C102.808 12.5767 102.388 13.1506 102.104 13.8892C101.82 14.6222 101.678 15.4773 101.678 16.4545ZM118.178 23.3068C117.348 23.3068 116.595 23.1506 115.919 22.8381C115.243 22.5199 114.706 22.0625 114.308 21.4659C113.911 20.8636 113.712 20.1364 113.712 19.2841C113.712 18.5341 113.859 17.9261 114.155 17.4602C114.45 16.9886 114.845 16.6193 115.339 16.3523C115.834 16.0852 116.379 15.8864 116.976 15.7557C117.578 15.6193 118.183 15.5114 118.791 15.4318C119.587 15.3295 120.232 15.2528 120.726 15.2017C121.226 15.1449 121.589 15.0511 121.817 14.9205C122.05 14.7898 122.166 14.5625 122.166 14.2386V14.1705C122.166 13.3295 121.936 12.6761 121.476 12.2102C121.021 11.7443 120.331 11.5114 119.405 11.5114C118.445 11.5114 117.692 11.7216 117.146 12.142C116.601 12.5625 116.217 13.0114 115.996 13.4886L114.087 12.8068C114.428 12.0114 114.882 11.392 115.45 10.9489C116.024 10.5 116.649 10.1875 117.325 10.0114C118.007 9.82955 118.678 9.73864 119.337 9.73864C119.757 9.73864 120.24 9.78977 120.786 9.89204C121.337 9.98864 121.868 10.1903 122.379 10.4972C122.896 10.804 123.325 11.267 123.666 11.8864C124.007 12.5057 124.178 13.3352 124.178 14.375V23H122.166V21.2273H122.064C121.928 21.5114 121.7 21.8153 121.382 22.1392C121.064 22.4631 120.641 22.7386 120.112 22.9659C119.584 23.1932 118.939 23.3068 118.178 23.3068ZM118.484 21.5C119.28 21.5 119.95 21.3438 120.496 21.0312C121.047 20.7188 121.462 20.3153 121.74 19.821C122.024 19.3267 122.166 18.8068 122.166 18.2614V16.4205C122.081 16.5227 121.893 16.6165 121.604 16.7017C121.32 16.7812 120.99 16.8523 120.615 16.9148C120.246 16.9716 119.885 17.0227 119.533 17.0682C119.186 17.108 118.905 17.142 118.689 17.1705C118.166 17.2386 117.678 17.3494 117.223 17.5028C116.774 17.6506 116.411 17.875 116.132 18.1761C115.859 18.4716 115.723 18.875 115.723 19.3864C115.723 20.0852 115.982 20.6136 116.499 20.9716C117.021 21.3239 117.683 21.5 118.484 21.5ZM138.144 9.90909V21.125H139.985V27.2273H137.974V23H127.849V9.90909H129.86V21.125H136.133V9.90909H138.144ZM145.094 20.0341L151.401 9.90909H153.719V23H151.708V12.875L145.435 23H143.083V9.90909H145.094V20.0341ZM165.278 23V11.75H161.801C161.017 11.75 160.401 11.9318 159.952 12.2955C159.503 12.6591 159.278 13.1591 159.278 13.7955C159.278 14.4205 159.48 14.9119 159.884 15.2699C160.293 15.6278 160.852 15.8068 161.562 15.8068H165.79V17.6818H161.562C160.676 17.6818 159.912 17.5256 159.27 17.2131C158.628 16.9006 158.134 16.4545 157.787 15.875C157.44 15.2898 157.267 14.5966 157.267 13.7955C157.267 12.9886 157.449 12.2955 157.812 11.7159C158.176 11.1364 158.696 10.6903 159.372 10.3778C160.054 10.0653 160.864 9.90909 161.801 9.90909H167.188V23H165.278ZM156.551 23L160.267 16.4886H162.449L158.733 23H156.551ZM177.63 27.9091V9.90909H179.573V11.9886H179.812C179.96 11.7614 180.164 11.4716 180.425 11.1193C180.692 10.7614 181.073 10.4432 181.567 10.1648C182.067 9.88068 182.744 9.73864 183.596 9.73864C184.698 9.73864 185.67 10.0142 186.511 10.5653C187.352 11.1165 188.008 11.8977 188.479 12.9091C188.951 13.9205 189.187 15.1136 189.187 16.4886C189.187 17.875 188.951 19.0767 188.479 20.0938C188.008 21.1051 187.354 21.8892 186.519 22.446C185.684 22.9972 184.721 23.2727 183.63 23.2727C182.789 23.2727 182.116 23.1335 181.61 22.8551C181.104 22.571 180.715 22.25 180.442 21.892C180.17 21.5284 179.96 21.2273 179.812 20.9886H179.641V27.9091H177.63ZM179.607 16.4545C179.607 17.4432 179.752 18.3153 180.042 19.071C180.332 19.821 180.755 20.4091 181.312 20.8352C181.869 21.2557 182.55 21.4659 183.357 21.4659C184.198 21.4659 184.9 21.2443 185.462 20.8011C186.031 20.3523 186.457 19.75 186.741 18.9943C187.031 18.233 187.175 17.3864 187.175 16.4545C187.175 15.5341 187.033 14.7045 186.749 13.9659C186.471 13.2216 186.048 12.6335 185.479 12.2017C184.917 11.7642 184.21 11.5455 183.357 11.5455C182.539 11.5455 181.852 11.7528 181.295 12.1676C180.738 12.5767 180.317 13.1506 180.033 13.8892C179.749 14.6222 179.607 15.4773 179.607 16.4545ZM196.107 23.3068C195.278 23.3068 194.525 23.1506 193.849 22.8381C193.173 22.5199 192.636 22.0625 192.238 21.4659C191.84 20.8636 191.641 20.1364 191.641 19.2841C191.641 18.5341 191.789 17.9261 192.085 17.4602C192.38 16.9886 192.775 16.6193 193.269 16.3523C193.763 16.0852 194.309 15.8864 194.906 15.7557C195.508 15.6193 196.113 15.5114 196.721 15.4318C197.516 15.3295 198.161 15.2528 198.656 15.2017C199.156 15.1449 199.519 15.0511 199.746 14.9205C199.979 14.7898 200.096 14.5625 200.096 14.2386V14.1705C200.096 13.3295 199.866 12.6761 199.406 12.2102C198.951 11.7443 198.261 11.5114 197.335 11.5114C196.374 11.5114 195.621 11.7216 195.076 12.142C194.531 12.5625 194.147 13.0114 193.925 13.4886L192.016 12.8068C192.357 12.0114 192.812 11.392 193.38 10.9489C193.954 10.5 194.579 10.1875 195.255 10.0114C195.937 9.82955 196.607 9.73864 197.266 9.73864C197.687 9.73864 198.17 9.78977 198.715 9.89204C199.266 9.98864 199.798 10.1903 200.309 10.4972C200.826 10.804 201.255 11.267 201.596 11.8864C201.937 12.5057 202.107 13.3352 202.107 14.375V23H200.096V21.2273H199.994C199.857 21.5114 199.63 21.8153 199.312 22.1392C198.994 22.4631 198.57 22.7386 198.042 22.9659C197.513 23.1932 196.869 23.3068 196.107 23.3068ZM196.414 21.5C197.21 21.5 197.88 21.3438 198.425 21.0312C198.977 20.7188 199.391 20.3153 199.67 19.821C199.954 19.3267 200.096 18.8068 200.096 18.2614V16.4205C200.011 16.5227 199.823 16.6165 199.533 16.7017C199.249 16.7812 198.92 16.8523 198.545 16.9148C198.175 16.9716 197.815 17.0227 197.462 17.0682C197.116 17.108 196.835 17.142 196.619 17.1705C196.096 17.2386 195.607 17.3494 195.153 17.5028C194.704 17.6506 194.34 17.875 194.062 18.1761C193.789 18.4716 193.653 18.875 193.653 19.3864C193.653 20.0852 193.911 20.6136 194.428 20.9716C194.951 21.3239 195.613 21.5 196.414 21.5ZM204.96 19.6591H207.108C207.153 20.25 207.42 20.6989 207.909 21.0057C208.403 21.3125 209.045 21.4659 209.835 21.4659C210.642 21.4659 211.332 21.3011 211.906 20.9716C212.48 20.6364 212.767 20.0966 212.767 19.3523C212.767 18.9148 212.659 18.5341 212.443 18.2102C212.227 17.8807 211.923 17.625 211.531 17.4432C211.139 17.2614 210.676 17.1705 210.142 17.1705H207.892V15.3636H210.142C210.943 15.3636 211.534 15.1818 211.915 14.8182C212.301 14.4545 212.494 14 212.494 13.4545C212.494 12.8693 212.287 12.4006 211.872 12.0483C211.457 11.6903 210.869 11.5114 210.108 11.5114C209.341 11.5114 208.702 11.6847 208.19 12.0312C207.679 12.3722 207.409 12.8125 207.381 13.3523H205.267C205.29 12.6477 205.506 12.0256 205.915 11.4858C206.324 10.9403 206.881 10.5142 207.585 10.2074C208.29 9.89489 209.097 9.73864 210.006 9.73864C210.926 9.73864 211.724 9.90057 212.401 10.2244C213.082 10.5426 213.608 10.9773 213.977 11.5284C214.352 12.0739 214.54 12.6932 214.54 13.3864C214.54 14.125 214.332 14.7216 213.918 15.1761C213.503 15.6307 212.983 15.9545 212.358 16.1477V16.2841C212.852 16.3182 213.281 16.4773 213.645 16.7614C214.014 17.0398 214.301 17.4062 214.506 17.8608C214.71 18.3097 214.812 18.8068 214.812 19.3523C214.812 20.1477 214.599 20.8409 214.173 21.4318C213.747 22.017 213.162 22.4716 212.418 22.7955C211.673 23.1136 210.824 23.2727 209.869 23.2727C208.943 23.2727 208.114 23.1222 207.381 22.821C206.648 22.5142 206.065 22.0909 205.634 21.5511C205.207 21.0057 204.983 20.375 204.96 19.6591ZM227.354 5L228.376 6.22727C227.979 6.61364 227.518 6.88352 226.996 7.03693C226.473 7.19034 225.882 7.28409 225.223 7.31818C224.564 7.35227 223.831 7.38636 223.024 7.42045C222.115 7.45455 221.362 7.67614 220.766 8.08523C220.169 8.49432 219.709 9.08523 219.385 9.85795C219.061 10.6307 218.854 11.5795 218.763 12.7045H218.933C219.376 11.8864 219.99 11.2841 220.774 10.8977C221.558 10.5114 222.399 10.3182 223.297 10.3182C224.32 10.3182 225.24 10.5568 226.058 11.0341C226.876 11.5114 227.524 12.2188 228.001 13.1562C228.479 14.0938 228.717 15.25 228.717 16.625C228.717 17.9943 228.473 19.1761 227.984 20.1705C227.501 21.1648 226.822 21.9318 225.947 22.4716C225.078 23.0057 224.058 23.2727 222.888 23.2727C221.717 23.2727 220.692 22.9972 219.811 22.446C218.93 21.8892 218.246 21.0653 217.757 19.9744C217.268 18.8778 217.024 17.5227 217.024 15.9091V14.5114C217.024 11.5966 217.518 9.38636 218.507 7.88068C219.501 6.375 220.996 5.59659 222.99 5.54545C223.695 5.52273 224.322 5.51705 224.874 5.52841C225.425 5.53977 225.905 5.5142 226.314 5.4517C226.723 5.3892 227.07 5.23864 227.354 5ZM222.888 21.4659C223.678 21.4659 224.357 21.267 224.925 20.8693C225.499 20.4716 225.939 19.9119 226.246 19.1903C226.553 18.4631 226.706 17.608 226.706 16.625C226.706 15.6705 226.55 14.858 226.237 14.1875C225.93 13.517 225.49 13.0057 224.916 12.6534C224.342 12.3011 223.655 12.125 222.854 12.125C222.268 12.125 221.743 12.2244 221.277 12.4233C220.811 12.6222 220.413 12.9148 220.084 13.3011C219.754 13.6875 219.499 14.1591 219.317 14.7159C219.141 15.2727 219.047 15.9091 219.036 16.625C219.036 18.0909 219.379 19.2642 220.067 20.1449C220.754 21.0256 221.695 21.4659 222.888 21.4659ZM233.805 20.0341L240.112 9.90909H242.43V23H240.419V12.875L234.146 23H231.794V9.90909H233.805V20.0341ZM244.333 11.7841V9.90909H254.969V11.7841H250.674V23H248.663V11.7841H244.333ZM259.642 14.6477H263.392C264.926 14.6477 266.099 15.0369 266.912 15.8153C267.724 16.5937 268.131 17.5795 268.131 18.7727C268.131 19.5568 267.949 20.2699 267.585 20.9119C267.222 21.5483 266.688 22.0568 265.983 22.4375C265.278 22.8125 264.415 23 263.392 23H257.903V9.90909H259.915V21.125H263.392C264.188 21.125 264.841 20.9148 265.352 20.4943C265.864 20.0739 266.119 19.5341 266.119 18.875C266.119 18.1818 265.864 17.6165 265.352 17.179C264.841 16.7415 264.188 16.5227 263.392 16.5227H259.642V14.6477ZM270.21 23V9.90909H272.222V23H270.21ZM277.403 9.90909L280.54 15.2614L283.676 9.90909H285.994L281.767 16.4545L285.994 23H283.676L280.54 17.9205L277.403 23H275.085L279.244 16.4545L275.085 9.90909H277.403ZM300.933 23.2727C299.705 23.2727 298.648 22.983 297.762 22.4034C296.876 21.8239 296.194 21.0256 295.717 20.0085C295.239 18.9915 295.001 17.8295 295.001 16.5227C295.001 15.1932 295.245 14.0199 295.734 13.0028C296.228 11.9801 296.915 11.1818 297.796 10.608C298.683 10.0284 299.717 9.73864 300.898 9.73864C301.819 9.73864 302.648 9.90909 303.387 10.25C304.126 10.5909 304.731 11.0682 305.202 11.6818C305.674 12.2955 305.967 13.0114 306.08 13.8295H304.069C303.915 13.233 303.575 12.7045 303.046 12.2443C302.523 11.7784 301.819 11.5455 300.933 11.5455C300.148 11.5455 299.461 11.75 298.87 12.1591C298.285 12.5625 297.827 13.1335 297.498 13.8722C297.174 14.6051 297.012 15.4659 297.012 16.4545C297.012 17.4659 297.171 18.3466 297.489 19.0966C297.813 19.8466 298.268 20.429 298.853 20.8438C299.444 21.2585 300.137 21.4659 300.933 21.4659C301.455 21.4659 301.93 21.375 302.356 21.1932C302.782 21.0114 303.143 20.75 303.438 20.4091C303.734 20.0682 303.944 19.6591 304.069 19.1818H306.08C305.967 19.9545 305.685 20.6506 305.237 21.2699C304.793 21.8835 304.205 22.3722 303.472 22.7358C302.745 23.0938 301.898 23.2727 300.933 23.2727ZM314.509 23.2727C313.248 23.2727 312.16 22.9943 311.245 22.4375C310.336 21.875 309.634 21.0909 309.14 20.0852C308.651 19.0739 308.407 17.8977 308.407 16.5568C308.407 15.2159 308.651 14.0341 309.14 13.0114C309.634 11.983 310.322 11.1818 311.202 10.608C312.089 10.0284 313.123 9.73864 314.305 9.73864C314.987 9.73864 315.66 9.85227 316.325 10.0795C316.989 10.3068 317.594 10.6761 318.14 11.1875C318.685 11.6932 319.12 12.3636 319.444 13.1989C319.768 14.0341 319.93 15.0625 319.93 16.2841V17.1364H309.839V15.3977H317.884C317.884 14.6591 317.737 14 317.441 13.4205C317.151 12.8409 316.737 12.3835 316.197 12.0483C315.663 11.7131 315.032 11.5455 314.305 11.5455C313.504 11.5455 312.81 11.7443 312.225 12.142C311.646 12.5341 311.2 13.0455 310.887 13.6761C310.575 14.3068 310.418 14.983 310.418 15.7045V16.8636C310.418 17.8523 310.589 18.6903 310.93 19.3778C311.276 20.0597 311.756 20.5795 312.37 20.9375C312.984 21.2898 313.697 21.4659 314.509 21.4659C315.038 21.4659 315.515 21.392 315.941 21.2443C316.373 21.0909 316.745 20.8636 317.058 20.5625C317.37 20.2557 317.612 19.875 317.782 19.4205L319.725 19.9659C319.521 20.625 319.177 21.2045 318.694 21.7045C318.211 22.1989 317.614 22.5852 316.904 22.8636C316.194 23.1364 315.396 23.2727 314.509 23.2727ZM322.989 27.9091V9.90909H324.933V11.9886H325.171C325.319 11.7614 325.523 11.4716 325.785 11.1193C326.052 10.7614 326.433 10.4432 326.927 10.1648C327.427 9.88068 328.103 9.73864 328.955 9.73864C330.058 9.73864 331.029 10.0142 331.87 10.5653C332.711 11.1165 333.367 11.8977 333.839 12.9091C334.31 13.9205 334.546 15.1136 334.546 16.4886C334.546 17.875 334.31 19.0767 333.839 20.0938C333.367 21.1051 332.714 21.8892 331.879 22.446C331.043 22.9972 330.08 23.2727 328.989 23.2727C328.148 23.2727 327.475 23.1335 326.969 22.8551C326.464 22.571 326.075 22.25 325.802 21.892C325.529 21.5284 325.319 21.2273 325.171 20.9886H325.001V27.9091H322.989ZM324.967 16.4545C324.967 17.4432 325.112 18.3153 325.401 19.071C325.691 19.821 326.114 20.4091 326.671 20.8352C327.228 21.2557 327.91 21.4659 328.717 21.4659C329.558 21.4659 330.259 21.2443 330.822 20.8011C331.39 20.3523 331.816 19.75 332.1 18.9943C332.39 18.233 332.535 17.3864 332.535 16.4545C332.535 15.5341 332.393 14.7045 332.109 13.9659C331.83 13.2216 331.407 12.6335 330.839 12.2017C330.276 11.7642 329.569 11.5455 328.717 11.5455C327.898 11.5455 327.211 11.7528 326.654 12.1676C326.097 12.5767 325.677 13.1506 325.393 13.8892C325.109 14.6222 324.967 15.4773 324.967 16.4545ZM336.217 26.75V21.125H337.308C337.575 20.8466 337.805 20.5455 337.998 20.2216C338.191 19.8977 338.359 19.5142 338.501 19.071C338.648 18.6222 338.773 18.0767 338.876 17.4347C338.978 16.7869 339.069 16.0057 339.148 15.0909L339.592 9.90909H347.91V21.125H349.921V26.75H347.91V23H338.228V26.75H336.217ZM339.592 21.125H345.898V11.7841H341.467L341.126 15.0909C340.984 16.4602 340.808 17.6562 340.597 18.679C340.387 19.7017 340.052 20.517 339.592 21.125ZM358.08 23.2727C356.818 23.2727 355.73 22.9943 354.815 22.4375C353.906 21.875 353.205 21.0909 352.71 20.0852C352.222 19.0739 351.977 17.8977 351.977 16.5568C351.977 15.2159 352.222 14.0341 352.71 13.0114C353.205 11.983 353.892 11.1818 354.773 10.608C355.659 10.0284 356.693 9.73864 357.875 9.73864C358.557 9.73864 359.23 9.85227 359.895 10.0795C360.56 10.3068 361.165 10.6761 361.71 11.1875C362.256 11.6932 362.69 12.3636 363.014 13.1989C363.338 14.0341 363.5 15.0625 363.5 16.2841V17.1364H353.409V15.3977H361.455C361.455 14.6591 361.307 14 361.011 13.4205C360.722 12.8409 360.307 12.3835 359.767 12.0483C359.233 11.7131 358.602 11.5455 357.875 11.5455C357.074 11.5455 356.381 11.7443 355.795 12.142C355.216 12.5341 354.77 13.0455 354.457 13.6761C354.145 14.3068 353.989 14.983 353.989 15.7045V16.8636C353.989 17.8523 354.159 18.6903 354.5 19.3778C354.847 20.0597 355.327 20.5795 355.94 20.9375C356.554 21.2898 357.267 21.4659 358.08 21.4659C358.608 21.4659 359.085 21.392 359.511 21.2443C359.943 21.0909 360.315 20.8636 360.628 20.5625C360.94 20.2557 361.182 19.875 361.352 19.4205L363.295 19.9659C363.091 20.625 362.747 21.2045 362.264 21.7045C361.781 22.1989 361.185 22.5852 360.474 22.8636C359.764 23.1364 358.966 23.2727 358.08 23.2727ZM376.855 9.90909V21.125H378.696V27.2273H376.685V23H366.56V9.90909H368.571V21.125H374.844V9.90909H376.855Z" fill="white"/>
</svg>
