<svg width="422" height="40" viewBox="0 0 422 40" fill="none" xmlns="http://www.w3.org/2000/svg">
<rect width="422" height="40" fill="#1D1C22"/>
<path d="M45.8409 32.9091V14.9091H47.7841V16.9886H48.0227C48.1705 16.7614 48.375 16.4716 48.6364 16.1193C48.9034 15.7614 49.2841 15.4432 49.7784 15.1648C50.2784 14.8807 50.9545 14.7386 51.8068 14.7386C52.9091 14.7386 53.8807 15.0142 54.7216 15.5653C55.5625 16.1165 56.2188 16.8977 56.6903 17.9091C57.1619 18.9205 57.3977 20.1136 57.3977 21.4886C57.3977 22.875 57.1619 24.0767 56.6903 25.0938C56.2188 26.1051 55.5653 26.8892 54.7301 27.446C53.8949 27.9972 52.9318 28.2727 51.8409 28.2727C51 28.2727 50.3267 28.1335 49.821 27.8551C49.3153 27.571 48.9261 27.25 48.6534 26.892C48.3807 26.5284 48.1705 26.2273 48.0227 25.9886H47.8523V32.9091H45.8409ZM47.8182 21.4545C47.8182 22.4432 47.9631 23.3153 48.2528 24.071C48.5426 24.821 48.9659 25.4091 49.5227 25.8352C50.0795 26.2557 50.7614 26.4659 51.5682 26.4659C52.4091 26.4659 53.1108 26.2443 53.6733 25.8011C54.2415 25.3523 54.6676 24.75 54.9517 23.9943C55.2415 23.233 55.3864 22.3864 55.3864 21.4545C55.3864 20.5341 55.2443 19.7045 54.9602 18.9659C54.6818 18.2216 54.2585 17.6335 53.6903 17.2017C53.1278 16.7642 52.4205 16.5455 51.5682 16.5455C50.75 16.5455 50.0625 16.7528 49.5057 17.1676C48.9489 17.5767 48.5284 18.1506 48.2443 18.8892C47.9602 19.6222 47.8182 20.4773 47.8182 21.4545ZM65.9545 28.2727C64.6932 28.2727 63.6051 27.9943 62.6903 27.4375C61.7812 26.875 61.0795 26.0909 60.5852 25.0852C60.0966 24.0739 59.8523 22.8977 59.8523 21.5568C59.8523 20.2159 60.0966 19.0341 60.5852 18.0114C61.0795 16.983 61.767 16.1818 62.6477 15.608C63.5341 15.0284 64.5682 14.7386 65.75 14.7386C66.4318 14.7386 67.1051 14.8523 67.7699 15.0795C68.4347 15.3068 69.0398 15.6761 69.5852 16.1875C70.1307 16.6932 70.5653 17.3636 70.8892 18.1989C71.2131 19.0341 71.375 20.0625 71.375 21.2841V22.1364H61.2841V20.3977H69.3295C69.3295 19.6591 69.1818 19 68.8864 18.4205C68.5966 17.8409 68.1818 17.3835 67.642 17.0483C67.108 16.7131 66.4773 16.5455 65.75 16.5455C64.9489 16.5455 64.2557 16.7443 63.6705 17.142C63.0909 17.5341 62.6449 18.0455 62.3324 18.6761C62.0199 19.3068 61.8636 19.983 61.8636 20.7045V21.8636C61.8636 22.8523 62.0341 23.6903 62.375 24.3778C62.7216 25.0597 63.2017 25.5795 63.8153 25.9375C64.429 26.2898 65.142 26.4659 65.9545 26.4659C66.483 26.4659 66.9602 26.392 67.3864 26.2443C67.8182 26.0909 68.1903 25.8636 68.5028 25.5625C68.8153 25.2557 69.0568 24.875 69.2273 24.4205L71.1705 24.9659C70.9659 25.625 70.6222 26.2045 70.1392 26.7045C69.6563 27.1989 69.0597 27.5852 68.3494 27.8636C67.6392 28.1364 66.8409 28.2727 65.9545 28.2727ZM79.7528 28.2727C78.5256 28.2727 77.4688 27.983 76.5824 27.4034C75.696 26.8239 75.0142 26.0256 74.5369 25.0085C74.0597 23.9915 73.821 22.8295 73.821 21.5227C73.821 20.1932 74.0653 19.0199 74.554 18.0028C75.0483 16.9801 75.7358 16.1818 76.6165 15.608C77.5028 15.0284 78.5369 14.7386 79.7188 14.7386C80.6392 14.7386 81.4688 14.9091 82.2074 15.25C82.946 15.5909 83.5511 16.0682 84.0227 16.6818C84.4943 17.2955 84.7869 18.0114 84.9006 18.8295H82.8892C82.7358 18.233 82.3949 17.7045 81.8665 17.2443C81.3438 16.7784 80.6392 16.5455 79.7528 16.5455C78.9688 16.5455 78.2813 16.75 77.6903 17.1591C77.1051 17.5625 76.6477 18.1335 76.3182 18.8722C75.9943 19.6051 75.8324 20.4659 75.8324 21.4545C75.8324 22.4659 75.9915 23.3466 76.3097 24.0966C76.6335 24.8466 77.0881 25.429 77.6733 25.8438C78.2642 26.2585 78.9574 26.4659 79.7528 26.4659C80.2756 26.4659 80.75 26.375 81.1761 26.1932C81.6023 26.0114 81.9631 25.75 82.2585 25.4091C82.554 25.0682 82.7642 24.6591 82.8892 24.1818H84.9006C84.7869 24.9545 84.5057 25.6506 84.0568 26.2699C83.6136 26.8835 83.0256 27.3722 82.2926 27.7358C81.5653 28.0938 80.7188 28.2727 79.7528 28.2727ZM86.8097 16.7841V14.9091H97.446V16.7841H93.1506V28H91.1392V16.7841H86.8097ZM103.553 28.3068C102.723 28.3068 101.97 28.1506 101.294 27.8381C100.618 27.5199 100.081 27.0625 99.6832 26.4659C99.2855 25.8636 99.0866 25.1364 99.0866 24.2841C99.0866 23.5341 99.2344 22.9261 99.5298 22.4602C99.8253 21.9886 100.22 21.6193 100.714 21.3523C101.209 21.0852 101.754 20.8864 102.351 20.7557C102.953 20.6193 103.558 20.5114 104.166 20.4318C104.962 20.3295 105.607 20.2528 106.101 20.2017C106.601 20.1449 106.964 20.0511 107.192 19.9205C107.425 19.7898 107.541 19.5625 107.541 19.2386V19.1705C107.541 18.3295 107.311 17.6761 106.851 17.2102C106.396 16.7443 105.706 16.5114 104.78 16.5114C103.82 16.5114 103.067 16.7216 102.521 17.142C101.976 17.5625 101.592 18.0114 101.371 18.4886L99.4616 17.8068C99.8026 17.0114 100.257 16.392 100.825 15.9489C101.399 15.5 102.024 15.1875 102.7 15.0114C103.382 14.8295 104.053 14.7386 104.712 14.7386C105.132 14.7386 105.615 14.7898 106.161 14.892C106.712 14.9886 107.243 15.1903 107.754 15.4972C108.271 15.804 108.7 16.267 109.041 16.8864C109.382 17.5057 109.553 18.3352 109.553 19.375V28H107.541V26.2273H107.439C107.303 26.5114 107.075 26.8153 106.757 27.1392C106.439 27.4631 106.016 27.7386 105.487 27.9659C104.959 28.1932 104.314 28.3068 103.553 28.3068ZM103.859 26.5C104.655 26.5 105.325 26.3438 105.871 26.0312C106.422 25.7188 106.837 25.3153 107.115 24.821C107.399 24.3267 107.541 23.8068 107.541 23.2614V21.4205C107.456 21.5227 107.268 21.6165 106.979 21.7017C106.695 21.7812 106.365 21.8523 105.99 21.9148C105.621 21.9716 105.26 22.0227 104.908 22.0682C104.561 22.108 104.28 22.142 104.064 22.1705C103.541 22.2386 103.053 22.3494 102.598 22.5028C102.149 22.6506 101.786 22.875 101.507 23.1761C101.234 23.4716 101.098 23.875 101.098 24.3864C101.098 25.0852 101.357 25.6136 101.874 25.9716C102.396 26.3239 103.058 26.5 103.859 26.5ZM113.224 28V14.9091H118.576C119.985 14.9091 121.104 15.2273 121.934 15.8636C122.763 16.5 123.178 17.3409 123.178 18.3864C123.178 19.1818 122.942 19.7983 122.471 20.2358C121.999 20.6676 121.394 20.9602 120.656 21.1136C121.138 21.1818 121.607 21.3523 122.062 21.625C122.522 21.8977 122.903 22.2727 123.204 22.75C123.505 23.2216 123.656 23.8011 123.656 24.4886C123.656 25.1591 123.485 25.7585 123.144 26.2869C122.803 26.8153 122.315 27.233 121.678 27.5398C121.042 27.8466 120.281 28 119.394 28H113.224ZM115.133 26.1591H119.394C120.087 26.1591 120.63 25.9943 121.022 25.6648C121.414 25.3352 121.61 24.8864 121.61 24.3182C121.61 23.642 121.414 23.1108 121.022 22.7244C120.63 22.3324 120.087 22.1364 119.394 22.1364H115.133V26.1591ZM115.133 20.3977H118.576C119.116 20.3977 119.579 20.3239 119.965 20.1761C120.352 20.0227 120.647 19.8068 120.852 19.5284C121.062 19.2443 121.167 18.9091 121.167 18.5227C121.167 17.9716 120.937 17.5398 120.477 17.2273C120.016 16.9091 119.383 16.75 118.576 16.75H115.133V20.3977ZM126.7 32.9091V14.9091H128.643V16.9886H128.882C129.03 16.7614 129.234 16.4716 129.496 16.1193C129.763 15.7614 130.143 15.4432 130.638 15.1648C131.138 14.8807 131.814 14.7386 132.666 14.7386C133.768 14.7386 134.74 15.0142 135.581 15.5653C136.422 16.1165 137.078 16.8977 137.55 17.9091C138.021 18.9205 138.257 20.1136 138.257 21.4886C138.257 22.875 138.021 24.0767 137.55 25.0938C137.078 26.1051 136.425 26.8892 135.589 27.446C134.754 27.9972 133.791 28.2727 132.7 28.2727C131.859 28.2727 131.186 28.1335 130.68 27.8551C130.175 27.571 129.786 27.25 129.513 26.892C129.24 26.5284 129.03 26.2273 128.882 25.9886H128.712V32.9091H126.7ZM128.678 21.4545C128.678 22.4432 128.822 23.3153 129.112 24.071C129.402 24.821 129.825 25.4091 130.382 25.8352C130.939 26.2557 131.621 26.4659 132.428 26.4659C133.268 26.4659 133.97 26.2443 134.533 25.8011C135.101 25.3523 135.527 24.75 135.811 23.9943C136.101 23.233 136.246 22.3864 136.246 21.4545C136.246 20.5341 136.104 19.7045 135.82 18.9659C135.541 18.2216 135.118 17.6335 134.55 17.2017C133.987 16.7642 133.28 16.5455 132.428 16.5455C131.609 16.5455 130.922 16.7528 130.365 17.1676C129.808 17.5767 129.388 18.1506 129.104 18.8892C128.82 19.6222 128.678 20.4773 128.678 21.4545ZM145.178 28.3068C144.348 28.3068 143.595 28.1506 142.919 27.8381C142.243 27.5199 141.706 27.0625 141.308 26.4659C140.911 25.8636 140.712 25.1364 140.712 24.2841C140.712 23.5341 140.859 22.9261 141.155 22.4602C141.45 21.9886 141.845 21.6193 142.339 21.3523C142.834 21.0852 143.379 20.8864 143.976 20.7557C144.578 20.6193 145.183 20.5114 145.791 20.4318C146.587 20.3295 147.232 20.2528 147.726 20.2017C148.226 20.1449 148.589 20.0511 148.817 19.9205C149.05 19.7898 149.166 19.5625 149.166 19.2386V19.1705C149.166 18.3295 148.936 17.6761 148.476 17.2102C148.021 16.7443 147.331 16.5114 146.405 16.5114C145.445 16.5114 144.692 16.7216 144.146 17.142C143.601 17.5625 143.217 18.0114 142.996 18.4886L141.087 17.8068C141.428 17.0114 141.882 16.392 142.45 15.9489C143.024 15.5 143.649 15.1875 144.325 15.0114C145.007 14.8295 145.678 14.7386 146.337 14.7386C146.757 14.7386 147.24 14.7898 147.786 14.892C148.337 14.9886 148.868 15.1903 149.379 15.4972C149.896 15.804 150.325 16.267 150.666 16.8864C151.007 17.5057 151.178 18.3352 151.178 19.375V28H149.166V26.2273H149.064C148.928 26.5114 148.7 26.8153 148.382 27.1392C148.064 27.4631 147.641 27.7386 147.112 27.9659C146.584 28.1932 145.939 28.3068 145.178 28.3068ZM145.484 26.5C146.28 26.5 146.95 26.3438 147.496 26.0312C148.047 25.7188 148.462 25.3153 148.74 24.821C149.024 24.3267 149.166 23.8068 149.166 23.2614V21.4205C149.081 21.5227 148.893 21.6165 148.604 21.7017C148.32 21.7812 147.99 21.8523 147.615 21.9148C147.246 21.9716 146.885 22.0227 146.533 22.0682C146.186 22.108 145.905 22.142 145.689 22.1705C145.166 22.2386 144.678 22.3494 144.223 22.5028C143.774 22.6506 143.411 22.875 143.132 23.1761C142.859 23.4716 142.723 23.875 142.723 24.3864C142.723 25.0852 142.982 25.6136 143.499 25.9716C144.021 26.3239 144.683 26.5 145.484 26.5ZM165.144 14.9091V26.125H166.985V32.2273H164.974V28H154.849V14.9091H156.86V26.125H163.133V14.9091H165.144ZM172.094 25.0341L178.401 14.9091H180.719V28H178.708V17.875L172.435 28H170.083V14.9091H172.094V25.0341ZM192.278 28V16.75H188.801C188.017 16.75 187.401 16.9318 186.952 17.2955C186.503 17.6591 186.278 18.1591 186.278 18.7955C186.278 19.4205 186.48 19.9119 186.884 20.2699C187.293 20.6278 187.852 20.8068 188.562 20.8068H192.79V22.6818H188.562C187.676 22.6818 186.912 22.5256 186.27 22.2131C185.628 21.9006 185.134 21.4545 184.787 20.875C184.44 20.2898 184.267 19.5966 184.267 18.7955C184.267 17.9886 184.449 17.2955 184.812 16.7159C185.176 16.1364 185.696 15.6903 186.372 15.3778C187.054 15.0653 187.864 14.9091 188.801 14.9091H194.188V28H192.278ZM183.551 28L187.267 21.4886H189.449L185.733 28H183.551ZM204.63 32.9091V14.9091H206.573V16.9886H206.812C206.96 16.7614 207.164 16.4716 207.425 16.1193C207.692 15.7614 208.073 15.4432 208.567 15.1648C209.067 14.8807 209.744 14.7386 210.596 14.7386C211.698 14.7386 212.67 15.0142 213.511 15.5653C214.352 16.1165 215.008 16.8977 215.479 17.9091C215.951 18.9205 216.187 20.1136 216.187 21.4886C216.187 22.875 215.951 24.0767 215.479 25.0938C215.008 26.1051 214.354 26.8892 213.519 27.446C212.684 27.9972 211.721 28.2727 210.63 28.2727C209.789 28.2727 209.116 28.1335 208.61 27.8551C208.104 27.571 207.715 27.25 207.442 26.892C207.17 26.5284 206.96 26.2273 206.812 25.9886H206.641V32.9091H204.63ZM206.607 21.4545C206.607 22.4432 206.752 23.3153 207.042 24.071C207.332 24.821 207.755 25.4091 208.312 25.8352C208.869 26.2557 209.55 26.4659 210.357 26.4659C211.198 26.4659 211.9 26.2443 212.462 25.8011C213.031 25.3523 213.457 24.75 213.741 23.9943C214.031 23.233 214.175 22.3864 214.175 21.4545C214.175 20.5341 214.033 19.7045 213.749 18.9659C213.471 18.2216 213.048 17.6335 212.479 17.2017C211.917 16.7642 211.21 16.5455 210.357 16.5455C209.539 16.5455 208.852 16.7528 208.295 17.1676C207.738 17.5767 207.317 18.1506 207.033 18.8892C206.749 19.6222 206.607 20.4773 206.607 21.4545ZM223.107 28.3068C222.278 28.3068 221.525 28.1506 220.849 27.8381C220.173 27.5199 219.636 27.0625 219.238 26.4659C218.84 25.8636 218.641 25.1364 218.641 24.2841C218.641 23.5341 218.789 22.9261 219.085 22.4602C219.38 21.9886 219.775 21.6193 220.269 21.3523C220.763 21.0852 221.309 20.8864 221.906 20.7557C222.508 20.6193 223.113 20.5114 223.721 20.4318C224.516 20.3295 225.161 20.2528 225.656 20.2017C226.156 20.1449 226.519 20.0511 226.746 19.9205C226.979 19.7898 227.096 19.5625 227.096 19.2386V19.1705C227.096 18.3295 226.866 17.6761 226.406 17.2102C225.951 16.7443 225.261 16.5114 224.335 16.5114C223.374 16.5114 222.621 16.7216 222.076 17.142C221.531 17.5625 221.147 18.0114 220.925 18.4886L219.016 17.8068C219.357 17.0114 219.812 16.392 220.38 15.9489C220.954 15.5 221.579 15.1875 222.255 15.0114C222.937 14.8295 223.607 14.7386 224.266 14.7386C224.687 14.7386 225.17 14.7898 225.715 14.892C226.266 14.9886 226.798 15.1903 227.309 15.4972C227.826 15.804 228.255 16.267 228.596 16.8864C228.937 17.5057 229.107 18.3352 229.107 19.375V28H227.096V26.2273H226.994C226.857 26.5114 226.63 26.8153 226.312 27.1392C225.994 27.4631 225.57 27.7386 225.042 27.9659C224.513 28.1932 223.869 28.3068 223.107 28.3068ZM223.414 26.5C224.21 26.5 224.88 26.3438 225.425 26.0312C225.977 25.7188 226.391 25.3153 226.67 24.821C226.954 24.3267 227.096 23.8068 227.096 23.2614V21.4205C227.011 21.5227 226.823 21.6165 226.533 21.7017C226.249 21.7812 225.92 21.8523 225.545 21.9148C225.175 21.9716 224.815 22.0227 224.462 22.0682C224.116 22.108 223.835 22.142 223.619 22.1705C223.096 22.2386 222.607 22.3494 222.153 22.5028C221.704 22.6506 221.34 22.875 221.062 23.1761C220.789 23.4716 220.653 23.875 220.653 24.3864C220.653 25.0852 220.911 25.6136 221.428 25.9716C221.951 26.3239 222.613 26.5 223.414 26.5ZM231.96 24.6591H234.108C234.153 25.25 234.42 25.6989 234.909 26.0057C235.403 26.3125 236.045 26.4659 236.835 26.4659C237.642 26.4659 238.332 26.3011 238.906 25.9716C239.48 25.6364 239.767 25.0966 239.767 24.3523C239.767 23.9148 239.659 23.5341 239.443 23.2102C239.227 22.8807 238.923 22.625 238.531 22.4432C238.139 22.2614 237.676 22.1705 237.142 22.1705H234.892V20.3636H237.142C237.943 20.3636 238.534 20.1818 238.915 19.8182C239.301 19.4545 239.494 19 239.494 18.4545C239.494 17.8693 239.287 17.4006 238.872 17.0483C238.457 16.6903 237.869 16.5114 237.108 16.5114C236.341 16.5114 235.702 16.6847 235.19 17.0312C234.679 17.3722 234.409 17.8125 234.381 18.3523H232.267C232.29 17.6477 232.506 17.0256 232.915 16.4858C233.324 15.9403 233.881 15.5142 234.585 15.2074C235.29 14.8949 236.097 14.7386 237.006 14.7386C237.926 14.7386 238.724 14.9006 239.401 15.2244C240.082 15.5426 240.608 15.9773 240.977 16.5284C241.352 17.0739 241.54 17.6932 241.54 18.3864C241.54 19.125 241.332 19.7216 240.918 20.1761C240.503 20.6307 239.983 20.9545 239.358 21.1477V21.2841C239.852 21.3182 240.281 21.4773 240.645 21.7614C241.014 22.0398 241.301 22.4062 241.506 22.8608C241.71 23.3097 241.812 23.8068 241.812 24.3523C241.812 25.1477 241.599 25.8409 241.173 26.4318C240.747 27.017 240.162 27.4716 239.418 27.7955C238.673 28.1136 237.824 28.2727 236.869 28.2727C235.943 28.2727 235.114 28.1222 234.381 27.821C233.648 27.5142 233.065 27.0909 232.634 26.5511C232.207 26.0057 231.983 25.375 231.96 24.6591ZM254.354 10L255.376 11.2273C254.979 11.6136 254.518 11.8835 253.996 12.0369C253.473 12.1903 252.882 12.2841 252.223 12.3182C251.564 12.3523 250.831 12.3864 250.024 12.4205C249.115 12.4545 248.362 12.6761 247.766 13.0852C247.169 13.4943 246.709 14.0852 246.385 14.858C246.061 15.6307 245.854 16.5795 245.763 17.7045H245.933C246.376 16.8864 246.99 16.2841 247.774 15.8977C248.558 15.5114 249.399 15.3182 250.297 15.3182C251.32 15.3182 252.24 15.5568 253.058 16.0341C253.876 16.5114 254.524 17.2188 255.001 18.1562C255.479 19.0938 255.717 20.25 255.717 21.625C255.717 22.9943 255.473 24.1761 254.984 25.1705C254.501 26.1648 253.822 26.9318 252.947 27.4716C252.078 28.0057 251.058 28.2727 249.888 28.2727C248.717 28.2727 247.692 27.9972 246.811 27.446C245.93 26.8892 245.246 26.0653 244.757 24.9744C244.268 23.8778 244.024 22.5227 244.024 20.9091V19.5114C244.024 16.5966 244.518 14.3864 245.507 12.8807C246.501 11.375 247.996 10.5966 249.99 10.5455C250.695 10.5227 251.322 10.517 251.874 10.5284C252.425 10.5398 252.905 10.5142 253.314 10.4517C253.723 10.3892 254.07 10.2386 254.354 10ZM249.888 26.4659C250.678 26.4659 251.357 26.267 251.925 25.8693C252.499 25.4716 252.939 24.9119 253.246 24.1903C253.553 23.4631 253.706 22.608 253.706 21.625C253.706 20.6705 253.55 19.858 253.237 19.1875C252.93 18.517 252.49 18.0057 251.916 17.6534C251.342 17.3011 250.655 17.125 249.854 17.125C249.268 17.125 248.743 17.2244 248.277 17.4233C247.811 17.6222 247.413 17.9148 247.084 18.3011C246.754 18.6875 246.499 19.1591 246.317 19.7159C246.141 20.2727 246.047 20.9091 246.036 21.625C246.036 23.0909 246.379 24.2642 247.067 25.1449C247.754 26.0256 248.695 26.4659 249.888 26.4659ZM260.805 25.0341L267.112 14.9091H269.43V28H267.419V17.875L261.146 28H258.794V14.9091H260.805V25.0341ZM271.333 16.7841V14.9091H281.969V16.7841H277.674V28H275.663V16.7841H271.333ZM286.642 19.6477H290.392C291.926 19.6477 293.099 20.0369 293.912 20.8153C294.724 21.5937 295.131 22.5795 295.131 23.7727C295.131 24.5568 294.949 25.2699 294.585 25.9119C294.222 26.5483 293.688 27.0568 292.983 27.4375C292.278 27.8125 291.415 28 290.392 28H284.903V14.9091H286.915V26.125H290.392C291.188 26.125 291.841 25.9148 292.352 25.4943C292.864 25.0739 293.119 24.5341 293.119 23.875C293.119 23.1818 292.864 22.6165 292.352 22.179C291.841 21.7415 291.188 21.5227 290.392 21.5227H286.642V19.6477ZM297.21 28V14.9091H299.222V28H297.21ZM304.403 14.9091L307.54 20.2614L310.676 14.9091H312.994L308.767 21.4545L312.994 28H310.676L307.54 22.9205L304.403 28H302.085L306.244 21.4545L302.085 14.9091H304.403ZM327.933 28.2727C326.705 28.2727 325.648 27.983 324.762 27.4034C323.876 26.8239 323.194 26.0256 322.717 25.0085C322.239 23.9915 322.001 22.8295 322.001 21.5227C322.001 20.1932 322.245 19.0199 322.734 18.0028C323.228 16.9801 323.915 16.1818 324.796 15.608C325.683 15.0284 326.717 14.7386 327.898 14.7386C328.819 14.7386 329.648 14.9091 330.387 15.25C331.126 15.5909 331.731 16.0682 332.202 16.6818C332.674 17.2955 332.967 18.0114 333.08 18.8295H331.069C330.915 18.233 330.575 17.7045 330.046 17.2443C329.523 16.7784 328.819 16.5455 327.933 16.5455C327.148 16.5455 326.461 16.75 325.87 17.1591C325.285 17.5625 324.827 18.1335 324.498 18.8722C324.174 19.6051 324.012 20.4659 324.012 21.4545C324.012 22.4659 324.171 23.3466 324.489 24.0966C324.813 24.8466 325.268 25.429 325.853 25.8438C326.444 26.2585 327.137 26.4659 327.933 26.4659C328.455 26.4659 328.93 26.375 329.356 26.1932C329.782 26.0114 330.143 25.75 330.438 25.4091C330.734 25.0682 330.944 24.6591 331.069 24.1818H333.08C332.967 24.9545 332.685 25.6506 332.237 26.2699C331.793 26.8835 331.205 27.3722 330.472 27.7358C329.745 28.0938 328.898 28.2727 327.933 28.2727ZM341.509 28.2727C340.248 28.2727 339.16 27.9943 338.245 27.4375C337.336 26.875 336.634 26.0909 336.14 25.0852C335.651 24.0739 335.407 22.8977 335.407 21.5568C335.407 20.2159 335.651 19.0341 336.14 18.0114C336.634 16.983 337.322 16.1818 338.202 15.608C339.089 15.0284 340.123 14.7386 341.305 14.7386C341.987 14.7386 342.66 14.8523 343.325 15.0795C343.989 15.3068 344.594 15.6761 345.14 16.1875C345.685 16.6932 346.12 17.3636 346.444 18.1989C346.768 19.0341 346.93 20.0625 346.93 21.2841V22.1364H336.839V20.3977H344.884C344.884 19.6591 344.737 19 344.441 18.4205C344.151 17.8409 343.737 17.3835 343.197 17.0483C342.663 16.7131 342.032 16.5455 341.305 16.5455C340.504 16.5455 339.81 16.7443 339.225 17.142C338.646 17.5341 338.2 18.0455 337.887 18.6761C337.575 19.3068 337.418 19.983 337.418 20.7045V21.8636C337.418 22.8523 337.589 23.6903 337.93 24.3778C338.276 25.0597 338.756 25.5795 339.37 25.9375C339.984 26.2898 340.697 26.4659 341.509 26.4659C342.038 26.4659 342.515 26.392 342.941 26.2443C343.373 26.0909 343.745 25.8636 344.058 25.5625C344.37 25.2557 344.612 24.875 344.782 24.4205L346.725 24.9659C346.521 25.625 346.177 26.2045 345.694 26.7045C345.211 27.1989 344.614 27.5852 343.904 27.8636C343.194 28.1364 342.396 28.2727 341.509 28.2727ZM349.989 32.9091V14.9091H351.933V16.9886H352.171C352.319 16.7614 352.523 16.4716 352.785 16.1193C353.052 15.7614 353.433 15.4432 353.927 15.1648C354.427 14.8807 355.103 14.7386 355.955 14.7386C357.058 14.7386 358.029 15.0142 358.87 15.5653C359.711 16.1165 360.367 16.8977 360.839 17.9091C361.31 18.9205 361.546 20.1136 361.546 21.4886C361.546 22.875 361.31 24.0767 360.839 25.0938C360.367 26.1051 359.714 26.8892 358.879 27.446C358.043 27.9972 357.08 28.2727 355.989 28.2727C355.148 28.2727 354.475 28.1335 353.969 27.8551C353.464 27.571 353.075 27.25 352.802 26.892C352.529 26.5284 352.319 26.2273 352.171 25.9886H352.001V32.9091H349.989ZM351.967 21.4545C351.967 22.4432 352.112 23.3153 352.401 24.071C352.691 24.821 353.114 25.4091 353.671 25.8352C354.228 26.2557 354.91 26.4659 355.717 26.4659C356.558 26.4659 357.259 26.2443 357.822 25.8011C358.39 25.3523 358.816 24.75 359.1 23.9943C359.39 23.233 359.535 22.3864 359.535 21.4545C359.535 20.5341 359.393 19.7045 359.109 18.9659C358.83 18.2216 358.407 17.6335 357.839 17.2017C357.276 16.7642 356.569 16.5455 355.717 16.5455C354.898 16.5455 354.211 16.7528 353.654 17.1676C353.097 17.5767 352.677 18.1506 352.393 18.8892C352.109 19.6222 351.967 20.4773 351.967 21.4545ZM363.217 31.75V26.125H364.308C364.575 25.8466 364.805 25.5455 364.998 25.2216C365.191 24.8977 365.359 24.5142 365.501 24.071C365.648 23.6222 365.773 23.0767 365.876 22.4347C365.978 21.7869 366.069 21.0057 366.148 20.0909L366.592 14.9091H374.91V26.125H376.921V31.75H374.91V28H365.228V31.75H363.217ZM366.592 26.125H372.898V16.7841H368.467L368.126 20.0909C367.984 21.4602 367.808 22.6562 367.597 23.679C367.387 24.7017 367.052 25.517 366.592 26.125ZM385.08 28.2727C383.818 28.2727 382.73 27.9943 381.815 27.4375C380.906 26.875 380.205 26.0909 379.71 25.0852C379.222 24.0739 378.977 22.8977 378.977 21.5568C378.977 20.2159 379.222 19.0341 379.71 18.0114C380.205 16.983 380.892 16.1818 381.773 15.608C382.659 15.0284 383.693 14.7386 384.875 14.7386C385.557 14.7386 386.23 14.8523 386.895 15.0795C387.56 15.3068 388.165 15.6761 388.71 16.1875C389.256 16.6932 389.69 17.3636 390.014 18.1989C390.338 19.0341 390.5 20.0625 390.5 21.2841V22.1364H380.409V20.3977H388.455C388.455 19.6591 388.307 19 388.011 18.4205C387.722 17.8409 387.307 17.3835 386.767 17.0483C386.233 16.7131 385.602 16.5455 384.875 16.5455C384.074 16.5455 383.381 16.7443 382.795 17.142C382.216 17.5341 381.77 18.0455 381.457 18.6761C381.145 19.3068 380.989 19.983 380.989 20.7045V21.8636C380.989 22.8523 381.159 23.6903 381.5 24.3778C381.847 25.0597 382.327 25.5795 382.94 25.9375C383.554 26.2898 384.267 26.4659 385.08 26.4659C385.608 26.4659 386.085 26.392 386.511 26.2443C386.943 26.0909 387.315 25.8636 387.628 25.5625C387.94 25.2557 388.182 24.875 388.352 24.4205L390.295 24.9659C390.091 25.625 389.747 26.2045 389.264 26.7045C388.781 27.1989 388.185 27.5852 387.474 27.8636C386.764 28.1364 385.966 28.2727 385.08 28.2727ZM403.855 14.9091V26.125H405.696V32.2273H403.685V28H393.56V14.9091H395.571V26.125H401.844V14.9091H403.855Z" fill="white"/>
</svg>
