<svg width="629" height="105" viewBox="0 0 629 105" fill="none" xmlns="http://www.w3.org/2000/svg">
<rect x="94" width="440" height="40" fill="#1D1C22"/>
<path d="M127.12 31.9091V13.9091H129.063V15.9886H129.302C129.45 15.7614 129.654 15.4716 129.916 15.1193C130.183 14.7614 130.563 14.4432 131.058 14.1648C131.558 13.8807 132.234 13.7386 133.086 13.7386C134.188 13.7386 135.16 14.0142 136.001 14.5653C136.842 15.1165 137.498 15.8977 137.97 16.9091C138.441 17.9205 138.677 19.1136 138.677 20.4886C138.677 21.875 138.441 23.0767 137.97 24.0938C137.498 25.1051 136.845 25.8892 136.009 26.446C135.174 26.9972 134.211 27.2727 133.12 27.2727C132.279 27.2727 131.606 27.1335 131.1 26.8551C130.595 26.571 130.205 26.25 129.933 25.892C129.66 25.5284 129.45 25.2273 129.302 24.9886H129.132V31.9091H127.12ZM129.097 20.4545C129.097 21.4432 129.242 22.3153 129.532 23.071C129.822 23.821 130.245 24.4091 130.802 24.8352C131.359 25.2557 132.041 25.4659 132.847 25.4659C133.688 25.4659 134.39 25.2443 134.953 24.8011C135.521 24.3523 135.947 23.75 136.231 22.9943C136.521 22.233 136.666 21.3864 136.666 20.4545C136.666 19.5341 136.524 18.7045 136.24 17.9659C135.961 17.2216 135.538 16.6335 134.97 16.2017C134.407 15.7642 133.7 15.5455 132.847 15.5455C132.029 15.5455 131.342 15.7528 130.785 16.1676C130.228 16.5767 129.808 17.1506 129.524 17.8892C129.24 18.6222 129.097 19.4773 129.097 20.4545ZM147.234 27.2727C145.972 27.2727 144.884 26.9943 143.97 26.4375C143.061 25.875 142.359 25.0909 141.865 24.0852C141.376 23.0739 141.132 21.8977 141.132 20.5568C141.132 19.2159 141.376 18.0341 141.865 17.0114C142.359 15.983 143.046 15.1818 143.927 14.608C144.813 14.0284 145.847 13.7386 147.029 13.7386C147.711 13.7386 148.384 13.8523 149.049 14.0795C149.714 14.3068 150.319 14.6761 150.865 15.1875C151.41 15.6932 151.845 16.3636 152.169 17.1989C152.492 18.0341 152.654 19.0625 152.654 20.2841V21.1364H142.563V19.3977H150.609C150.609 18.6591 150.461 18 150.166 17.4205C149.876 16.8409 149.461 16.3835 148.921 16.0483C148.387 15.7131 147.757 15.5455 147.029 15.5455C146.228 15.5455 145.535 15.7443 144.95 16.142C144.37 16.5341 143.924 17.0455 143.612 17.6761C143.299 18.3068 143.143 18.983 143.143 19.7045V20.8636C143.143 21.8523 143.313 22.6903 143.654 23.3778C144.001 24.0597 144.481 24.5795 145.095 24.9375C145.708 25.2898 146.421 25.4659 147.234 25.4659C147.762 25.4659 148.24 25.392 148.666 25.2443C149.097 25.0909 149.47 24.8636 149.782 24.5625C150.095 24.2557 150.336 23.875 150.507 23.4205L152.45 23.9659C152.245 24.625 151.901 25.2045 151.419 25.7045C150.936 26.1989 150.339 26.5852 149.629 26.8636C148.919 27.1364 148.12 27.2727 147.234 27.2727ZM161.032 27.2727C159.805 27.2727 158.748 26.983 157.862 26.4034C156.975 25.8239 156.294 25.0256 155.816 24.0085C155.339 22.9915 155.1 21.8295 155.1 20.5227C155.1 19.1932 155.345 18.0199 155.833 17.0028C156.328 15.9801 157.015 15.1818 157.896 14.608C158.782 14.0284 159.816 13.7386 160.998 13.7386C161.919 13.7386 162.748 13.9091 163.487 14.25C164.225 14.5909 164.83 15.0682 165.302 15.6818C165.774 16.2955 166.066 17.0114 166.18 17.8295H164.169C164.015 17.233 163.674 16.7045 163.146 16.2443C162.623 15.7784 161.919 15.5455 161.032 15.5455C160.248 15.5455 159.561 15.75 158.97 16.1591C158.384 16.5625 157.927 17.1335 157.597 17.8722C157.274 18.6051 157.112 19.4659 157.112 20.4545C157.112 21.4659 157.271 22.3466 157.589 23.0966C157.913 23.8466 158.367 24.429 158.953 24.8438C159.544 25.2585 160.237 25.4659 161.032 25.4659C161.555 25.4659 162.029 25.375 162.455 25.1932C162.882 25.0114 163.242 24.75 163.538 24.4091C163.833 24.0682 164.044 23.6591 164.169 23.1818H166.18C166.066 23.9545 165.785 24.6506 165.336 25.2699C164.893 25.8835 164.305 26.3722 163.572 26.7358C162.845 27.0938 161.998 27.2727 161.032 27.2727ZM168.089 15.7841V13.9091H178.725V15.7841H174.43V27H172.419V15.7841H168.089ZM184.832 27.3068C184.002 27.3068 183.249 27.1506 182.573 26.8381C181.897 26.5199 181.36 26.0625 180.963 25.4659C180.565 24.8636 180.366 24.1364 180.366 23.2841C180.366 22.5341 180.514 21.9261 180.809 21.4602C181.105 20.9886 181.499 20.6193 181.994 20.3523C182.488 20.0852 183.034 19.8864 183.63 19.7557C184.232 19.6193 184.838 19.5114 185.445 19.4318C186.241 19.3295 186.886 19.2528 187.38 19.2017C187.88 19.1449 188.244 19.0511 188.471 18.9205C188.704 18.7898 188.82 18.5625 188.82 18.2386V18.1705C188.82 17.3295 188.59 16.6761 188.13 16.2102C187.676 15.7443 186.985 15.5114 186.059 15.5114C185.099 15.5114 184.346 15.7216 183.801 16.142C183.255 16.5625 182.872 17.0114 182.65 17.4886L180.741 16.8068C181.082 16.0114 181.536 15.392 182.105 14.9489C182.678 14.5 183.303 14.1875 183.98 14.0114C184.661 13.8295 185.332 13.7386 185.991 13.7386C186.411 13.7386 186.894 13.7898 187.44 13.892C187.991 13.9886 188.522 14.1903 189.034 14.4972C189.551 14.804 189.98 15.267 190.32 15.8864C190.661 16.5057 190.832 17.3352 190.832 18.375V27H188.82V25.2273H188.718C188.582 25.5114 188.355 25.8153 188.036 26.1392C187.718 26.4631 187.295 26.7386 186.767 26.9659C186.238 27.1932 185.593 27.3068 184.832 27.3068ZM185.139 25.5C185.934 25.5 186.605 25.3438 187.15 25.0312C187.701 24.7188 188.116 24.3153 188.394 23.821C188.678 23.3267 188.82 22.8068 188.82 22.2614V20.4205C188.735 20.5227 188.548 20.6165 188.258 20.7017C187.974 20.7812 187.644 20.8523 187.269 20.9148C186.9 20.9716 186.539 21.0227 186.187 21.0682C185.84 21.108 185.559 21.142 185.343 21.1705C184.82 21.2386 184.332 21.3494 183.877 21.5028C183.428 21.6506 183.065 21.875 182.786 22.1761C182.514 22.4716 182.377 22.875 182.377 23.3864C182.377 24.0852 182.636 24.6136 183.153 24.9716C183.676 25.3239 184.338 25.5 185.139 25.5ZM194.503 27V13.9091H199.855C201.264 13.9091 202.384 14.2273 203.213 14.8636C204.043 15.5 204.458 16.3409 204.458 17.3864C204.458 18.1818 204.222 18.7983 203.75 19.2358C203.279 19.6676 202.673 19.9602 201.935 20.1136C202.418 20.1818 202.887 20.3523 203.341 20.625C203.801 20.8977 204.182 21.2727 204.483 21.75C204.784 22.2216 204.935 22.8011 204.935 23.4886C204.935 24.1591 204.764 24.7585 204.423 25.2869C204.083 25.8153 203.594 26.233 202.958 26.5398C202.321 26.8466 201.56 27 200.673 27H194.503ZM196.412 25.1591H200.673C201.367 25.1591 201.909 24.9943 202.301 24.6648C202.693 24.3352 202.889 23.8864 202.889 23.3182C202.889 22.642 202.693 22.1108 202.301 21.7244C201.909 21.3324 201.367 21.1364 200.673 21.1364H196.412V25.1591ZM196.412 19.3977H199.855C200.395 19.3977 200.858 19.3239 201.244 19.1761C201.631 19.0227 201.926 18.8068 202.131 18.5284C202.341 18.2443 202.446 17.9091 202.446 17.5227C202.446 16.9716 202.216 16.5398 201.756 16.2273C201.296 15.9091 200.662 15.75 199.855 15.75H196.412V19.3977ZM207.98 31.9091V13.9091H209.923V15.9886H210.161C210.309 15.7614 210.514 15.4716 210.775 15.1193C211.042 14.7614 211.423 14.4432 211.917 14.1648C212.417 13.8807 213.093 13.7386 213.945 13.7386C215.048 13.7386 216.019 14.0142 216.86 14.5653C217.701 15.1165 218.357 15.8977 218.829 16.9091C219.301 17.9205 219.536 19.1136 219.536 20.4886C219.536 21.875 219.301 23.0767 218.829 24.0938C218.357 25.1051 217.704 25.8892 216.869 26.446C216.034 26.9972 215.07 27.2727 213.98 27.2727C213.139 27.2727 212.465 27.1335 211.96 26.8551C211.454 26.571 211.065 26.25 210.792 25.892C210.519 25.5284 210.309 25.2273 210.161 24.9886H209.991V31.9091H207.98ZM209.957 20.4545C209.957 21.4432 210.102 22.3153 210.392 23.071C210.681 23.821 211.105 24.4091 211.661 24.8352C212.218 25.2557 212.9 25.4659 213.707 25.4659C214.548 25.4659 215.249 25.2443 215.812 24.8011C216.38 24.3523 216.806 23.75 217.09 22.9943C217.38 22.233 217.525 21.3864 217.525 20.4545C217.525 19.5341 217.383 18.7045 217.099 17.9659C216.82 17.2216 216.397 16.6335 215.829 16.2017C215.267 15.7642 214.559 15.5455 213.707 15.5455C212.889 15.5455 212.201 15.7528 211.644 16.1676C211.088 16.5767 210.667 17.1506 210.383 17.8892C210.099 18.6222 209.957 19.4773 209.957 20.4545ZM226.457 27.3068C225.627 27.3068 224.874 27.1506 224.198 26.8381C223.522 26.5199 222.985 26.0625 222.588 25.4659C222.19 24.8636 221.991 24.1364 221.991 23.2841C221.991 22.5341 222.139 21.9261 222.434 21.4602C222.73 20.9886 223.124 20.6193 223.619 20.3523C224.113 20.0852 224.659 19.8864 225.255 19.7557C225.857 19.6193 226.463 19.5114 227.07 19.4318C227.866 19.3295 228.511 19.2528 229.005 19.2017C229.505 19.1449 229.869 19.0511 230.096 18.9205C230.329 18.7898 230.445 18.5625 230.445 18.2386V18.1705C230.445 17.3295 230.215 16.6761 229.755 16.2102C229.301 15.7443 228.61 15.5114 227.684 15.5114C226.724 15.5114 225.971 15.7216 225.426 16.142C224.88 16.5625 224.497 17.0114 224.275 17.4886L222.366 16.8068C222.707 16.0114 223.161 15.392 223.73 14.9489C224.303 14.5 224.928 14.1875 225.605 14.0114C226.286 13.8295 226.957 13.7386 227.616 13.7386C228.036 13.7386 228.519 13.7898 229.065 13.892C229.616 13.9886 230.147 14.1903 230.659 14.4972C231.176 14.804 231.605 15.267 231.945 15.8864C232.286 16.5057 232.457 17.3352 232.457 18.375V27H230.445V25.2273H230.343C230.207 25.5114 229.98 25.8153 229.661 26.1392C229.343 26.4631 228.92 26.7386 228.392 26.9659C227.863 27.1932 227.218 27.3068 226.457 27.3068ZM226.764 25.5C227.559 25.5 228.23 25.3438 228.775 25.0312C229.326 24.7188 229.741 24.3153 230.019 23.821C230.303 23.3267 230.445 22.8068 230.445 22.2614V20.4205C230.36 20.5227 230.173 20.6165 229.883 20.7017C229.599 20.7812 229.269 20.8523 228.894 20.9148C228.525 20.9716 228.164 21.0227 227.812 21.0682C227.465 21.108 227.184 21.142 226.968 21.1705C226.445 21.2386 225.957 21.3494 225.502 21.5028C225.053 21.6506 224.69 21.875 224.411 22.1761C224.139 22.4716 224.002 22.875 224.002 23.3864C224.002 24.0852 224.261 24.6136 224.778 24.9716C225.301 25.3239 225.963 25.5 226.764 25.5ZM246.423 13.9091V25.125H248.264V31.2273H246.253V27H236.128V13.9091H238.139V25.125H244.412V13.9091H246.423ZM253.374 24.0341L259.681 13.9091H261.999V27H259.987V16.875L253.715 27H251.362V13.9091H253.374V24.0341ZM273.558 27V15.75H270.08C269.296 15.75 268.68 15.9318 268.231 16.2955C267.782 16.6591 267.558 17.1591 267.558 17.7955C267.558 18.4205 267.759 18.9119 268.163 19.2699C268.572 19.6278 269.132 19.8068 269.842 19.8068H274.069V21.6818H269.842C268.955 21.6818 268.191 21.5256 267.549 21.2131C266.907 20.9006 266.413 20.4545 266.066 19.875C265.72 19.2898 265.546 18.5966 265.546 17.7955C265.546 16.9886 265.728 16.2955 266.092 15.7159C266.455 15.1364 266.975 14.6903 267.651 14.3778C268.333 14.0653 269.143 13.9091 270.08 13.9091H275.467V27H273.558ZM264.83 27L268.546 20.4886H270.728L267.012 27H264.83ZM285.909 31.9091V13.9091H287.852V15.9886H288.091C288.239 15.7614 288.443 15.4716 288.705 15.1193C288.972 14.7614 289.352 14.4432 289.847 14.1648C290.347 13.8807 291.023 13.7386 291.875 13.7386C292.977 13.7386 293.949 14.0142 294.79 14.5653C295.631 15.1165 296.287 15.8977 296.759 16.9091C297.23 17.9205 297.466 19.1136 297.466 20.4886C297.466 21.875 297.23 23.0767 296.759 24.0938C296.287 25.1051 295.634 25.8892 294.798 26.446C293.963 26.9972 293 27.2727 291.909 27.2727C291.068 27.2727 290.395 27.1335 289.889 26.8551C289.384 26.571 288.994 26.25 288.722 25.892C288.449 25.5284 288.239 25.2273 288.091 24.9886H287.921V31.9091H285.909ZM287.887 20.4545C287.887 21.4432 288.031 22.3153 288.321 23.071C288.611 23.821 289.034 24.4091 289.591 24.8352C290.148 25.2557 290.83 25.4659 291.637 25.4659C292.477 25.4659 293.179 25.2443 293.742 24.8011C294.31 24.3523 294.736 23.75 295.02 22.9943C295.31 22.233 295.455 21.3864 295.455 20.4545C295.455 19.5341 295.313 18.7045 295.029 17.9659C294.75 17.2216 294.327 16.6335 293.759 16.2017C293.196 15.7642 292.489 15.5455 291.637 15.5455C290.818 15.5455 290.131 15.7528 289.574 16.1676C289.017 16.5767 288.597 17.1506 288.313 17.8892C288.029 18.6222 287.887 19.4773 287.887 20.4545ZM304.387 27.3068C303.557 27.3068 302.804 27.1506 302.128 26.8381C301.452 26.5199 300.915 26.0625 300.517 25.4659C300.119 24.8636 299.921 24.1364 299.921 23.2841C299.921 22.5341 300.068 21.9261 300.364 21.4602C300.659 20.9886 301.054 20.6193 301.548 20.3523C302.043 20.0852 302.588 19.8864 303.185 19.7557C303.787 19.6193 304.392 19.5114 305 19.4318C305.796 19.3295 306.441 19.2528 306.935 19.2017C307.435 19.1449 307.798 19.0511 308.026 18.9205C308.259 18.7898 308.375 18.5625 308.375 18.2386V18.1705C308.375 17.3295 308.145 16.6761 307.685 16.2102C307.23 15.7443 306.54 15.5114 305.614 15.5114C304.654 15.5114 303.901 15.7216 303.355 16.142C302.81 16.5625 302.426 17.0114 302.205 17.4886L300.296 16.8068C300.637 16.0114 301.091 15.392 301.659 14.9489C302.233 14.5 302.858 14.1875 303.534 14.0114C304.216 13.8295 304.887 13.7386 305.546 13.7386C305.966 13.7386 306.449 13.7898 306.994 13.892C307.546 13.9886 308.077 14.1903 308.588 14.4972C309.105 14.804 309.534 15.267 309.875 15.8864C310.216 16.5057 310.387 17.3352 310.387 18.375V27H308.375V25.2273H308.273C308.137 25.5114 307.909 25.8153 307.591 26.1392C307.273 26.4631 306.85 26.7386 306.321 26.9659C305.793 27.1932 305.148 27.3068 304.387 27.3068ZM304.693 25.5C305.489 25.5 306.159 25.3438 306.705 25.0312C307.256 24.7188 307.671 24.3153 307.949 23.821C308.233 23.3267 308.375 22.8068 308.375 22.2614V20.4205C308.29 20.5227 308.102 20.6165 307.813 20.7017C307.529 20.7812 307.199 20.8523 306.824 20.9148C306.455 20.9716 306.094 21.0227 305.742 21.0682C305.395 21.108 305.114 21.142 304.898 21.1705C304.375 21.2386 303.887 21.3494 303.432 21.5028C302.983 21.6506 302.619 21.875 302.341 22.1761C302.068 22.4716 301.932 22.875 301.932 23.3864C301.932 24.0852 302.191 24.6136 302.708 24.9716C303.23 25.3239 303.892 25.5 304.693 25.5ZM313.24 23.6591H315.387C315.433 24.25 315.7 24.6989 316.188 25.0057C316.683 25.3125 317.325 25.4659 318.115 25.4659C318.921 25.4659 319.612 25.3011 320.186 24.9716C320.759 24.6364 321.046 24.0966 321.046 23.3523C321.046 22.9148 320.938 22.5341 320.722 22.2102C320.507 21.8807 320.203 21.625 319.811 21.4432C319.419 21.2614 318.955 21.1705 318.421 21.1705H316.171V19.3636H318.421C319.222 19.3636 319.813 19.1818 320.194 18.8182C320.58 18.4545 320.774 18 320.774 17.4545C320.774 16.8693 320.566 16.4006 320.151 16.0483C319.737 15.6903 319.149 15.5114 318.387 15.5114C317.62 15.5114 316.981 15.6847 316.47 16.0312C315.958 16.3722 315.688 16.8125 315.66 17.3523H313.546C313.569 16.6477 313.785 16.0256 314.194 15.4858C314.603 14.9403 315.16 14.5142 315.865 14.2074C316.569 13.8949 317.376 13.7386 318.285 13.7386C319.205 13.7386 320.004 13.9006 320.68 14.2244C321.362 14.5426 321.887 14.9773 322.257 15.5284C322.632 16.0739 322.819 16.6932 322.819 17.3864C322.819 18.125 322.612 18.7216 322.197 19.1761C321.782 19.6307 321.262 19.9545 320.637 20.1477V20.2841C321.132 20.3182 321.561 20.4773 321.924 20.7614C322.294 21.0398 322.58 21.4062 322.785 21.8608C322.99 22.3097 323.092 22.8068 323.092 23.3523C323.092 24.1477 322.879 24.8409 322.453 25.4318C322.026 26.017 321.441 26.4716 320.697 26.7955C319.953 27.1136 319.103 27.2727 318.149 27.2727C317.222 27.2727 316.393 27.1222 315.66 26.821C314.927 26.5142 314.345 26.0909 313.913 25.5511C313.487 25.0057 313.262 24.375 313.24 23.6591ZM335.633 9L336.656 10.2273C336.258 10.6136 335.798 10.8835 335.275 11.0369C334.752 11.1903 334.161 11.2841 333.502 11.3182C332.843 11.3523 332.11 11.3864 331.303 11.4205C330.394 11.4545 329.642 11.6761 329.045 12.0852C328.448 12.4943 327.988 13.0852 327.664 13.858C327.34 14.6307 327.133 15.5795 327.042 16.7045H327.213C327.656 15.8864 328.269 15.2841 329.053 14.8977C329.838 14.5114 330.678 14.3182 331.576 14.3182C332.599 14.3182 333.519 14.5568 334.338 15.0341C335.156 15.5114 335.803 16.2188 336.281 17.1562C336.758 18.0938 336.997 19.25 336.997 20.625C336.997 21.9943 336.752 23.1761 336.264 24.1705C335.781 25.1648 335.102 25.9318 334.227 26.4716C333.357 27.0057 332.338 27.2727 331.167 27.2727C329.997 27.2727 328.971 26.9972 328.09 26.446C327.21 25.8892 326.525 25.0653 326.036 23.9744C325.548 22.8778 325.303 21.5227 325.303 19.9091V18.5114C325.303 15.5966 325.798 13.3864 326.786 11.8807C327.781 10.375 329.275 9.59659 331.269 9.54545C331.974 9.52273 332.602 9.51705 333.153 9.52841C333.704 9.53977 334.184 9.5142 334.593 9.4517C335.002 9.3892 335.349 9.23864 335.633 9ZM331.167 25.4659C331.957 25.4659 332.636 25.267 333.204 24.8693C333.778 24.4716 334.218 23.9119 334.525 23.1903C334.832 22.4631 334.985 21.608 334.985 20.625C334.985 19.6705 334.829 18.858 334.517 18.1875C334.21 17.517 333.769 17.0057 333.195 16.6534C332.622 16.3011 331.934 16.125 331.133 16.125C330.548 16.125 330.022 16.2244 329.556 16.4233C329.09 16.6222 328.693 16.9148 328.363 17.3011C328.034 17.6875 327.778 18.1591 327.596 18.7159C327.42 19.2727 327.326 19.9091 327.315 20.625C327.315 22.0909 327.659 23.2642 328.346 24.1449C329.034 25.0256 329.974 25.4659 331.167 25.4659ZM342.085 24.0341L348.392 13.9091H350.71V27H348.698V16.875L342.426 27H340.073V13.9091H342.085V24.0341ZM352.612 15.7841V13.9091H363.249V15.7841H358.953V27H356.942V15.7841H352.612ZM367.921 18.6477H371.671C373.205 18.6477 374.379 19.0369 375.191 19.8153C376.004 20.5937 376.41 21.5795 376.41 22.7727C376.41 23.5568 376.228 24.2699 375.865 24.9119C375.501 25.5483 374.967 26.0568 374.262 26.4375C373.558 26.8125 372.694 27 371.671 27H366.183V13.9091H368.194V25.125H371.671C372.467 25.125 373.12 24.9148 373.632 24.4943C374.143 24.0739 374.399 23.5341 374.399 22.875C374.399 22.1818 374.143 21.6165 373.632 21.179C373.12 20.7415 372.467 20.5227 371.671 20.5227H367.921V18.6477ZM378.49 27V13.9091H380.501V27H378.49ZM385.683 13.9091L388.819 19.2614L391.955 13.9091H394.274L390.046 20.4545L394.274 27H391.955L388.819 21.9205L385.683 27H383.365L387.524 20.4545L383.365 13.9091H385.683ZM409.212 27.2727C407.985 27.2727 406.928 26.983 406.041 26.4034C405.155 25.8239 404.473 25.0256 403.996 24.0085C403.519 22.9915 403.28 21.8295 403.28 20.5227C403.28 19.1932 403.524 18.0199 404.013 17.0028C404.507 15.9801 405.195 15.1818 406.075 14.608C406.962 14.0284 407.996 13.7386 409.178 13.7386C410.098 13.7386 410.928 13.9091 411.666 14.25C412.405 14.5909 413.01 15.0682 413.482 15.6818C413.953 16.2955 414.246 17.0114 414.36 17.8295H412.348C412.195 17.233 411.854 16.7045 411.325 16.2443C410.803 15.7784 410.098 15.5455 409.212 15.5455C408.428 15.5455 407.74 15.75 407.149 16.1591C406.564 16.5625 406.107 17.1335 405.777 17.8722C405.453 18.6051 405.291 19.4659 405.291 20.4545C405.291 21.4659 405.45 22.3466 405.769 23.0966C406.093 23.8466 406.547 24.429 407.132 24.8438C407.723 25.2585 408.416 25.4659 409.212 25.4659C409.735 25.4659 410.209 25.375 410.635 25.1932C411.061 25.0114 411.422 24.75 411.718 24.4091C412.013 24.0682 412.223 23.6591 412.348 23.1818H414.36C414.246 23.9545 413.965 24.6506 413.516 25.2699C413.073 25.8835 412.485 26.3722 411.752 26.7358C411.024 27.0938 410.178 27.2727 409.212 27.2727ZM422.789 27.2727C421.527 27.2727 420.439 26.9943 419.524 26.4375C418.615 25.875 417.914 25.0909 417.419 24.0852C416.931 23.0739 416.686 21.8977 416.686 20.5568C416.686 19.2159 416.931 18.0341 417.419 17.0114C417.914 15.983 418.601 15.1818 419.482 14.608C420.368 14.0284 421.402 13.7386 422.584 13.7386C423.266 13.7386 423.939 13.8523 424.604 14.0795C425.269 14.3068 425.874 14.6761 426.419 15.1875C426.965 15.6932 427.399 16.3636 427.723 17.1989C428.047 18.0341 428.209 19.0625 428.209 20.2841V21.1364H418.118V19.3977H426.164C426.164 18.6591 426.016 18 425.72 17.4205C425.431 16.8409 425.016 16.3835 424.476 16.0483C423.942 15.7131 423.311 15.5455 422.584 15.5455C421.783 15.5455 421.09 15.7443 420.504 16.142C419.925 16.5341 419.479 17.0455 419.166 17.6761C418.854 18.3068 418.698 18.983 418.698 19.7045V20.8636C418.698 21.8523 418.868 22.6903 419.209 23.3778C419.556 24.0597 420.036 24.5795 420.649 24.9375C421.263 25.2898 421.976 25.4659 422.789 25.4659C423.317 25.4659 423.794 25.392 424.22 25.2443C424.652 25.0909 425.024 24.8636 425.337 24.5625C425.649 24.2557 425.891 23.875 426.061 23.4205L428.004 23.9659C427.8 24.625 427.456 25.2045 426.973 25.7045C426.49 26.1989 425.894 26.5852 425.183 26.8636C424.473 27.1364 423.675 27.2727 422.789 27.2727ZM431.269 31.9091V13.9091H433.212V15.9886H433.45C433.598 15.7614 433.803 15.4716 434.064 15.1193C434.331 14.7614 434.712 14.4432 435.206 14.1648C435.706 13.8807 436.382 13.7386 437.235 13.7386C438.337 13.7386 439.308 14.0142 440.149 14.5653C440.99 15.1165 441.646 15.8977 442.118 16.9091C442.59 17.9205 442.825 19.1136 442.825 20.4886C442.825 21.875 442.59 23.0767 442.118 24.0938C441.646 25.1051 440.993 25.8892 440.158 26.446C439.323 26.9972 438.36 27.2727 437.269 27.2727C436.428 27.2727 435.754 27.1335 435.249 26.8551C434.743 26.571 434.354 26.25 434.081 25.892C433.808 25.5284 433.598 25.2273 433.45 24.9886H433.28V31.9091H431.269ZM433.246 20.4545C433.246 21.4432 433.391 22.3153 433.681 23.071C433.97 23.821 434.394 24.4091 434.95 24.8352C435.507 25.2557 436.189 25.4659 436.996 25.4659C437.837 25.4659 438.539 25.2443 439.101 24.8011C439.669 24.3523 440.095 23.75 440.379 22.9943C440.669 22.233 440.814 21.3864 440.814 20.4545C440.814 19.5341 440.672 18.7045 440.388 17.9659C440.11 17.2216 439.686 16.6335 439.118 16.2017C438.556 15.7642 437.848 15.5455 436.996 15.5455C436.178 15.5455 435.49 15.7528 434.933 16.1676C434.377 16.5767 433.956 17.1506 433.672 17.8892C433.388 18.6222 433.246 19.4773 433.246 20.4545ZM444.496 30.75V25.125H445.587C445.854 24.8466 446.084 24.5455 446.277 24.2216C446.47 23.8977 446.638 23.5142 446.78 23.071C446.928 22.6222 447.053 22.0767 447.155 21.4347C447.257 20.7869 447.348 20.0057 447.428 19.0909L447.871 13.9091H456.189V25.125H458.2V30.75H456.189V27H446.507V30.75H444.496ZM447.871 25.125H454.178V15.7841H449.746L449.405 19.0909C449.263 20.4602 449.087 21.6562 448.877 22.679C448.666 23.7017 448.331 24.517 447.871 25.125ZM466.359 27.2727C465.097 27.2727 464.009 26.9943 463.095 26.4375C462.186 25.875 461.484 25.0909 460.99 24.0852C460.501 23.0739 460.257 21.8977 460.257 20.5568C460.257 19.2159 460.501 18.0341 460.99 17.0114C461.484 15.983 462.171 15.1818 463.052 14.608C463.938 14.0284 464.972 13.7386 466.154 13.7386C466.836 13.7386 467.509 13.8523 468.174 14.0795C468.839 14.3068 469.444 14.6761 469.99 15.1875C470.535 15.6932 470.97 16.3636 471.294 17.1989C471.617 18.0341 471.779 19.0625 471.779 20.2841V21.1364H461.688V19.3977H469.734C469.734 18.6591 469.586 18 469.291 17.4205C469.001 16.8409 468.586 16.3835 468.046 16.0483C467.512 15.7131 466.882 15.5455 466.154 15.5455C465.353 15.5455 464.66 15.7443 464.075 16.142C463.495 16.5341 463.049 17.0455 462.737 17.6761C462.424 18.3068 462.268 18.983 462.268 19.7045V20.8636C462.268 21.8523 462.438 22.6903 462.779 23.3778C463.126 24.0597 463.606 24.5795 464.22 24.9375C464.833 25.2898 465.546 25.4659 466.359 25.4659C466.887 25.4659 467.365 25.392 467.791 25.2443C468.222 25.0909 468.595 24.8636 468.907 24.5625C469.22 24.2557 469.461 23.875 469.632 23.4205L471.575 23.9659C471.37 24.625 471.026 25.2045 470.544 25.7045C470.061 26.1989 469.464 26.5852 468.754 26.8636C468.044 27.1364 467.245 27.2727 466.359 27.2727ZM485.134 13.9091V25.125H486.975V31.2273H484.964V27H474.839V13.9091H476.85V25.125H483.123V13.9091H485.134Z" fill="white"/>
<rect x="207" y="36" width="422" height="40" fill="#1D1C22"/>
<path d="M237.841 60.9091V42.9091H239.784V44.9886H240.023C240.17 44.7614 240.375 44.4716 240.636 44.1193C240.903 43.7614 241.284 43.4432 241.778 43.1648C242.278 42.8807 242.955 42.7386 243.807 42.7386C244.909 42.7386 245.881 43.0142 246.722 43.5653C247.563 44.1165 248.219 44.8977 248.69 45.9091C249.162 46.9205 249.398 48.1136 249.398 49.4886C249.398 50.875 249.162 52.0767 248.69 53.0938C248.219 54.1051 247.565 54.8892 246.73 55.446C245.895 55.9972 244.932 56.2727 243.841 56.2727C243 56.2727 242.327 56.1335 241.821 55.8551C241.315 55.571 240.926 55.25 240.653 54.892C240.381 54.5284 240.17 54.2273 240.023 53.9886H239.852V60.9091H237.841ZM239.818 49.4545C239.818 50.4432 239.963 51.3153 240.253 52.071C240.543 52.821 240.966 53.4091 241.523 53.8352C242.08 54.2557 242.761 54.4659 243.568 54.4659C244.409 54.4659 245.111 54.2443 245.673 53.8011C246.241 53.3523 246.668 52.75 246.952 51.9943C247.241 51.233 247.386 50.3864 247.386 49.4545C247.386 48.5341 247.244 47.7045 246.96 46.9659C246.682 46.2216 246.259 45.6335 245.69 45.2017C245.128 44.7642 244.42 44.5455 243.568 44.5455C242.75 44.5455 242.063 44.7528 241.506 45.1676C240.949 45.5767 240.528 46.1506 240.244 46.8892C239.96 47.6222 239.818 48.4773 239.818 49.4545ZM257.955 56.2727C256.693 56.2727 255.605 55.9943 254.69 55.4375C253.781 54.875 253.08 54.0909 252.585 53.0852C252.097 52.0739 251.852 50.8977 251.852 49.5568C251.852 48.2159 252.097 47.0341 252.585 46.0114C253.08 44.983 253.767 44.1818 254.648 43.608C255.534 43.0284 256.568 42.7386 257.75 42.7386C258.432 42.7386 259.105 42.8523 259.77 43.0795C260.435 43.3068 261.04 43.6761 261.585 44.1875C262.131 44.6932 262.565 45.3636 262.889 46.1989C263.213 47.0341 263.375 48.0625 263.375 49.2841V50.1364H253.284V48.3977H261.33C261.33 47.6591 261.182 47 260.886 46.4205C260.597 45.8409 260.182 45.3835 259.642 45.0483C259.108 44.7131 258.477 44.5455 257.75 44.5455C256.949 44.5455 256.256 44.7443 255.67 45.142C255.091 45.5341 254.645 46.0455 254.332 46.6761C254.02 47.3068 253.864 47.983 253.864 48.7045V49.8636C253.864 50.8523 254.034 51.6903 254.375 52.3778C254.722 53.0597 255.202 53.5795 255.815 53.9375C256.429 54.2898 257.142 54.4659 257.955 54.4659C258.483 54.4659 258.96 54.392 259.386 54.2443C259.818 54.0909 260.19 53.8636 260.503 53.5625C260.815 53.2557 261.057 52.875 261.227 52.4205L263.17 52.9659C262.966 53.625 262.622 54.2045 262.139 54.7045C261.656 55.1989 261.06 55.5852 260.349 55.8636C259.639 56.1364 258.841 56.2727 257.955 56.2727ZM271.753 56.2727C270.526 56.2727 269.469 55.983 268.582 55.4034C267.696 54.8239 267.014 54.0256 266.537 53.0085C266.06 51.9915 265.821 50.8295 265.821 49.5227C265.821 48.1932 266.065 47.0199 266.554 46.0028C267.048 44.9801 267.736 44.1818 268.616 43.608C269.503 43.0284 270.537 42.7386 271.719 42.7386C272.639 42.7386 273.469 42.9091 274.207 43.25C274.946 43.5909 275.551 44.0682 276.023 44.6818C276.494 45.2955 276.787 46.0114 276.901 46.8295H274.889C274.736 46.233 274.395 45.7045 273.866 45.2443C273.344 44.7784 272.639 44.5455 271.753 44.5455C270.969 44.5455 270.281 44.75 269.69 45.1591C269.105 45.5625 268.648 46.1335 268.318 46.8722C267.994 47.6051 267.832 48.4659 267.832 49.4545C267.832 50.4659 267.991 51.3466 268.31 52.0966C268.634 52.8466 269.088 53.429 269.673 53.8438C270.264 54.2585 270.957 54.4659 271.753 54.4659C272.276 54.4659 272.75 54.375 273.176 54.1932C273.602 54.0114 273.963 53.75 274.259 53.4091C274.554 53.0682 274.764 52.6591 274.889 52.1818H276.901C276.787 52.9545 276.506 53.6506 276.057 54.2699C275.614 54.8835 275.026 55.3722 274.293 55.7358C273.565 56.0938 272.719 56.2727 271.753 56.2727ZM278.81 44.7841V42.9091H289.446V44.7841H285.151V56H283.139V44.7841H278.81ZM295.553 56.3068C294.723 56.3068 293.97 56.1506 293.294 55.8381C292.618 55.5199 292.081 55.0625 291.683 54.4659C291.286 53.8636 291.087 53.1364 291.087 52.2841C291.087 51.5341 291.234 50.9261 291.53 50.4602C291.825 49.9886 292.22 49.6193 292.714 49.3523C293.209 49.0852 293.754 48.8864 294.351 48.7557C294.953 48.6193 295.558 48.5114 296.166 48.4318C296.962 48.3295 297.607 48.2528 298.101 48.2017C298.601 48.1449 298.964 48.0511 299.192 47.9205C299.425 47.7898 299.541 47.5625 299.541 47.2386V47.1705C299.541 46.3295 299.311 45.6761 298.851 45.2102C298.396 44.7443 297.706 44.5114 296.78 44.5114C295.82 44.5114 295.067 44.7216 294.521 45.142C293.976 45.5625 293.592 46.0114 293.371 46.4886L291.462 45.8068C291.803 45.0114 292.257 44.392 292.825 43.9489C293.399 43.5 294.024 43.1875 294.7 43.0114C295.382 42.8295 296.053 42.7386 296.712 42.7386C297.132 42.7386 297.615 42.7898 298.161 42.892C298.712 42.9886 299.243 43.1903 299.754 43.4972C300.271 43.804 300.7 44.267 301.041 44.8864C301.382 45.5057 301.553 46.3352 301.553 47.375V56H299.541V54.2273H299.439C299.303 54.5114 299.075 54.8153 298.757 55.1392C298.439 55.4631 298.016 55.7386 297.487 55.9659C296.959 56.1932 296.314 56.3068 295.553 56.3068ZM295.859 54.5C296.655 54.5 297.325 54.3438 297.871 54.0312C298.422 53.7188 298.837 53.3153 299.115 52.821C299.399 52.3267 299.541 51.8068 299.541 51.2614V49.4205C299.456 49.5227 299.268 49.6165 298.979 49.7017C298.695 49.7812 298.365 49.8523 297.99 49.9148C297.621 49.9716 297.26 50.0227 296.908 50.0682C296.561 50.108 296.28 50.142 296.064 50.1705C295.541 50.2386 295.053 50.3494 294.598 50.5028C294.149 50.6506 293.786 50.875 293.507 51.1761C293.234 51.4716 293.098 51.875 293.098 52.3864C293.098 53.0852 293.357 53.6136 293.874 53.9716C294.396 54.3239 295.058 54.5 295.859 54.5ZM305.224 56V42.9091H310.576C311.985 42.9091 313.104 43.2273 313.934 43.8636C314.763 44.5 315.178 45.3409 315.178 46.3864C315.178 47.1818 314.942 47.7983 314.471 48.2358C313.999 48.6676 313.394 48.9602 312.656 49.1136C313.138 49.1818 313.607 49.3523 314.062 49.625C314.522 49.8977 314.903 50.2727 315.204 50.75C315.505 51.2216 315.656 51.8011 315.656 52.4886C315.656 53.1591 315.485 53.7585 315.144 54.2869C314.803 54.8153 314.315 55.233 313.678 55.5398C313.042 55.8466 312.281 56 311.394 56H305.224ZM307.133 54.1591H311.394C312.087 54.1591 312.63 53.9943 313.022 53.6648C313.414 53.3352 313.61 52.8864 313.61 52.3182C313.61 51.642 313.414 51.1108 313.022 50.7244C312.63 50.3324 312.087 50.1364 311.394 50.1364H307.133V54.1591ZM307.133 48.3977H310.576C311.116 48.3977 311.579 48.3239 311.965 48.1761C312.352 48.0227 312.647 47.8068 312.852 47.5284C313.062 47.2443 313.167 46.9091 313.167 46.5227C313.167 45.9716 312.937 45.5398 312.477 45.2273C312.016 44.9091 311.383 44.75 310.576 44.75H307.133V48.3977ZM318.7 60.9091V42.9091H320.643V44.9886H320.882C321.03 44.7614 321.234 44.4716 321.496 44.1193C321.763 43.7614 322.143 43.4432 322.638 43.1648C323.138 42.8807 323.814 42.7386 324.666 42.7386C325.768 42.7386 326.74 43.0142 327.581 43.5653C328.422 44.1165 329.078 44.8977 329.55 45.9091C330.021 46.9205 330.257 48.1136 330.257 49.4886C330.257 50.875 330.021 52.0767 329.55 53.0938C329.078 54.1051 328.425 54.8892 327.589 55.446C326.754 55.9972 325.791 56.2727 324.7 56.2727C323.859 56.2727 323.186 56.1335 322.68 55.8551C322.175 55.571 321.786 55.25 321.513 54.892C321.24 54.5284 321.03 54.2273 320.882 53.9886H320.712V60.9091H318.7ZM320.678 49.4545C320.678 50.4432 320.822 51.3153 321.112 52.071C321.402 52.821 321.825 53.4091 322.382 53.8352C322.939 54.2557 323.621 54.4659 324.428 54.4659C325.268 54.4659 325.97 54.2443 326.533 53.8011C327.101 53.3523 327.527 52.75 327.811 51.9943C328.101 51.233 328.246 50.3864 328.246 49.4545C328.246 48.5341 328.104 47.7045 327.82 46.9659C327.541 46.2216 327.118 45.6335 326.55 45.2017C325.987 44.7642 325.28 44.5455 324.428 44.5455C323.609 44.5455 322.922 44.7528 322.365 45.1676C321.808 45.5767 321.388 46.1506 321.104 46.8892C320.82 47.6222 320.678 48.4773 320.678 49.4545ZM337.178 56.3068C336.348 56.3068 335.595 56.1506 334.919 55.8381C334.243 55.5199 333.706 55.0625 333.308 54.4659C332.911 53.8636 332.712 53.1364 332.712 52.2841C332.712 51.5341 332.859 50.9261 333.155 50.4602C333.45 49.9886 333.845 49.6193 334.339 49.3523C334.834 49.0852 335.379 48.8864 335.976 48.7557C336.578 48.6193 337.183 48.5114 337.791 48.4318C338.587 48.3295 339.232 48.2528 339.726 48.2017C340.226 48.1449 340.589 48.0511 340.817 47.9205C341.05 47.7898 341.166 47.5625 341.166 47.2386V47.1705C341.166 46.3295 340.936 45.6761 340.476 45.2102C340.021 44.7443 339.331 44.5114 338.405 44.5114C337.445 44.5114 336.692 44.7216 336.146 45.142C335.601 45.5625 335.217 46.0114 334.996 46.4886L333.087 45.8068C333.428 45.0114 333.882 44.392 334.45 43.9489C335.024 43.5 335.649 43.1875 336.325 43.0114C337.007 42.8295 337.678 42.7386 338.337 42.7386C338.757 42.7386 339.24 42.7898 339.786 42.892C340.337 42.9886 340.868 43.1903 341.379 43.4972C341.896 43.804 342.325 44.267 342.666 44.8864C343.007 45.5057 343.178 46.3352 343.178 47.375V56H341.166V54.2273H341.064C340.928 54.5114 340.7 54.8153 340.382 55.1392C340.064 55.4631 339.641 55.7386 339.112 55.9659C338.584 56.1932 337.939 56.3068 337.178 56.3068ZM337.484 54.5C338.28 54.5 338.95 54.3438 339.496 54.0312C340.047 53.7188 340.462 53.3153 340.74 52.821C341.024 52.3267 341.166 51.8068 341.166 51.2614V49.4205C341.081 49.5227 340.893 49.6165 340.604 49.7017C340.32 49.7812 339.99 49.8523 339.615 49.9148C339.246 49.9716 338.885 50.0227 338.533 50.0682C338.186 50.108 337.905 50.142 337.689 50.1705C337.166 50.2386 336.678 50.3494 336.223 50.5028C335.774 50.6506 335.411 50.875 335.132 51.1761C334.859 51.4716 334.723 51.875 334.723 52.3864C334.723 53.0852 334.982 53.6136 335.499 53.9716C336.021 54.3239 336.683 54.5 337.484 54.5ZM357.144 42.9091V54.125H358.985V60.2273H356.974V56H346.849V42.9091H348.86V54.125H355.133V42.9091H357.144ZM364.094 53.0341L370.401 42.9091H372.719V56H370.708V45.875L364.435 56H362.083V42.9091H364.094V53.0341ZM384.278 56V44.75H380.801C380.017 44.75 379.401 44.9318 378.952 45.2955C378.503 45.6591 378.278 46.1591 378.278 46.7955C378.278 47.4205 378.48 47.9119 378.884 48.2699C379.293 48.6278 379.852 48.8068 380.562 48.8068H384.79V50.6818H380.562C379.676 50.6818 378.912 50.5256 378.27 50.2131C377.628 49.9006 377.134 49.4545 376.787 48.875C376.44 48.2898 376.267 47.5966 376.267 46.7955C376.267 45.9886 376.449 45.2955 376.812 44.7159C377.176 44.1364 377.696 43.6903 378.372 43.3778C379.054 43.0653 379.864 42.9091 380.801 42.9091H386.188V56H384.278ZM375.551 56L379.267 49.4886H381.449L377.733 56H375.551ZM396.63 60.9091V42.9091H398.573V44.9886H398.812C398.96 44.7614 399.164 44.4716 399.425 44.1193C399.692 43.7614 400.073 43.4432 400.567 43.1648C401.067 42.8807 401.744 42.7386 402.596 42.7386C403.698 42.7386 404.67 43.0142 405.511 43.5653C406.352 44.1165 407.008 44.8977 407.479 45.9091C407.951 46.9205 408.187 48.1136 408.187 49.4886C408.187 50.875 407.951 52.0767 407.479 53.0938C407.008 54.1051 406.354 54.8892 405.519 55.446C404.684 55.9972 403.721 56.2727 402.63 56.2727C401.789 56.2727 401.116 56.1335 400.61 55.8551C400.104 55.571 399.715 55.25 399.442 54.892C399.17 54.5284 398.96 54.2273 398.812 53.9886H398.641V60.9091H396.63ZM398.607 49.4545C398.607 50.4432 398.752 51.3153 399.042 52.071C399.332 52.821 399.755 53.4091 400.312 53.8352C400.869 54.2557 401.55 54.4659 402.357 54.4659C403.198 54.4659 403.9 54.2443 404.462 53.8011C405.031 53.3523 405.457 52.75 405.741 51.9943C406.031 51.233 406.175 50.3864 406.175 49.4545C406.175 48.5341 406.033 47.7045 405.749 46.9659C405.471 46.2216 405.048 45.6335 404.479 45.2017C403.917 44.7642 403.21 44.5455 402.357 44.5455C401.539 44.5455 400.852 44.7528 400.295 45.1676C399.738 45.5767 399.317 46.1506 399.033 46.8892C398.749 47.6222 398.607 48.4773 398.607 49.4545ZM415.107 56.3068C414.278 56.3068 413.525 56.1506 412.849 55.8381C412.173 55.5199 411.636 55.0625 411.238 54.4659C410.84 53.8636 410.641 53.1364 410.641 52.2841C410.641 51.5341 410.789 50.9261 411.085 50.4602C411.38 49.9886 411.775 49.6193 412.269 49.3523C412.763 49.0852 413.309 48.8864 413.906 48.7557C414.508 48.6193 415.113 48.5114 415.721 48.4318C416.516 48.3295 417.161 48.2528 417.656 48.2017C418.156 48.1449 418.519 48.0511 418.746 47.9205C418.979 47.7898 419.096 47.5625 419.096 47.2386V47.1705C419.096 46.3295 418.866 45.6761 418.406 45.2102C417.951 44.7443 417.261 44.5114 416.335 44.5114C415.374 44.5114 414.621 44.7216 414.076 45.142C413.531 45.5625 413.147 46.0114 412.925 46.4886L411.016 45.8068C411.357 45.0114 411.812 44.392 412.38 43.9489C412.954 43.5 413.579 43.1875 414.255 43.0114C414.937 42.8295 415.607 42.7386 416.266 42.7386C416.687 42.7386 417.17 42.7898 417.715 42.892C418.266 42.9886 418.798 43.1903 419.309 43.4972C419.826 43.804 420.255 44.267 420.596 44.8864C420.937 45.5057 421.107 46.3352 421.107 47.375V56H419.096V54.2273H418.994C418.857 54.5114 418.63 54.8153 418.312 55.1392C417.994 55.4631 417.57 55.7386 417.042 55.9659C416.513 56.1932 415.869 56.3068 415.107 56.3068ZM415.414 54.5C416.21 54.5 416.88 54.3438 417.425 54.0312C417.977 53.7188 418.391 53.3153 418.67 52.821C418.954 52.3267 419.096 51.8068 419.096 51.2614V49.4205C419.011 49.5227 418.823 49.6165 418.533 49.7017C418.249 49.7812 417.92 49.8523 417.545 49.9148C417.175 49.9716 416.815 50.0227 416.462 50.0682C416.116 50.108 415.835 50.142 415.619 50.1705C415.096 50.2386 414.607 50.3494 414.153 50.5028C413.704 50.6506 413.34 50.875 413.062 51.1761C412.789 51.4716 412.653 51.875 412.653 52.3864C412.653 53.0852 412.911 53.6136 413.428 53.9716C413.951 54.3239 414.613 54.5 415.414 54.5ZM423.96 52.6591H426.108C426.153 53.25 426.42 53.6989 426.909 54.0057C427.403 54.3125 428.045 54.4659 428.835 54.4659C429.642 54.4659 430.332 54.3011 430.906 53.9716C431.48 53.6364 431.767 53.0966 431.767 52.3523C431.767 51.9148 431.659 51.5341 431.443 51.2102C431.227 50.8807 430.923 50.625 430.531 50.4432C430.139 50.2614 429.676 50.1705 429.142 50.1705H426.892V48.3636H429.142C429.943 48.3636 430.534 48.1818 430.915 47.8182C431.301 47.4545 431.494 47 431.494 46.4545C431.494 45.8693 431.287 45.4006 430.872 45.0483C430.457 44.6903 429.869 44.5114 429.108 44.5114C428.341 44.5114 427.702 44.6847 427.19 45.0312C426.679 45.3722 426.409 45.8125 426.381 46.3523H424.267C424.29 45.6477 424.506 45.0256 424.915 44.4858C425.324 43.9403 425.881 43.5142 426.585 43.2074C427.29 42.8949 428.097 42.7386 429.006 42.7386C429.926 42.7386 430.724 42.9006 431.401 43.2244C432.082 43.5426 432.608 43.9773 432.977 44.5284C433.352 45.0739 433.54 45.6932 433.54 46.3864C433.54 47.125 433.332 47.7216 432.918 48.1761C432.503 48.6307 431.983 48.9545 431.358 49.1477V49.2841C431.852 49.3182 432.281 49.4773 432.645 49.7614C433.014 50.0398 433.301 50.4062 433.506 50.8608C433.71 51.3097 433.812 51.8068 433.812 52.3523C433.812 53.1477 433.599 53.8409 433.173 54.4318C432.747 55.017 432.162 55.4716 431.418 55.7955C430.673 56.1136 429.824 56.2727 428.869 56.2727C427.943 56.2727 427.114 56.1222 426.381 55.821C425.648 55.5142 425.065 55.0909 424.634 54.5511C424.207 54.0057 423.983 53.375 423.96 52.6591ZM446.354 38L447.376 39.2273C446.979 39.6136 446.518 39.8835 445.996 40.0369C445.473 40.1903 444.882 40.2841 444.223 40.3182C443.564 40.3523 442.831 40.3864 442.024 40.4205C441.115 40.4545 440.362 40.6761 439.766 41.0852C439.169 41.4943 438.709 42.0852 438.385 42.858C438.061 43.6307 437.854 44.5795 437.763 45.7045H437.933C438.376 44.8864 438.99 44.2841 439.774 43.8977C440.558 43.5114 441.399 43.3182 442.297 43.3182C443.32 43.3182 444.24 43.5568 445.058 44.0341C445.876 44.5114 446.524 45.2188 447.001 46.1562C447.479 47.0938 447.717 48.25 447.717 49.625C447.717 50.9943 447.473 52.1761 446.984 53.1705C446.501 54.1648 445.822 54.9318 444.947 55.4716C444.078 56.0057 443.058 56.2727 441.888 56.2727C440.717 56.2727 439.692 55.9972 438.811 55.446C437.93 54.8892 437.246 54.0653 436.757 52.9744C436.268 51.8778 436.024 50.5227 436.024 48.9091V47.5114C436.024 44.5966 436.518 42.3864 437.507 40.8807C438.501 39.375 439.996 38.5966 441.99 38.5455C442.695 38.5227 443.322 38.517 443.874 38.5284C444.425 38.5398 444.905 38.5142 445.314 38.4517C445.723 38.3892 446.07 38.2386 446.354 38ZM441.888 54.4659C442.678 54.4659 443.357 54.267 443.925 53.8693C444.499 53.4716 444.939 52.9119 445.246 52.1903C445.553 51.4631 445.706 50.608 445.706 49.625C445.706 48.6705 445.55 47.858 445.237 47.1875C444.93 46.517 444.49 46.0057 443.916 45.6534C443.342 45.3011 442.655 45.125 441.854 45.125C441.268 45.125 440.743 45.2244 440.277 45.4233C439.811 45.6222 439.413 45.9148 439.084 46.3011C438.754 46.6875 438.499 47.1591 438.317 47.7159C438.141 48.2727 438.047 48.9091 438.036 49.625C438.036 51.0909 438.379 52.2642 439.067 53.1449C439.754 54.0256 440.695 54.4659 441.888 54.4659ZM452.805 53.0341L459.112 42.9091H461.43V56H459.419V45.875L453.146 56H450.794V42.9091H452.805V53.0341ZM463.333 44.7841V42.9091H473.969V44.7841H469.674V56H467.663V44.7841H463.333ZM478.642 47.6477H482.392C483.926 47.6477 485.099 48.0369 485.912 48.8153C486.724 49.5937 487.131 50.5795 487.131 51.7727C487.131 52.5568 486.949 53.2699 486.585 53.9119C486.222 54.5483 485.688 55.0568 484.983 55.4375C484.278 55.8125 483.415 56 482.392 56H476.903V42.9091H478.915V54.125H482.392C483.188 54.125 483.841 53.9148 484.352 53.4943C484.864 53.0739 485.119 52.5341 485.119 51.875C485.119 51.1818 484.864 50.6165 484.352 50.179C483.841 49.7415 483.188 49.5227 482.392 49.5227H478.642V47.6477ZM489.21 56V42.9091H491.222V56H489.21ZM496.403 42.9091L499.54 48.2614L502.676 42.9091H504.994L500.767 49.4545L504.994 56H502.676L499.54 50.9205L496.403 56H494.085L498.244 49.4545L494.085 42.9091H496.403ZM519.933 56.2727C518.705 56.2727 517.648 55.983 516.762 55.4034C515.876 54.8239 515.194 54.0256 514.717 53.0085C514.239 51.9915 514.001 50.8295 514.001 49.5227C514.001 48.1932 514.245 47.0199 514.734 46.0028C515.228 44.9801 515.915 44.1818 516.796 43.608C517.683 43.0284 518.717 42.7386 519.898 42.7386C520.819 42.7386 521.648 42.9091 522.387 43.25C523.126 43.5909 523.731 44.0682 524.202 44.6818C524.674 45.2955 524.967 46.0114 525.08 46.8295H523.069C522.915 46.233 522.575 45.7045 522.046 45.2443C521.523 44.7784 520.819 44.5455 519.933 44.5455C519.148 44.5455 518.461 44.75 517.87 45.1591C517.285 45.5625 516.827 46.1335 516.498 46.8722C516.174 47.6051 516.012 48.4659 516.012 49.4545C516.012 50.4659 516.171 51.3466 516.489 52.0966C516.813 52.8466 517.268 53.429 517.853 53.8438C518.444 54.2585 519.137 54.4659 519.933 54.4659C520.455 54.4659 520.93 54.375 521.356 54.1932C521.782 54.0114 522.143 53.75 522.438 53.4091C522.734 53.0682 522.944 52.6591 523.069 52.1818H525.08C524.967 52.9545 524.685 53.6506 524.237 54.2699C523.793 54.8835 523.205 55.3722 522.472 55.7358C521.745 56.0938 520.898 56.2727 519.933 56.2727ZM533.509 56.2727C532.248 56.2727 531.16 55.9943 530.245 55.4375C529.336 54.875 528.634 54.0909 528.14 53.0852C527.651 52.0739 527.407 50.8977 527.407 49.5568C527.407 48.2159 527.651 47.0341 528.14 46.0114C528.634 44.983 529.322 44.1818 530.202 43.608C531.089 43.0284 532.123 42.7386 533.305 42.7386C533.987 42.7386 534.66 42.8523 535.325 43.0795C535.989 43.3068 536.594 43.6761 537.14 44.1875C537.685 44.6932 538.12 45.3636 538.444 46.1989C538.768 47.0341 538.93 48.0625 538.93 49.2841V50.1364H528.839V48.3977H536.884C536.884 47.6591 536.737 47 536.441 46.4205C536.151 45.8409 535.737 45.3835 535.197 45.0483C534.663 44.7131 534.032 44.5455 533.305 44.5455C532.504 44.5455 531.81 44.7443 531.225 45.142C530.646 45.5341 530.2 46.0455 529.887 46.6761C529.575 47.3068 529.418 47.983 529.418 48.7045V49.8636C529.418 50.8523 529.589 51.6903 529.93 52.3778C530.276 53.0597 530.756 53.5795 531.37 53.9375C531.984 54.2898 532.697 54.4659 533.509 54.4659C534.038 54.4659 534.515 54.392 534.941 54.2443C535.373 54.0909 535.745 53.8636 536.058 53.5625C536.37 53.2557 536.612 52.875 536.782 52.4205L538.725 52.9659C538.521 53.625 538.177 54.2045 537.694 54.7045C537.211 55.1989 536.614 55.5852 535.904 55.8636C535.194 56.1364 534.396 56.2727 533.509 56.2727ZM541.989 60.9091V42.9091H543.933V44.9886H544.171C544.319 44.7614 544.523 44.4716 544.785 44.1193C545.052 43.7614 545.433 43.4432 545.927 43.1648C546.427 42.8807 547.103 42.7386 547.955 42.7386C549.058 42.7386 550.029 43.0142 550.87 43.5653C551.711 44.1165 552.367 44.8977 552.839 45.9091C553.31 46.9205 553.546 48.1136 553.546 49.4886C553.546 50.875 553.31 52.0767 552.839 53.0938C552.367 54.1051 551.714 54.8892 550.879 55.446C550.043 55.9972 549.08 56.2727 547.989 56.2727C547.148 56.2727 546.475 56.1335 545.969 55.8551C545.464 55.571 545.075 55.25 544.802 54.892C544.529 54.5284 544.319 54.2273 544.171 53.9886H544.001V60.9091H541.989ZM543.967 49.4545C543.967 50.4432 544.112 51.3153 544.401 52.071C544.691 52.821 545.114 53.4091 545.671 53.8352C546.228 54.2557 546.91 54.4659 547.717 54.4659C548.558 54.4659 549.259 54.2443 549.822 53.8011C550.39 53.3523 550.816 52.75 551.1 51.9943C551.39 51.233 551.535 50.3864 551.535 49.4545C551.535 48.5341 551.393 47.7045 551.109 46.9659C550.83 46.2216 550.407 45.6335 549.839 45.2017C549.276 44.7642 548.569 44.5455 547.717 44.5455C546.898 44.5455 546.211 44.7528 545.654 45.1676C545.097 45.5767 544.677 46.1506 544.393 46.8892C544.109 47.6222 543.967 48.4773 543.967 49.4545ZM555.217 59.75V54.125H556.308C556.575 53.8466 556.805 53.5455 556.998 53.2216C557.191 52.8977 557.359 52.5142 557.501 52.071C557.648 51.6222 557.773 51.0767 557.876 50.4347C557.978 49.7869 558.069 49.0057 558.148 48.0909L558.592 42.9091H566.91V54.125H568.921V59.75H566.91V56H557.228V59.75H555.217ZM558.592 54.125H564.898V44.7841H560.467L560.126 48.0909C559.984 49.4602 559.808 50.6562 559.597 51.679C559.387 52.7017 559.052 53.517 558.592 54.125ZM577.08 56.2727C575.818 56.2727 574.73 55.9943 573.815 55.4375C572.906 54.875 572.205 54.0909 571.71 53.0852C571.222 52.0739 570.977 50.8977 570.977 49.5568C570.977 48.2159 571.222 47.0341 571.71 46.0114C572.205 44.983 572.892 44.1818 573.773 43.608C574.659 43.0284 575.693 42.7386 576.875 42.7386C577.557 42.7386 578.23 42.8523 578.895 43.0795C579.56 43.3068 580.165 43.6761 580.71 44.1875C581.256 44.6932 581.69 45.3636 582.014 46.1989C582.338 47.0341 582.5 48.0625 582.5 49.2841V50.1364H572.409V48.3977H580.455C580.455 47.6591 580.307 47 580.011 46.4205C579.722 45.8409 579.307 45.3835 578.767 45.0483C578.233 44.7131 577.602 44.5455 576.875 44.5455C576.074 44.5455 575.381 44.7443 574.795 45.142C574.216 45.5341 573.77 46.0455 573.457 46.6761C573.145 47.3068 572.989 47.983 572.989 48.7045V49.8636C572.989 50.8523 573.159 51.6903 573.5 52.3778C573.847 53.0597 574.327 53.5795 574.94 53.9375C575.554 54.2898 576.267 54.4659 577.08 54.4659C577.608 54.4659 578.085 54.392 578.511 54.2443C578.943 54.0909 579.315 53.8636 579.628 53.5625C579.94 53.2557 580.182 52.875 580.352 52.4205L582.295 52.9659C582.091 53.625 581.747 54.2045 581.264 54.7045C580.781 55.1989 580.185 55.5852 579.474 55.8636C578.764 56.1364 577.966 56.2727 577.08 56.2727ZM595.855 42.9091V54.125H597.696V60.2273H595.685V56H585.56V42.9091H587.571V54.125H593.844V42.9091H595.855Z" fill="white"/>
<rect y="65" width="422" height="40" fill="#1D1C22"/>
<path d="M35.8409 86.9091V68.9091H37.7841V70.9886H38.0227C38.1705 70.7614 38.375 70.4716 38.6364 70.1193C38.9034 69.7614 39.2841 69.4432 39.7784 69.1648C40.2784 68.8807 40.9545 68.7386 41.8068 68.7386C42.9091 68.7386 43.8807 69.0142 44.7216 69.5653C45.5625 70.1165 46.2188 70.8977 46.6903 71.9091C47.1619 72.9205 47.3977 74.1136 47.3977 75.4886C47.3977 76.875 47.1619 78.0767 46.6903 79.0938C46.2188 80.1051 45.5653 80.8892 44.7301 81.446C43.8949 81.9972 42.9318 82.2727 41.8409 82.2727C41 82.2727 40.3267 82.1335 39.821 81.8551C39.3153 81.571 38.9261 81.25 38.6534 80.892C38.3807 80.5284 38.1705 80.2273 38.0227 79.9886H37.8523V86.9091H35.8409ZM37.8182 75.4545C37.8182 76.4432 37.9631 77.3153 38.2528 78.071C38.5426 78.821 38.9659 79.4091 39.5227 79.8352C40.0795 80.2557 40.7614 80.4659 41.5682 80.4659C42.4091 80.4659 43.1108 80.2443 43.6733 79.8011C44.2415 79.3523 44.6676 78.75 44.9517 77.9943C45.2415 77.233 45.3864 76.3864 45.3864 75.4545C45.3864 74.5341 45.2443 73.7045 44.9602 72.9659C44.6818 72.2216 44.2585 71.6335 43.6903 71.2017C43.1278 70.7642 42.4205 70.5455 41.5682 70.5455C40.75 70.5455 40.0625 70.7528 39.5057 71.1676C38.9489 71.5767 38.5284 72.1506 38.2443 72.8892C37.9602 73.6222 37.8182 74.4773 37.8182 75.4545ZM55.9545 82.2727C54.6932 82.2727 53.6051 81.9943 52.6903 81.4375C51.7812 80.875 51.0795 80.0909 50.5852 79.0852C50.0966 78.0739 49.8523 76.8977 49.8523 75.5568C49.8523 74.2159 50.0966 73.0341 50.5852 72.0114C51.0795 70.983 51.767 70.1818 52.6477 69.608C53.5341 69.0284 54.5682 68.7386 55.75 68.7386C56.4318 68.7386 57.1051 68.8523 57.7699 69.0795C58.4347 69.3068 59.0398 69.6761 59.5852 70.1875C60.1307 70.6932 60.5653 71.3636 60.8892 72.1989C61.2131 73.0341 61.375 74.0625 61.375 75.2841V76.1364H51.2841V74.3977H59.3295C59.3295 73.6591 59.1818 73 58.8864 72.4205C58.5966 71.8409 58.1818 71.3835 57.642 71.0483C57.108 70.7131 56.4773 70.5455 55.75 70.5455C54.9489 70.5455 54.2557 70.7443 53.6705 71.142C53.0909 71.5341 52.6449 72.0455 52.3324 72.6761C52.0199 73.3068 51.8636 73.983 51.8636 74.7045V75.8636C51.8636 76.8523 52.0341 77.6903 52.375 78.3778C52.7216 79.0597 53.2017 79.5795 53.8153 79.9375C54.429 80.2898 55.142 80.4659 55.9545 80.4659C56.483 80.4659 56.9602 80.392 57.3864 80.2443C57.8182 80.0909 58.1903 79.8636 58.5028 79.5625C58.8153 79.2557 59.0568 78.875 59.2273 78.4205L61.1705 78.9659C60.9659 79.625 60.6222 80.2045 60.1392 80.7045C59.6563 81.1989 59.0597 81.5852 58.3494 81.8636C57.6392 82.1364 56.8409 82.2727 55.9545 82.2727ZM69.7528 82.2727C68.5256 82.2727 67.4688 81.983 66.5824 81.4034C65.696 80.8239 65.0142 80.0256 64.5369 79.0085C64.0597 77.9915 63.821 76.8295 63.821 75.5227C63.821 74.1932 64.0653 73.0199 64.554 72.0028C65.0483 70.9801 65.7358 70.1818 66.6165 69.608C67.5028 69.0284 68.5369 68.7386 69.7188 68.7386C70.6392 68.7386 71.4688 68.9091 72.2074 69.25C72.946 69.5909 73.5511 70.0682 74.0227 70.6818C74.4943 71.2955 74.7869 72.0114 74.9006 72.8295H72.8892C72.7358 72.233 72.3949 71.7045 71.8665 71.2443C71.3438 70.7784 70.6392 70.5455 69.7528 70.5455C68.9688 70.5455 68.2813 70.75 67.6903 71.1591C67.1051 71.5625 66.6477 72.1335 66.3182 72.8722C65.9943 73.6051 65.8324 74.4659 65.8324 75.4545C65.8324 76.4659 65.9915 77.3466 66.3097 78.0966C66.6335 78.8466 67.0881 79.429 67.6733 79.8438C68.2642 80.2585 68.9574 80.4659 69.7528 80.4659C70.2756 80.4659 70.75 80.375 71.1761 80.1932C71.6023 80.0114 71.9631 79.75 72.2585 79.4091C72.554 79.0682 72.7642 78.6591 72.8892 78.1818H74.9006C74.7869 78.9545 74.5057 79.6506 74.0568 80.2699C73.6136 80.8835 73.0256 81.3722 72.2926 81.7358C71.5653 82.0938 70.7188 82.2727 69.7528 82.2727ZM76.8097 70.7841V68.9091H87.446V70.7841H83.1506V82H81.1392V70.7841H76.8097ZM93.5526 82.3068C92.723 82.3068 91.9702 82.1506 91.294 81.8381C90.6179 81.5199 90.081 81.0625 89.6832 80.4659C89.2855 79.8636 89.0866 79.1364 89.0866 78.2841C89.0866 77.5341 89.2344 76.9261 89.5298 76.4602C89.8253 75.9886 90.2202 75.6193 90.7145 75.3523C91.2088 75.0852 91.7543 74.8864 92.3509 74.7557C92.9531 74.6193 93.5582 74.5114 94.1662 74.4318C94.9616 74.3295 95.6065 74.2528 96.1009 74.2017C96.6009 74.1449 96.9645 74.0511 97.1918 73.9205C97.4247 73.7898 97.5412 73.5625 97.5412 73.2386V73.1705C97.5412 72.3295 97.3111 71.6761 96.8509 71.2102C96.3963 70.7443 95.706 70.5114 94.7798 70.5114C93.8196 70.5114 93.0668 70.7216 92.5213 71.142C91.9759 71.5625 91.5923 72.0114 91.3707 72.4886L89.4616 71.8068C89.8026 71.0114 90.2571 70.392 90.8253 69.9489C91.3991 69.5 92.0241 69.1875 92.7003 69.0114C93.3821 68.8295 94.0526 68.7386 94.7116 68.7386C95.1321 68.7386 95.6151 68.7898 96.1605 68.892C96.7116 68.9886 97.2429 69.1903 97.7543 69.4972C98.2713 69.804 98.7003 70.267 99.0412 70.8864C99.3821 71.5057 99.5526 72.3352 99.5526 73.375V82H97.5412V80.2273H97.4389C97.3026 80.5114 97.0753 80.8153 96.7571 81.1392C96.4389 81.4631 96.0156 81.7386 95.4872 81.9659C94.9588 82.1932 94.3139 82.3068 93.5526 82.3068ZM93.8594 80.5C94.6548 80.5 95.3253 80.3438 95.8707 80.0312C96.4219 79.7188 96.8366 79.3153 97.1151 78.821C97.3991 78.3267 97.5412 77.8068 97.5412 77.2614V75.4205C97.456 75.5227 97.2685 75.6165 96.9787 75.7017C96.6946 75.7812 96.3651 75.8523 95.9901 75.9148C95.6207 75.9716 95.2599 76.0227 94.9077 76.0682C94.5611 76.108 94.2798 76.142 94.0639 76.1705C93.5412 76.2386 93.0526 76.3494 92.598 76.5028C92.1491 76.6506 91.7855 76.875 91.5071 77.1761C91.2344 77.4716 91.098 77.875 91.098 78.3864C91.098 79.0852 91.3565 79.6136 91.8736 79.9716C92.3963 80.3239 93.0582 80.5 93.8594 80.5ZM103.224 82V68.9091H108.576C109.985 68.9091 111.104 69.2273 111.934 69.8636C112.763 70.5 113.178 71.3409 113.178 72.3864C113.178 73.1818 112.942 73.7983 112.471 74.2358C111.999 74.6676 111.394 74.9602 110.656 75.1136C111.138 75.1818 111.607 75.3523 112.062 75.625C112.522 75.8977 112.903 76.2727 113.204 76.75C113.505 77.2216 113.656 77.8011 113.656 78.4886C113.656 79.1591 113.485 79.7585 113.144 80.2869C112.803 80.8153 112.315 81.233 111.678 81.5398C111.042 81.8466 110.281 82 109.394 82H103.224ZM105.133 80.1591H109.394C110.087 80.1591 110.63 79.9943 111.022 79.6648C111.414 79.3352 111.61 78.8864 111.61 78.3182C111.61 77.642 111.414 77.1108 111.022 76.7244C110.63 76.3324 110.087 76.1364 109.394 76.1364H105.133V80.1591ZM105.133 74.3977H108.576C109.116 74.3977 109.579 74.3239 109.965 74.1761C110.352 74.0227 110.647 73.8068 110.852 73.5284C111.062 73.2443 111.167 72.9091 111.167 72.5227C111.167 71.9716 110.937 71.5398 110.477 71.2273C110.016 70.9091 109.383 70.75 108.576 70.75H105.133V74.3977ZM116.7 86.9091V68.9091H118.643V70.9886H118.882C119.03 70.7614 119.234 70.4716 119.496 70.1193C119.763 69.7614 120.143 69.4432 120.638 69.1648C121.138 68.8807 121.814 68.7386 122.666 68.7386C123.768 68.7386 124.74 69.0142 125.581 69.5653C126.422 70.1165 127.078 70.8977 127.55 71.9091C128.021 72.9205 128.257 74.1136 128.257 75.4886C128.257 76.875 128.021 78.0767 127.55 79.0938C127.078 80.1051 126.425 80.8892 125.589 81.446C124.754 81.9972 123.791 82.2727 122.7 82.2727C121.859 82.2727 121.186 82.1335 120.68 81.8551C120.175 81.571 119.786 81.25 119.513 80.892C119.24 80.5284 119.03 80.2273 118.882 79.9886H118.712V86.9091H116.7ZM118.678 75.4545C118.678 76.4432 118.822 77.3153 119.112 78.071C119.402 78.821 119.825 79.4091 120.382 79.8352C120.939 80.2557 121.621 80.4659 122.428 80.4659C123.268 80.4659 123.97 80.2443 124.533 79.8011C125.101 79.3523 125.527 78.75 125.811 77.9943C126.101 77.233 126.246 76.3864 126.246 75.4545C126.246 74.5341 126.104 73.7045 125.82 72.9659C125.541 72.2216 125.118 71.6335 124.55 71.2017C123.987 70.7642 123.28 70.5455 122.428 70.5455C121.609 70.5455 120.922 70.7528 120.365 71.1676C119.808 71.5767 119.388 72.1506 119.104 72.8892C118.82 73.6222 118.678 74.4773 118.678 75.4545ZM135.178 82.3068C134.348 82.3068 133.595 82.1506 132.919 81.8381C132.243 81.5199 131.706 81.0625 131.308 80.4659C130.911 79.8636 130.712 79.1364 130.712 78.2841C130.712 77.5341 130.859 76.9261 131.155 76.4602C131.45 75.9886 131.845 75.6193 132.339 75.3523C132.834 75.0852 133.379 74.8864 133.976 74.7557C134.578 74.6193 135.183 74.5114 135.791 74.4318C136.587 74.3295 137.232 74.2528 137.726 74.2017C138.226 74.1449 138.589 74.0511 138.817 73.9205C139.05 73.7898 139.166 73.5625 139.166 73.2386V73.1705C139.166 72.3295 138.936 71.6761 138.476 71.2102C138.021 70.7443 137.331 70.5114 136.405 70.5114C135.445 70.5114 134.692 70.7216 134.146 71.142C133.601 71.5625 133.217 72.0114 132.996 72.4886L131.087 71.8068C131.428 71.0114 131.882 70.392 132.45 69.9489C133.024 69.5 133.649 69.1875 134.325 69.0114C135.007 68.8295 135.678 68.7386 136.337 68.7386C136.757 68.7386 137.24 68.7898 137.786 68.892C138.337 68.9886 138.868 69.1903 139.379 69.4972C139.896 69.804 140.325 70.267 140.666 70.8864C141.007 71.5057 141.178 72.3352 141.178 73.375V82H139.166V80.2273H139.064C138.928 80.5114 138.7 80.8153 138.382 81.1392C138.064 81.4631 137.641 81.7386 137.112 81.9659C136.584 82.1932 135.939 82.3068 135.178 82.3068ZM135.484 80.5C136.28 80.5 136.95 80.3438 137.496 80.0312C138.047 79.7188 138.462 79.3153 138.74 78.821C139.024 78.3267 139.166 77.8068 139.166 77.2614V75.4205C139.081 75.5227 138.893 75.6165 138.604 75.7017C138.32 75.7812 137.99 75.8523 137.615 75.9148C137.246 75.9716 136.885 76.0227 136.533 76.0682C136.186 76.108 135.905 76.142 135.689 76.1705C135.166 76.2386 134.678 76.3494 134.223 76.5028C133.774 76.6506 133.411 76.875 133.132 77.1761C132.859 77.4716 132.723 77.875 132.723 78.3864C132.723 79.0852 132.982 79.6136 133.499 79.9716C134.021 80.3239 134.683 80.5 135.484 80.5ZM155.144 68.9091V80.125H156.985V86.2273H154.974V82H144.849V68.9091H146.86V80.125H153.133V68.9091H155.144ZM162.094 79.0341L168.401 68.9091H170.719V82H168.708V71.875L162.435 82H160.083V68.9091H162.094V79.0341ZM182.278 82V70.75H178.801C178.017 70.75 177.401 70.9318 176.952 71.2955C176.503 71.6591 176.278 72.1591 176.278 72.7955C176.278 73.4205 176.48 73.9119 176.884 74.2699C177.293 74.6278 177.852 74.8068 178.562 74.8068H182.79V76.6818H178.562C177.676 76.6818 176.912 76.5256 176.27 76.2131C175.628 75.9006 175.134 75.4545 174.787 74.875C174.44 74.2898 174.267 73.5966 174.267 72.7955C174.267 71.9886 174.449 71.2955 174.812 70.7159C175.176 70.1364 175.696 69.6903 176.372 69.3778C177.054 69.0653 177.864 68.9091 178.801 68.9091H184.188V82H182.278ZM173.551 82L177.267 75.4886H179.449L175.733 82H173.551ZM194.63 86.9091V68.9091H196.573V70.9886H196.812C196.96 70.7614 197.164 70.4716 197.425 70.1193C197.692 69.7614 198.073 69.4432 198.567 69.1648C199.067 68.8807 199.744 68.7386 200.596 68.7386C201.698 68.7386 202.67 69.0142 203.511 69.5653C204.352 70.1165 205.008 70.8977 205.479 71.9091C205.951 72.9205 206.187 74.1136 206.187 75.4886C206.187 76.875 205.951 78.0767 205.479 79.0938C205.008 80.1051 204.354 80.8892 203.519 81.446C202.684 81.9972 201.721 82.2727 200.63 82.2727C199.789 82.2727 199.116 82.1335 198.61 81.8551C198.104 81.571 197.715 81.25 197.442 80.892C197.17 80.5284 196.96 80.2273 196.812 79.9886H196.641V86.9091H194.63ZM196.607 75.4545C196.607 76.4432 196.752 77.3153 197.042 78.071C197.332 78.821 197.755 79.4091 198.312 79.8352C198.869 80.2557 199.55 80.4659 200.357 80.4659C201.198 80.4659 201.9 80.2443 202.462 79.8011C203.031 79.3523 203.457 78.75 203.741 77.9943C204.031 77.233 204.175 76.3864 204.175 75.4545C204.175 74.5341 204.033 73.7045 203.749 72.9659C203.471 72.2216 203.048 71.6335 202.479 71.2017C201.917 70.7642 201.21 70.5455 200.357 70.5455C199.539 70.5455 198.852 70.7528 198.295 71.1676C197.738 71.5767 197.317 72.1506 197.033 72.8892C196.749 73.6222 196.607 74.4773 196.607 75.4545ZM213.107 82.3068C212.278 82.3068 211.525 82.1506 210.849 81.8381C210.173 81.5199 209.636 81.0625 209.238 80.4659C208.84 79.8636 208.641 79.1364 208.641 78.2841C208.641 77.5341 208.789 76.9261 209.085 76.4602C209.38 75.9886 209.775 75.6193 210.269 75.3523C210.763 75.0852 211.309 74.8864 211.906 74.7557C212.508 74.6193 213.113 74.5114 213.721 74.4318C214.516 74.3295 215.161 74.2528 215.656 74.2017C216.156 74.1449 216.519 74.0511 216.746 73.9205C216.979 73.7898 217.096 73.5625 217.096 73.2386V73.1705C217.096 72.3295 216.866 71.6761 216.406 71.2102C215.951 70.7443 215.261 70.5114 214.335 70.5114C213.374 70.5114 212.621 70.7216 212.076 71.142C211.531 71.5625 211.147 72.0114 210.925 72.4886L209.016 71.8068C209.357 71.0114 209.812 70.392 210.38 69.9489C210.954 69.5 211.579 69.1875 212.255 69.0114C212.937 68.8295 213.607 68.7386 214.266 68.7386C214.687 68.7386 215.17 68.7898 215.715 68.892C216.266 68.9886 216.798 69.1903 217.309 69.4972C217.826 69.804 218.255 70.267 218.596 70.8864C218.937 71.5057 219.107 72.3352 219.107 73.375V82H217.096V80.2273H216.994C216.857 80.5114 216.63 80.8153 216.312 81.1392C215.994 81.4631 215.57 81.7386 215.042 81.9659C214.513 82.1932 213.869 82.3068 213.107 82.3068ZM213.414 80.5C214.21 80.5 214.88 80.3438 215.425 80.0312C215.977 79.7188 216.391 79.3153 216.67 78.821C216.954 78.3267 217.096 77.8068 217.096 77.2614V75.4205C217.011 75.5227 216.823 75.6165 216.533 75.7017C216.249 75.7812 215.92 75.8523 215.545 75.9148C215.175 75.9716 214.815 76.0227 214.462 76.0682C214.116 76.108 213.835 76.142 213.619 76.1705C213.096 76.2386 212.607 76.3494 212.153 76.5028C211.704 76.6506 211.34 76.875 211.062 77.1761C210.789 77.4716 210.653 77.875 210.653 78.3864C210.653 79.0852 210.911 79.6136 211.428 79.9716C211.951 80.3239 212.613 80.5 213.414 80.5ZM221.96 78.6591H224.108C224.153 79.25 224.42 79.6989 224.909 80.0057C225.403 80.3125 226.045 80.4659 226.835 80.4659C227.642 80.4659 228.332 80.3011 228.906 79.9716C229.48 79.6364 229.767 79.0966 229.767 78.3523C229.767 77.9148 229.659 77.5341 229.443 77.2102C229.227 76.8807 228.923 76.625 228.531 76.4432C228.139 76.2614 227.676 76.1705 227.142 76.1705H224.892V74.3636H227.142C227.943 74.3636 228.534 74.1818 228.915 73.8182C229.301 73.4545 229.494 73 229.494 72.4545C229.494 71.8693 229.287 71.4006 228.872 71.0483C228.457 70.6903 227.869 70.5114 227.108 70.5114C226.341 70.5114 225.702 70.6847 225.19 71.0312C224.679 71.3722 224.409 71.8125 224.381 72.3523H222.267C222.29 71.6477 222.506 71.0256 222.915 70.4858C223.324 69.9403 223.881 69.5142 224.585 69.2074C225.29 68.8949 226.097 68.7386 227.006 68.7386C227.926 68.7386 228.724 68.9006 229.401 69.2244C230.082 69.5426 230.608 69.9773 230.977 70.5284C231.352 71.0739 231.54 71.6932 231.54 72.3864C231.54 73.125 231.332 73.7216 230.918 74.1761C230.503 74.6307 229.983 74.9545 229.358 75.1477V75.2841C229.852 75.3182 230.281 75.4773 230.645 75.7614C231.014 76.0398 231.301 76.4062 231.506 76.8608C231.71 77.3097 231.812 77.8068 231.812 78.3523C231.812 79.1477 231.599 79.8409 231.173 80.4318C230.747 81.017 230.162 81.4716 229.418 81.7955C228.673 82.1136 227.824 82.2727 226.869 82.2727C225.943 82.2727 225.114 82.1222 224.381 81.821C223.648 81.5142 223.065 81.0909 222.634 80.5511C222.207 80.0057 221.983 79.375 221.96 78.6591ZM244.354 64L245.376 65.2273C244.979 65.6136 244.518 65.8835 243.996 66.0369C243.473 66.1903 242.882 66.2841 242.223 66.3182C241.564 66.3523 240.831 66.3864 240.024 66.4205C239.115 66.4545 238.362 66.6761 237.766 67.0852C237.169 67.4943 236.709 68.0852 236.385 68.858C236.061 69.6307 235.854 70.5795 235.763 71.7045H235.933C236.376 70.8864 236.99 70.2841 237.774 69.8977C238.558 69.5114 239.399 69.3182 240.297 69.3182C241.32 69.3182 242.24 69.5568 243.058 70.0341C243.876 70.5114 244.524 71.2188 245.001 72.1562C245.479 73.0938 245.717 74.25 245.717 75.625C245.717 76.9943 245.473 78.1761 244.984 79.1705C244.501 80.1648 243.822 80.9318 242.947 81.4716C242.078 82.0057 241.058 82.2727 239.888 82.2727C238.717 82.2727 237.692 81.9972 236.811 81.446C235.93 80.8892 235.246 80.0653 234.757 78.9744C234.268 77.8778 234.024 76.5227 234.024 74.9091V73.5114C234.024 70.5966 234.518 68.3864 235.507 66.8807C236.501 65.375 237.996 64.5966 239.99 64.5455C240.695 64.5227 241.322 64.517 241.874 64.5284C242.425 64.5398 242.905 64.5142 243.314 64.4517C243.723 64.3892 244.07 64.2386 244.354 64ZM239.888 80.4659C240.678 80.4659 241.357 80.267 241.925 79.8693C242.499 79.4716 242.939 78.9119 243.246 78.1903C243.553 77.4631 243.706 76.608 243.706 75.625C243.706 74.6705 243.55 73.858 243.237 73.1875C242.93 72.517 242.49 72.0057 241.916 71.6534C241.342 71.3011 240.655 71.125 239.854 71.125C239.268 71.125 238.743 71.2244 238.277 71.4233C237.811 71.6222 237.413 71.9148 237.084 72.3011C236.754 72.6875 236.499 73.1591 236.317 73.7159C236.141 74.2727 236.047 74.9091 236.036 75.625C236.036 77.0909 236.379 78.2642 237.067 79.1449C237.754 80.0256 238.695 80.4659 239.888 80.4659ZM250.805 79.0341L257.112 68.9091H259.43V82H257.419V71.875L251.146 82H248.794V68.9091H250.805V79.0341ZM261.333 70.7841V68.9091H271.969V70.7841H267.674V82H265.663V70.7841H261.333ZM276.642 73.6477H280.392C281.926 73.6477 283.099 74.0369 283.912 74.8153C284.724 75.5937 285.131 76.5795 285.131 77.7727C285.131 78.5568 284.949 79.2699 284.585 79.9119C284.222 80.5483 283.688 81.0568 282.983 81.4375C282.278 81.8125 281.415 82 280.392 82H274.903V68.9091H276.915V80.125H280.392C281.188 80.125 281.841 79.9148 282.352 79.4943C282.864 79.0739 283.119 78.5341 283.119 77.875C283.119 77.1818 282.864 76.6165 282.352 76.179C281.841 75.7415 281.188 75.5227 280.392 75.5227H276.642V73.6477ZM287.21 82V68.9091H289.222V82H287.21ZM294.403 68.9091L297.54 74.2614L300.676 68.9091H302.994L298.767 75.4545L302.994 82H300.676L297.54 76.9205L294.403 82H292.085L296.244 75.4545L292.085 68.9091H294.403ZM317.933 82.2727C316.705 82.2727 315.648 81.983 314.762 81.4034C313.876 80.8239 313.194 80.0256 312.717 79.0085C312.239 77.9915 312.001 76.8295 312.001 75.5227C312.001 74.1932 312.245 73.0199 312.734 72.0028C313.228 70.9801 313.915 70.1818 314.796 69.608C315.683 69.0284 316.717 68.7386 317.898 68.7386C318.819 68.7386 319.648 68.9091 320.387 69.25C321.126 69.5909 321.731 70.0682 322.202 70.6818C322.674 71.2955 322.967 72.0114 323.08 72.8295H321.069C320.915 72.233 320.575 71.7045 320.046 71.2443C319.523 70.7784 318.819 70.5455 317.933 70.5455C317.148 70.5455 316.461 70.75 315.87 71.1591C315.285 71.5625 314.827 72.1335 314.498 72.8722C314.174 73.6051 314.012 74.4659 314.012 75.4545C314.012 76.4659 314.171 77.3466 314.489 78.0966C314.813 78.8466 315.268 79.429 315.853 79.8438C316.444 80.2585 317.137 80.4659 317.933 80.4659C318.455 80.4659 318.93 80.375 319.356 80.1932C319.782 80.0114 320.143 79.75 320.438 79.4091C320.734 79.0682 320.944 78.6591 321.069 78.1818H323.08C322.967 78.9545 322.685 79.6506 322.237 80.2699C321.793 80.8835 321.205 81.3722 320.472 81.7358C319.745 82.0938 318.898 82.2727 317.933 82.2727ZM331.509 82.2727C330.248 82.2727 329.16 81.9943 328.245 81.4375C327.336 80.875 326.634 80.0909 326.14 79.0852C325.651 78.0739 325.407 76.8977 325.407 75.5568C325.407 74.2159 325.651 73.0341 326.14 72.0114C326.634 70.983 327.322 70.1818 328.202 69.608C329.089 69.0284 330.123 68.7386 331.305 68.7386C331.987 68.7386 332.66 68.8523 333.325 69.0795C333.989 69.3068 334.594 69.6761 335.14 70.1875C335.685 70.6932 336.12 71.3636 336.444 72.1989C336.768 73.0341 336.93 74.0625 336.93 75.2841V76.1364H326.839V74.3977H334.884C334.884 73.6591 334.737 73 334.441 72.4205C334.151 71.8409 333.737 71.3835 333.197 71.0483C332.663 70.7131 332.032 70.5455 331.305 70.5455C330.504 70.5455 329.81 70.7443 329.225 71.142C328.646 71.5341 328.2 72.0455 327.887 72.6761C327.575 73.3068 327.418 73.983 327.418 74.7045V75.8636C327.418 76.8523 327.589 77.6903 327.93 78.3778C328.276 79.0597 328.756 79.5795 329.37 79.9375C329.984 80.2898 330.697 80.4659 331.509 80.4659C332.038 80.4659 332.515 80.392 332.941 80.2443C333.373 80.0909 333.745 79.8636 334.058 79.5625C334.37 79.2557 334.612 78.875 334.782 78.4205L336.725 78.9659C336.521 79.625 336.177 80.2045 335.694 80.7045C335.211 81.1989 334.614 81.5852 333.904 81.8636C333.194 82.1364 332.396 82.2727 331.509 82.2727ZM339.989 86.9091V68.9091H341.933V70.9886H342.171C342.319 70.7614 342.523 70.4716 342.785 70.1193C343.052 69.7614 343.433 69.4432 343.927 69.1648C344.427 68.8807 345.103 68.7386 345.955 68.7386C347.058 68.7386 348.029 69.0142 348.87 69.5653C349.711 70.1165 350.367 70.8977 350.839 71.9091C351.31 72.9205 351.546 74.1136 351.546 75.4886C351.546 76.875 351.31 78.0767 350.839 79.0938C350.367 80.1051 349.714 80.8892 348.879 81.446C348.043 81.9972 347.08 82.2727 345.989 82.2727C345.148 82.2727 344.475 82.1335 343.969 81.8551C343.464 81.571 343.075 81.25 342.802 80.892C342.529 80.5284 342.319 80.2273 342.171 79.9886H342.001V86.9091H339.989ZM341.967 75.4545C341.967 76.4432 342.112 77.3153 342.401 78.071C342.691 78.821 343.114 79.4091 343.671 79.8352C344.228 80.2557 344.91 80.4659 345.717 80.4659C346.558 80.4659 347.259 80.2443 347.822 79.8011C348.39 79.3523 348.816 78.75 349.1 77.9943C349.39 77.233 349.535 76.3864 349.535 75.4545C349.535 74.5341 349.393 73.7045 349.109 72.9659C348.83 72.2216 348.407 71.6335 347.839 71.2017C347.276 70.7642 346.569 70.5455 345.717 70.5455C344.898 70.5455 344.211 70.7528 343.654 71.1676C343.097 71.5767 342.677 72.1506 342.393 72.8892C342.109 73.6222 341.967 74.4773 341.967 75.4545ZM353.217 85.75V80.125H354.308C354.575 79.8466 354.805 79.5455 354.998 79.2216C355.191 78.8977 355.359 78.5142 355.501 78.071C355.648 77.6222 355.773 77.0767 355.876 76.4347C355.978 75.7869 356.069 75.0057 356.148 74.0909L356.592 68.9091H364.91V80.125H366.921V85.75H364.91V82H355.228V85.75H353.217ZM356.592 80.125H362.898V70.7841H358.467L358.126 74.0909C357.984 75.4602 357.808 76.6562 357.597 77.679C357.387 78.7017 357.052 79.517 356.592 80.125ZM375.08 82.2727C373.818 82.2727 372.73 81.9943 371.815 81.4375C370.906 80.875 370.205 80.0909 369.71 79.0852C369.222 78.0739 368.977 76.8977 368.977 75.5568C368.977 74.2159 369.222 73.0341 369.71 72.0114C370.205 70.983 370.892 70.1818 371.773 69.608C372.659 69.0284 373.693 68.7386 374.875 68.7386C375.557 68.7386 376.23 68.8523 376.895 69.0795C377.56 69.3068 378.165 69.6761 378.71 70.1875C379.256 70.6932 379.69 71.3636 380.014 72.1989C380.338 73.0341 380.5 74.0625 380.5 75.2841V76.1364H370.409V74.3977H378.455C378.455 73.6591 378.307 73 378.011 72.4205C377.722 71.8409 377.307 71.3835 376.767 71.0483C376.233 70.7131 375.602 70.5455 374.875 70.5455C374.074 70.5455 373.381 70.7443 372.795 71.142C372.216 71.5341 371.77 72.0455 371.457 72.6761C371.145 73.3068 370.989 73.983 370.989 74.7045V75.8636C370.989 76.8523 371.159 77.6903 371.5 78.3778C371.847 79.0597 372.327 79.5795 372.94 79.9375C373.554 80.2898 374.267 80.4659 375.08 80.4659C375.608 80.4659 376.085 80.392 376.511 80.2443C376.943 80.0909 377.315 79.8636 377.628 79.5625C377.94 79.2557 378.182 78.875 378.352 78.4205L380.295 78.9659C380.091 79.625 379.747 80.2045 379.264 80.7045C378.781 81.1989 378.185 81.5852 377.474 81.8636C376.764 82.1364 375.966 82.2727 375.08 82.2727ZM393.855 68.9091V80.125H395.696V86.2273H393.685V82H383.56V68.9091H385.571V80.125H391.844V68.9091H393.855Z" fill="white"/>
</svg>
