<svg width="636" height="105" viewBox="0 0 636 105" fill="none" xmlns="http://www.w3.org/2000/svg">
<rect x="196" width="440" height="40" fill="#1D1C22"/>
<path d="M229.12 31.9091V13.9091H231.063V15.9886H231.302C231.45 15.7614 231.654 15.4716 231.916 15.1193C232.183 14.7614 232.563 14.4432 233.058 14.1648C233.558 13.8807 234.234 13.7386 235.086 13.7386C236.188 13.7386 237.16 14.0142 238.001 14.5653C238.842 15.1165 239.498 15.8977 239.97 16.9091C240.441 17.9205 240.677 19.1136 240.677 20.4886C240.677 21.875 240.441 23.0767 239.97 24.0938C239.498 25.1051 238.845 25.8892 238.009 26.446C237.174 26.9972 236.211 27.2727 235.12 27.2727C234.279 27.2727 233.606 27.1335 233.1 26.8551C232.595 26.571 232.205 26.25 231.933 25.892C231.66 25.5284 231.45 25.2273 231.302 24.9886H231.132V31.9091H229.12ZM231.097 20.4545C231.097 21.4432 231.242 22.3153 231.532 23.071C231.822 23.821 232.245 24.4091 232.802 24.8352C233.359 25.2557 234.041 25.4659 234.847 25.4659C235.688 25.4659 236.39 25.2443 236.953 24.8011C237.521 24.3523 237.947 23.75 238.231 22.9943C238.521 22.233 238.666 21.3864 238.666 20.4545C238.666 19.5341 238.524 18.7045 238.24 17.9659C237.961 17.2216 237.538 16.6335 236.97 16.2017C236.407 15.7642 235.7 15.5455 234.847 15.5455C234.029 15.5455 233.342 15.7528 232.785 16.1676C232.228 16.5767 231.808 17.1506 231.524 17.8892C231.24 18.6222 231.097 19.4773 231.097 20.4545ZM249.234 27.2727C247.972 27.2727 246.884 26.9943 245.97 26.4375C245.061 25.875 244.359 25.0909 243.865 24.0852C243.376 23.0739 243.132 21.8977 243.132 20.5568C243.132 19.2159 243.376 18.0341 243.865 17.0114C244.359 15.983 245.046 15.1818 245.927 14.608C246.813 14.0284 247.847 13.7386 249.029 13.7386C249.711 13.7386 250.384 13.8523 251.049 14.0795C251.714 14.3068 252.319 14.6761 252.865 15.1875C253.41 15.6932 253.845 16.3636 254.169 17.1989C254.492 18.0341 254.654 19.0625 254.654 20.2841V21.1364H244.563V19.3977H252.609C252.609 18.6591 252.461 18 252.166 17.4205C251.876 16.8409 251.461 16.3835 250.921 16.0483C250.387 15.7131 249.757 15.5455 249.029 15.5455C248.228 15.5455 247.535 15.7443 246.95 16.142C246.37 16.5341 245.924 17.0455 245.612 17.6761C245.299 18.3068 245.143 18.983 245.143 19.7045V20.8636C245.143 21.8523 245.313 22.6903 245.654 23.3778C246.001 24.0597 246.481 24.5795 247.095 24.9375C247.708 25.2898 248.421 25.4659 249.234 25.4659C249.762 25.4659 250.24 25.392 250.666 25.2443C251.097 25.0909 251.47 24.8636 251.782 24.5625C252.095 24.2557 252.336 23.875 252.507 23.4205L254.45 23.9659C254.245 24.625 253.901 25.2045 253.419 25.7045C252.936 26.1989 252.339 26.5852 251.629 26.8636C250.919 27.1364 250.12 27.2727 249.234 27.2727ZM263.032 27.2727C261.805 27.2727 260.748 26.983 259.862 26.4034C258.975 25.8239 258.294 25.0256 257.816 24.0085C257.339 22.9915 257.1 21.8295 257.1 20.5227C257.1 19.1932 257.345 18.0199 257.833 17.0028C258.328 15.9801 259.015 15.1818 259.896 14.608C260.782 14.0284 261.816 13.7386 262.998 13.7386C263.919 13.7386 264.748 13.9091 265.487 14.25C266.225 14.5909 266.83 15.0682 267.302 15.6818C267.774 16.2955 268.066 17.0114 268.18 17.8295H266.169C266.015 17.233 265.674 16.7045 265.146 16.2443C264.623 15.7784 263.919 15.5455 263.032 15.5455C262.248 15.5455 261.561 15.75 260.97 16.1591C260.384 16.5625 259.927 17.1335 259.597 17.8722C259.274 18.6051 259.112 19.4659 259.112 20.4545C259.112 21.4659 259.271 22.3466 259.589 23.0966C259.913 23.8466 260.367 24.429 260.953 24.8438C261.544 25.2585 262.237 25.4659 263.032 25.4659C263.555 25.4659 264.029 25.375 264.455 25.1932C264.882 25.0114 265.242 24.75 265.538 24.4091C265.833 24.0682 266.044 23.6591 266.169 23.1818H268.18C268.066 23.9545 267.785 24.6506 267.336 25.2699C266.893 25.8835 266.305 26.3722 265.572 26.7358C264.845 27.0938 263.998 27.2727 263.032 27.2727ZM270.089 15.7841V13.9091H280.725V15.7841H276.43V27H274.419V15.7841H270.089ZM286.832 27.3068C286.002 27.3068 285.249 27.1506 284.573 26.8381C283.897 26.5199 283.36 26.0625 282.963 25.4659C282.565 24.8636 282.366 24.1364 282.366 23.2841C282.366 22.5341 282.514 21.9261 282.809 21.4602C283.105 20.9886 283.499 20.6193 283.994 20.3523C284.488 20.0852 285.034 19.8864 285.63 19.7557C286.232 19.6193 286.838 19.5114 287.445 19.4318C288.241 19.3295 288.886 19.2528 289.38 19.2017C289.88 19.1449 290.244 19.0511 290.471 18.9205C290.704 18.7898 290.82 18.5625 290.82 18.2386V18.1705C290.82 17.3295 290.59 16.6761 290.13 16.2102C289.676 15.7443 288.985 15.5114 288.059 15.5114C287.099 15.5114 286.346 15.7216 285.801 16.142C285.255 16.5625 284.872 17.0114 284.65 17.4886L282.741 16.8068C283.082 16.0114 283.536 15.392 284.105 14.9489C284.678 14.5 285.303 14.1875 285.98 14.0114C286.661 13.8295 287.332 13.7386 287.991 13.7386C288.411 13.7386 288.894 13.7898 289.44 13.892C289.991 13.9886 290.522 14.1903 291.034 14.4972C291.551 14.804 291.98 15.267 292.32 15.8864C292.661 16.5057 292.832 17.3352 292.832 18.375V27H290.82V25.2273H290.718C290.582 25.5114 290.355 25.8153 290.036 26.1392C289.718 26.4631 289.295 26.7386 288.767 26.9659C288.238 27.1932 287.593 27.3068 286.832 27.3068ZM287.139 25.5C287.934 25.5 288.605 25.3438 289.15 25.0312C289.701 24.7188 290.116 24.3153 290.394 23.821C290.678 23.3267 290.82 22.8068 290.82 22.2614V20.4205C290.735 20.5227 290.548 20.6165 290.258 20.7017C289.974 20.7812 289.644 20.8523 289.269 20.9148C288.9 20.9716 288.539 21.0227 288.187 21.0682C287.84 21.108 287.559 21.142 287.343 21.1705C286.82 21.2386 286.332 21.3494 285.877 21.5028C285.428 21.6506 285.065 21.875 284.786 22.1761C284.514 22.4716 284.377 22.875 284.377 23.3864C284.377 24.0852 284.636 24.6136 285.153 24.9716C285.676 25.3239 286.338 25.5 287.139 25.5ZM296.503 27V13.9091H301.855C303.264 13.9091 304.384 14.2273 305.213 14.8636C306.043 15.5 306.458 16.3409 306.458 17.3864C306.458 18.1818 306.222 18.7983 305.75 19.2358C305.279 19.6676 304.673 19.9602 303.935 20.1136C304.418 20.1818 304.887 20.3523 305.341 20.625C305.801 20.8977 306.182 21.2727 306.483 21.75C306.784 22.2216 306.935 22.8011 306.935 23.4886C306.935 24.1591 306.764 24.7585 306.423 25.2869C306.083 25.8153 305.594 26.233 304.958 26.5398C304.321 26.8466 303.56 27 302.673 27H296.503ZM298.412 25.1591H302.673C303.367 25.1591 303.909 24.9943 304.301 24.6648C304.693 24.3352 304.889 23.8864 304.889 23.3182C304.889 22.642 304.693 22.1108 304.301 21.7244C303.909 21.3324 303.367 21.1364 302.673 21.1364H298.412V25.1591ZM298.412 19.3977H301.855C302.395 19.3977 302.858 19.3239 303.244 19.1761C303.631 19.0227 303.926 18.8068 304.131 18.5284C304.341 18.2443 304.446 17.9091 304.446 17.5227C304.446 16.9716 304.216 16.5398 303.756 16.2273C303.296 15.9091 302.662 15.75 301.855 15.75H298.412V19.3977ZM309.98 31.9091V13.9091H311.923V15.9886H312.161C312.309 15.7614 312.514 15.4716 312.775 15.1193C313.042 14.7614 313.423 14.4432 313.917 14.1648C314.417 13.8807 315.093 13.7386 315.945 13.7386C317.048 13.7386 318.019 14.0142 318.86 14.5653C319.701 15.1165 320.357 15.8977 320.829 16.9091C321.301 17.9205 321.536 19.1136 321.536 20.4886C321.536 21.875 321.301 23.0767 320.829 24.0938C320.357 25.1051 319.704 25.8892 318.869 26.446C318.034 26.9972 317.07 27.2727 315.98 27.2727C315.139 27.2727 314.465 27.1335 313.96 26.8551C313.454 26.571 313.065 26.25 312.792 25.892C312.519 25.5284 312.309 25.2273 312.161 24.9886H311.991V31.9091H309.98ZM311.957 20.4545C311.957 21.4432 312.102 22.3153 312.392 23.071C312.681 23.821 313.105 24.4091 313.661 24.8352C314.218 25.2557 314.9 25.4659 315.707 25.4659C316.548 25.4659 317.249 25.2443 317.812 24.8011C318.38 24.3523 318.806 23.75 319.09 22.9943C319.38 22.233 319.525 21.3864 319.525 20.4545C319.525 19.5341 319.383 18.7045 319.099 17.9659C318.82 17.2216 318.397 16.6335 317.829 16.2017C317.267 15.7642 316.559 15.5455 315.707 15.5455C314.889 15.5455 314.201 15.7528 313.644 16.1676C313.088 16.5767 312.667 17.1506 312.383 17.8892C312.099 18.6222 311.957 19.4773 311.957 20.4545ZM328.457 27.3068C327.627 27.3068 326.874 27.1506 326.198 26.8381C325.522 26.5199 324.985 26.0625 324.588 25.4659C324.19 24.8636 323.991 24.1364 323.991 23.2841C323.991 22.5341 324.139 21.9261 324.434 21.4602C324.73 20.9886 325.124 20.6193 325.619 20.3523C326.113 20.0852 326.659 19.8864 327.255 19.7557C327.857 19.6193 328.463 19.5114 329.07 19.4318C329.866 19.3295 330.511 19.2528 331.005 19.2017C331.505 19.1449 331.869 19.0511 332.096 18.9205C332.329 18.7898 332.445 18.5625 332.445 18.2386V18.1705C332.445 17.3295 332.215 16.6761 331.755 16.2102C331.301 15.7443 330.61 15.5114 329.684 15.5114C328.724 15.5114 327.971 15.7216 327.426 16.142C326.88 16.5625 326.497 17.0114 326.275 17.4886L324.366 16.8068C324.707 16.0114 325.161 15.392 325.73 14.9489C326.303 14.5 326.928 14.1875 327.605 14.0114C328.286 13.8295 328.957 13.7386 329.616 13.7386C330.036 13.7386 330.519 13.7898 331.065 13.892C331.616 13.9886 332.147 14.1903 332.659 14.4972C333.176 14.804 333.605 15.267 333.945 15.8864C334.286 16.5057 334.457 17.3352 334.457 18.375V27H332.445V25.2273H332.343C332.207 25.5114 331.98 25.8153 331.661 26.1392C331.343 26.4631 330.92 26.7386 330.392 26.9659C329.863 27.1932 329.218 27.3068 328.457 27.3068ZM328.764 25.5C329.559 25.5 330.23 25.3438 330.775 25.0312C331.326 24.7188 331.741 24.3153 332.019 23.821C332.303 23.3267 332.445 22.8068 332.445 22.2614V20.4205C332.36 20.5227 332.173 20.6165 331.883 20.7017C331.599 20.7812 331.269 20.8523 330.894 20.9148C330.525 20.9716 330.164 21.0227 329.812 21.0682C329.465 21.108 329.184 21.142 328.968 21.1705C328.445 21.2386 327.957 21.3494 327.502 21.5028C327.053 21.6506 326.69 21.875 326.411 22.1761C326.139 22.4716 326.002 22.875 326.002 23.3864C326.002 24.0852 326.261 24.6136 326.778 24.9716C327.301 25.3239 327.963 25.5 328.764 25.5ZM348.423 13.9091V25.125H350.264V31.2273H348.253V27H338.128V13.9091H340.139V25.125H346.412V13.9091H348.423ZM355.374 24.0341L361.681 13.9091H363.999V27H361.987V16.875L355.715 27H353.362V13.9091H355.374V24.0341ZM375.558 27V15.75H372.08C371.296 15.75 370.68 15.9318 370.231 16.2955C369.782 16.6591 369.558 17.1591 369.558 17.7955C369.558 18.4205 369.759 18.9119 370.163 19.2699C370.572 19.6278 371.132 19.8068 371.842 19.8068H376.069V21.6818H371.842C370.955 21.6818 370.191 21.5256 369.549 21.2131C368.907 20.9006 368.413 20.4545 368.066 19.875C367.72 19.2898 367.546 18.5966 367.546 17.7955C367.546 16.9886 367.728 16.2955 368.092 15.7159C368.455 15.1364 368.975 14.6903 369.651 14.3778C370.333 14.0653 371.143 13.9091 372.08 13.9091H377.467V27H375.558ZM366.83 27L370.546 20.4886H372.728L369.012 27H366.83ZM387.909 31.9091V13.9091H389.852V15.9886H390.091C390.239 15.7614 390.443 15.4716 390.705 15.1193C390.972 14.7614 391.352 14.4432 391.847 14.1648C392.347 13.8807 393.023 13.7386 393.875 13.7386C394.977 13.7386 395.949 14.0142 396.79 14.5653C397.631 15.1165 398.287 15.8977 398.759 16.9091C399.23 17.9205 399.466 19.1136 399.466 20.4886C399.466 21.875 399.23 23.0767 398.759 24.0938C398.287 25.1051 397.634 25.8892 396.798 26.446C395.963 26.9972 395 27.2727 393.909 27.2727C393.068 27.2727 392.395 27.1335 391.889 26.8551C391.384 26.571 390.994 26.25 390.722 25.892C390.449 25.5284 390.239 25.2273 390.091 24.9886H389.921V31.9091H387.909ZM389.887 20.4545C389.887 21.4432 390.031 22.3153 390.321 23.071C390.611 23.821 391.034 24.4091 391.591 24.8352C392.148 25.2557 392.83 25.4659 393.637 25.4659C394.477 25.4659 395.179 25.2443 395.742 24.8011C396.31 24.3523 396.736 23.75 397.02 22.9943C397.31 22.233 397.455 21.3864 397.455 20.4545C397.455 19.5341 397.313 18.7045 397.029 17.9659C396.75 17.2216 396.327 16.6335 395.759 16.2017C395.196 15.7642 394.489 15.5455 393.637 15.5455C392.818 15.5455 392.131 15.7528 391.574 16.1676C391.017 16.5767 390.597 17.1506 390.313 17.8892C390.029 18.6222 389.887 19.4773 389.887 20.4545ZM406.387 27.3068C405.557 27.3068 404.804 27.1506 404.128 26.8381C403.452 26.5199 402.915 26.0625 402.517 25.4659C402.119 24.8636 401.921 24.1364 401.921 23.2841C401.921 22.5341 402.068 21.9261 402.364 21.4602C402.659 20.9886 403.054 20.6193 403.548 20.3523C404.043 20.0852 404.588 19.8864 405.185 19.7557C405.787 19.6193 406.392 19.5114 407 19.4318C407.796 19.3295 408.441 19.2528 408.935 19.2017C409.435 19.1449 409.798 19.0511 410.026 18.9205C410.259 18.7898 410.375 18.5625 410.375 18.2386V18.1705C410.375 17.3295 410.145 16.6761 409.685 16.2102C409.23 15.7443 408.54 15.5114 407.614 15.5114C406.654 15.5114 405.901 15.7216 405.355 16.142C404.81 16.5625 404.426 17.0114 404.205 17.4886L402.296 16.8068C402.637 16.0114 403.091 15.392 403.659 14.9489C404.233 14.5 404.858 14.1875 405.534 14.0114C406.216 13.8295 406.887 13.7386 407.546 13.7386C407.966 13.7386 408.449 13.7898 408.994 13.892C409.546 13.9886 410.077 14.1903 410.588 14.4972C411.105 14.804 411.534 15.267 411.875 15.8864C412.216 16.5057 412.387 17.3352 412.387 18.375V27H410.375V25.2273H410.273C410.137 25.5114 409.909 25.8153 409.591 26.1392C409.273 26.4631 408.85 26.7386 408.321 26.9659C407.793 27.1932 407.148 27.3068 406.387 27.3068ZM406.693 25.5C407.489 25.5 408.159 25.3438 408.705 25.0312C409.256 24.7188 409.671 24.3153 409.949 23.821C410.233 23.3267 410.375 22.8068 410.375 22.2614V20.4205C410.29 20.5227 410.102 20.6165 409.813 20.7017C409.529 20.7812 409.199 20.8523 408.824 20.9148C408.455 20.9716 408.094 21.0227 407.742 21.0682C407.395 21.108 407.114 21.142 406.898 21.1705C406.375 21.2386 405.887 21.3494 405.432 21.5028C404.983 21.6506 404.619 21.875 404.341 22.1761C404.068 22.4716 403.932 22.875 403.932 23.3864C403.932 24.0852 404.191 24.6136 404.708 24.9716C405.23 25.3239 405.892 25.5 406.693 25.5ZM415.24 23.6591H417.387C417.433 24.25 417.7 24.6989 418.188 25.0057C418.683 25.3125 419.325 25.4659 420.115 25.4659C420.921 25.4659 421.612 25.3011 422.186 24.9716C422.759 24.6364 423.046 24.0966 423.046 23.3523C423.046 22.9148 422.938 22.5341 422.722 22.2102C422.507 21.8807 422.203 21.625 421.811 21.4432C421.419 21.2614 420.955 21.1705 420.421 21.1705H418.171V19.3636H420.421C421.222 19.3636 421.813 19.1818 422.194 18.8182C422.58 18.4545 422.774 18 422.774 17.4545C422.774 16.8693 422.566 16.4006 422.151 16.0483C421.737 15.6903 421.149 15.5114 420.387 15.5114C419.62 15.5114 418.981 15.6847 418.47 16.0312C417.958 16.3722 417.688 16.8125 417.66 17.3523H415.546C415.569 16.6477 415.785 16.0256 416.194 15.4858C416.603 14.9403 417.16 14.5142 417.865 14.2074C418.569 13.8949 419.376 13.7386 420.285 13.7386C421.205 13.7386 422.004 13.9006 422.68 14.2244C423.362 14.5426 423.887 14.9773 424.257 15.5284C424.632 16.0739 424.819 16.6932 424.819 17.3864C424.819 18.125 424.612 18.7216 424.197 19.1761C423.782 19.6307 423.262 19.9545 422.637 20.1477V20.2841C423.132 20.3182 423.561 20.4773 423.924 20.7614C424.294 21.0398 424.58 21.4062 424.785 21.8608C424.99 22.3097 425.092 22.8068 425.092 23.3523C425.092 24.1477 424.879 24.8409 424.453 25.4318C424.026 26.017 423.441 26.4716 422.697 26.7955C421.953 27.1136 421.103 27.2727 420.149 27.2727C419.222 27.2727 418.393 27.1222 417.66 26.821C416.927 26.5142 416.345 26.0909 415.913 25.5511C415.487 25.0057 415.262 24.375 415.24 23.6591ZM437.633 9L438.656 10.2273C438.258 10.6136 437.798 10.8835 437.275 11.0369C436.752 11.1903 436.161 11.2841 435.502 11.3182C434.843 11.3523 434.11 11.3864 433.303 11.4205C432.394 11.4545 431.642 11.6761 431.045 12.0852C430.448 12.4943 429.988 13.0852 429.664 13.858C429.34 14.6307 429.133 15.5795 429.042 16.7045H429.213C429.656 15.8864 430.269 15.2841 431.053 14.8977C431.838 14.5114 432.678 14.3182 433.576 14.3182C434.599 14.3182 435.519 14.5568 436.338 15.0341C437.156 15.5114 437.803 16.2188 438.281 17.1562C438.758 18.0938 438.997 19.25 438.997 20.625C438.997 21.9943 438.752 23.1761 438.264 24.1705C437.781 25.1648 437.102 25.9318 436.227 26.4716C435.357 27.0057 434.338 27.2727 433.167 27.2727C431.997 27.2727 430.971 26.9972 430.09 26.446C429.21 25.8892 428.525 25.0653 428.036 23.9744C427.548 22.8778 427.303 21.5227 427.303 19.9091V18.5114C427.303 15.5966 427.798 13.3864 428.786 11.8807C429.781 10.375 431.275 9.59659 433.269 9.54545C433.974 9.52273 434.602 9.51705 435.153 9.52841C435.704 9.53977 436.184 9.5142 436.593 9.4517C437.002 9.3892 437.349 9.23864 437.633 9ZM433.167 25.4659C433.957 25.4659 434.636 25.267 435.204 24.8693C435.778 24.4716 436.218 23.9119 436.525 23.1903C436.832 22.4631 436.985 21.608 436.985 20.625C436.985 19.6705 436.829 18.858 436.517 18.1875C436.21 17.517 435.769 17.0057 435.195 16.6534C434.622 16.3011 433.934 16.125 433.133 16.125C432.548 16.125 432.022 16.2244 431.556 16.4233C431.09 16.6222 430.693 16.9148 430.363 17.3011C430.034 17.6875 429.778 18.1591 429.596 18.7159C429.42 19.2727 429.326 19.9091 429.315 20.625C429.315 22.0909 429.659 23.2642 430.346 24.1449C431.034 25.0256 431.974 25.4659 433.167 25.4659ZM444.085 24.0341L450.392 13.9091H452.71V27H450.698V16.875L444.426 27H442.073V13.9091H444.085V24.0341ZM454.612 15.7841V13.9091H465.249V15.7841H460.953V27H458.942V15.7841H454.612ZM469.921 18.6477H473.671C475.205 18.6477 476.379 19.0369 477.191 19.8153C478.004 20.5937 478.41 21.5795 478.41 22.7727C478.41 23.5568 478.228 24.2699 477.865 24.9119C477.501 25.5483 476.967 26.0568 476.262 26.4375C475.558 26.8125 474.694 27 473.671 27H468.183V13.9091H470.194V25.125H473.671C474.467 25.125 475.12 24.9148 475.632 24.4943C476.143 24.0739 476.399 23.5341 476.399 22.875C476.399 22.1818 476.143 21.6165 475.632 21.179C475.12 20.7415 474.467 20.5227 473.671 20.5227H469.921V18.6477ZM480.49 27V13.9091H482.501V27H480.49ZM487.683 13.9091L490.819 19.2614L493.955 13.9091H496.274L492.046 20.4545L496.274 27H493.955L490.819 21.9205L487.683 27H485.365L489.524 20.4545L485.365 13.9091H487.683ZM511.212 27.2727C509.985 27.2727 508.928 26.983 508.041 26.4034C507.155 25.8239 506.473 25.0256 505.996 24.0085C505.519 22.9915 505.28 21.8295 505.28 20.5227C505.28 19.1932 505.524 18.0199 506.013 17.0028C506.507 15.9801 507.195 15.1818 508.075 14.608C508.962 14.0284 509.996 13.7386 511.178 13.7386C512.098 13.7386 512.928 13.9091 513.666 14.25C514.405 14.5909 515.01 15.0682 515.482 15.6818C515.953 16.2955 516.246 17.0114 516.36 17.8295H514.348C514.195 17.233 513.854 16.7045 513.325 16.2443C512.803 15.7784 512.098 15.5455 511.212 15.5455C510.428 15.5455 509.74 15.75 509.149 16.1591C508.564 16.5625 508.107 17.1335 507.777 17.8722C507.453 18.6051 507.291 19.4659 507.291 20.4545C507.291 21.4659 507.45 22.3466 507.769 23.0966C508.093 23.8466 508.547 24.429 509.132 24.8438C509.723 25.2585 510.416 25.4659 511.212 25.4659C511.735 25.4659 512.209 25.375 512.635 25.1932C513.061 25.0114 513.422 24.75 513.718 24.4091C514.013 24.0682 514.223 23.6591 514.348 23.1818H516.36C516.246 23.9545 515.965 24.6506 515.516 25.2699C515.073 25.8835 514.485 26.3722 513.752 26.7358C513.024 27.0938 512.178 27.2727 511.212 27.2727ZM524.789 27.2727C523.527 27.2727 522.439 26.9943 521.524 26.4375C520.615 25.875 519.914 25.0909 519.419 24.0852C518.931 23.0739 518.686 21.8977 518.686 20.5568C518.686 19.2159 518.931 18.0341 519.419 17.0114C519.914 15.983 520.601 15.1818 521.482 14.608C522.368 14.0284 523.402 13.7386 524.584 13.7386C525.266 13.7386 525.939 13.8523 526.604 14.0795C527.269 14.3068 527.874 14.6761 528.419 15.1875C528.965 15.6932 529.399 16.3636 529.723 17.1989C530.047 18.0341 530.209 19.0625 530.209 20.2841V21.1364H520.118V19.3977H528.164C528.164 18.6591 528.016 18 527.72 17.4205C527.431 16.8409 527.016 16.3835 526.476 16.0483C525.942 15.7131 525.311 15.5455 524.584 15.5455C523.783 15.5455 523.09 15.7443 522.504 16.142C521.925 16.5341 521.479 17.0455 521.166 17.6761C520.854 18.3068 520.698 18.983 520.698 19.7045V20.8636C520.698 21.8523 520.868 22.6903 521.209 23.3778C521.556 24.0597 522.036 24.5795 522.649 24.9375C523.263 25.2898 523.976 25.4659 524.789 25.4659C525.317 25.4659 525.794 25.392 526.22 25.2443C526.652 25.0909 527.024 24.8636 527.337 24.5625C527.649 24.2557 527.891 23.875 528.061 23.4205L530.004 23.9659C529.8 24.625 529.456 25.2045 528.973 25.7045C528.49 26.1989 527.894 26.5852 527.183 26.8636C526.473 27.1364 525.675 27.2727 524.789 27.2727ZM533.269 31.9091V13.9091H535.212V15.9886H535.45C535.598 15.7614 535.803 15.4716 536.064 15.1193C536.331 14.7614 536.712 14.4432 537.206 14.1648C537.706 13.8807 538.382 13.7386 539.235 13.7386C540.337 13.7386 541.308 14.0142 542.149 14.5653C542.99 15.1165 543.646 15.8977 544.118 16.9091C544.59 17.9205 544.825 19.1136 544.825 20.4886C544.825 21.875 544.59 23.0767 544.118 24.0938C543.646 25.1051 542.993 25.8892 542.158 26.446C541.323 26.9972 540.36 27.2727 539.269 27.2727C538.428 27.2727 537.754 27.1335 537.249 26.8551C536.743 26.571 536.354 26.25 536.081 25.892C535.808 25.5284 535.598 25.2273 535.45 24.9886H535.28V31.9091H533.269ZM535.246 20.4545C535.246 21.4432 535.391 22.3153 535.681 23.071C535.97 23.821 536.394 24.4091 536.95 24.8352C537.507 25.2557 538.189 25.4659 538.996 25.4659C539.837 25.4659 540.539 25.2443 541.101 24.8011C541.669 24.3523 542.095 23.75 542.379 22.9943C542.669 22.233 542.814 21.3864 542.814 20.4545C542.814 19.5341 542.672 18.7045 542.388 17.9659C542.11 17.2216 541.686 16.6335 541.118 16.2017C540.556 15.7642 539.848 15.5455 538.996 15.5455C538.178 15.5455 537.49 15.7528 536.933 16.1676C536.377 16.5767 535.956 17.1506 535.672 17.8892C535.388 18.6222 535.246 19.4773 535.246 20.4545ZM546.496 30.75V25.125H547.587C547.854 24.8466 548.084 24.5455 548.277 24.2216C548.47 23.8977 548.638 23.5142 548.78 23.071C548.928 22.6222 549.053 22.0767 549.155 21.4347C549.257 20.7869 549.348 20.0057 549.428 19.0909L549.871 13.9091H558.189V25.125H560.2V30.75H558.189V27H548.507V30.75H546.496ZM549.871 25.125H556.178V15.7841H551.746L551.405 19.0909C551.263 20.4602 551.087 21.6562 550.877 22.679C550.666 23.7017 550.331 24.517 549.871 25.125ZM568.359 27.2727C567.097 27.2727 566.009 26.9943 565.095 26.4375C564.186 25.875 563.484 25.0909 562.99 24.0852C562.501 23.0739 562.257 21.8977 562.257 20.5568C562.257 19.2159 562.501 18.0341 562.99 17.0114C563.484 15.983 564.171 15.1818 565.052 14.608C565.938 14.0284 566.972 13.7386 568.154 13.7386C568.836 13.7386 569.509 13.8523 570.174 14.0795C570.839 14.3068 571.444 14.6761 571.99 15.1875C572.535 15.6932 572.97 16.3636 573.294 17.1989C573.617 18.0341 573.779 19.0625 573.779 20.2841V21.1364H563.688V19.3977H571.734C571.734 18.6591 571.586 18 571.291 17.4205C571.001 16.8409 570.586 16.3835 570.046 16.0483C569.512 15.7131 568.882 15.5455 568.154 15.5455C567.353 15.5455 566.66 15.7443 566.075 16.142C565.495 16.5341 565.049 17.0455 564.737 17.6761C564.424 18.3068 564.268 18.983 564.268 19.7045V20.8636C564.268 21.8523 564.438 22.6903 564.779 23.3778C565.126 24.0597 565.606 24.5795 566.22 24.9375C566.833 25.2898 567.546 25.4659 568.359 25.4659C568.887 25.4659 569.365 25.392 569.791 25.2443C570.222 25.0909 570.595 24.8636 570.907 24.5625C571.22 24.2557 571.461 23.875 571.632 23.4205L573.575 23.9659C573.37 24.625 573.026 25.2045 572.544 25.7045C572.061 26.1989 571.464 26.5852 570.754 26.8636C570.044 27.1364 569.245 27.2727 568.359 27.2727ZM587.134 13.9091V25.125H588.975V31.2273H586.964V27H576.839V13.9091H578.85V25.125H585.123V13.9091H587.134Z" fill="white"/>
<rect y="36" width="422" height="40" fill="#1D1C22"/>
<path d="M30.8409 60.9091V42.9091H32.7841V44.9886H33.0227C33.1705 44.7614 33.375 44.4716 33.6364 44.1193C33.9034 43.7614 34.2841 43.4432 34.7784 43.1648C35.2784 42.8807 35.9545 42.7386 36.8068 42.7386C37.9091 42.7386 38.8807 43.0142 39.7216 43.5653C40.5625 44.1165 41.2188 44.8977 41.6903 45.9091C42.1619 46.9205 42.3977 48.1136 42.3977 49.4886C42.3977 50.875 42.1619 52.0767 41.6903 53.0938C41.2188 54.1051 40.5653 54.8892 39.7301 55.446C38.8949 55.9972 37.9318 56.2727 36.8409 56.2727C36 56.2727 35.3267 56.1335 34.821 55.8551C34.3153 55.571 33.9261 55.25 33.6534 54.892C33.3807 54.5284 33.1705 54.2273 33.0227 53.9886H32.8523V60.9091H30.8409ZM32.8182 49.4545C32.8182 50.4432 32.9631 51.3153 33.2528 52.071C33.5426 52.821 33.9659 53.4091 34.5227 53.8352C35.0795 54.2557 35.7614 54.4659 36.5682 54.4659C37.4091 54.4659 38.1108 54.2443 38.6733 53.8011C39.2415 53.3523 39.6676 52.75 39.9517 51.9943C40.2415 51.233 40.3864 50.3864 40.3864 49.4545C40.3864 48.5341 40.2443 47.7045 39.9602 46.9659C39.6818 46.2216 39.2585 45.6335 38.6903 45.2017C38.1278 44.7642 37.4205 44.5455 36.5682 44.5455C35.75 44.5455 35.0625 44.7528 34.5057 45.1676C33.9489 45.5767 33.5284 46.1506 33.2443 46.8892C32.9602 47.6222 32.8182 48.4773 32.8182 49.4545ZM50.9545 56.2727C49.6932 56.2727 48.6051 55.9943 47.6903 55.4375C46.7812 54.875 46.0795 54.0909 45.5852 53.0852C45.0966 52.0739 44.8523 50.8977 44.8523 49.5568C44.8523 48.2159 45.0966 47.0341 45.5852 46.0114C46.0795 44.983 46.767 44.1818 47.6477 43.608C48.5341 43.0284 49.5682 42.7386 50.75 42.7386C51.4318 42.7386 52.1051 42.8523 52.7699 43.0795C53.4347 43.3068 54.0398 43.6761 54.5852 44.1875C55.1307 44.6932 55.5653 45.3636 55.8892 46.1989C56.2131 47.0341 56.375 48.0625 56.375 49.2841V50.1364H46.2841V48.3977H54.3295C54.3295 47.6591 54.1818 47 53.8864 46.4205C53.5966 45.8409 53.1818 45.3835 52.642 45.0483C52.108 44.7131 51.4773 44.5455 50.75 44.5455C49.9489 44.5455 49.2557 44.7443 48.6705 45.142C48.0909 45.5341 47.6449 46.0455 47.3324 46.6761C47.0199 47.3068 46.8636 47.983 46.8636 48.7045V49.8636C46.8636 50.8523 47.0341 51.6903 47.375 52.3778C47.7216 53.0597 48.2017 53.5795 48.8153 53.9375C49.429 54.2898 50.142 54.4659 50.9545 54.4659C51.483 54.4659 51.9602 54.392 52.3864 54.2443C52.8182 54.0909 53.1903 53.8636 53.5028 53.5625C53.8153 53.2557 54.0568 52.875 54.2273 52.4205L56.1705 52.9659C55.9659 53.625 55.6222 54.2045 55.1392 54.7045C54.6563 55.1989 54.0597 55.5852 53.3494 55.8636C52.6392 56.1364 51.8409 56.2727 50.9545 56.2727ZM64.7528 56.2727C63.5256 56.2727 62.4688 55.983 61.5824 55.4034C60.696 54.8239 60.0142 54.0256 59.5369 53.0085C59.0597 51.9915 58.821 50.8295 58.821 49.5227C58.821 48.1932 59.0653 47.0199 59.554 46.0028C60.0483 44.9801 60.7358 44.1818 61.6165 43.608C62.5028 43.0284 63.5369 42.7386 64.7188 42.7386C65.6392 42.7386 66.4688 42.9091 67.2074 43.25C67.946 43.5909 68.5511 44.0682 69.0227 44.6818C69.4943 45.2955 69.7869 46.0114 69.9006 46.8295H67.8892C67.7358 46.233 67.3949 45.7045 66.8665 45.2443C66.3438 44.7784 65.6392 44.5455 64.7528 44.5455C63.9688 44.5455 63.2813 44.75 62.6903 45.1591C62.1051 45.5625 61.6477 46.1335 61.3182 46.8722C60.9943 47.6051 60.8324 48.4659 60.8324 49.4545C60.8324 50.4659 60.9915 51.3466 61.3097 52.0966C61.6335 52.8466 62.0881 53.429 62.6733 53.8438C63.2642 54.2585 63.9574 54.4659 64.7528 54.4659C65.2756 54.4659 65.75 54.375 66.1761 54.1932C66.6023 54.0114 66.9631 53.75 67.2585 53.4091C67.554 53.0682 67.7642 52.6591 67.8892 52.1818H69.9006C69.7869 52.9545 69.5057 53.6506 69.0568 54.2699C68.6136 54.8835 68.0256 55.3722 67.2926 55.7358C66.5653 56.0938 65.7188 56.2727 64.7528 56.2727ZM71.8097 44.7841V42.9091H82.446V44.7841H78.1506V56H76.1392V44.7841H71.8097ZM88.5526 56.3068C87.723 56.3068 86.9702 56.1506 86.294 55.8381C85.6179 55.5199 85.081 55.0625 84.6832 54.4659C84.2855 53.8636 84.0866 53.1364 84.0866 52.2841C84.0866 51.5341 84.2344 50.9261 84.5298 50.4602C84.8253 49.9886 85.2202 49.6193 85.7145 49.3523C86.2088 49.0852 86.7543 48.8864 87.3509 48.7557C87.9531 48.6193 88.5582 48.5114 89.1662 48.4318C89.9616 48.3295 90.6065 48.2528 91.1009 48.2017C91.6009 48.1449 91.9645 48.0511 92.1918 47.9205C92.4247 47.7898 92.5412 47.5625 92.5412 47.2386V47.1705C92.5412 46.3295 92.3111 45.6761 91.8509 45.2102C91.3963 44.7443 90.706 44.5114 89.7798 44.5114C88.8196 44.5114 88.0668 44.7216 87.5213 45.142C86.9759 45.5625 86.5923 46.0114 86.3707 46.4886L84.4616 45.8068C84.8026 45.0114 85.2571 44.392 85.8253 43.9489C86.3991 43.5 87.0241 43.1875 87.7003 43.0114C88.3821 42.8295 89.0526 42.7386 89.7116 42.7386C90.1321 42.7386 90.6151 42.7898 91.1605 42.892C91.7116 42.9886 92.2429 43.1903 92.7543 43.4972C93.2713 43.804 93.7003 44.267 94.0412 44.8864C94.3821 45.5057 94.5526 46.3352 94.5526 47.375V56H92.5412V54.2273H92.4389C92.3026 54.5114 92.0753 54.8153 91.7571 55.1392C91.4389 55.4631 91.0156 55.7386 90.4872 55.9659C89.9588 56.1932 89.3139 56.3068 88.5526 56.3068ZM88.8594 54.5C89.6548 54.5 90.3253 54.3438 90.8707 54.0312C91.4219 53.7188 91.8366 53.3153 92.1151 52.821C92.3991 52.3267 92.5412 51.8068 92.5412 51.2614V49.4205C92.456 49.5227 92.2685 49.6165 91.9787 49.7017C91.6946 49.7812 91.3651 49.8523 90.9901 49.9148C90.6207 49.9716 90.2599 50.0227 89.9077 50.0682C89.5611 50.108 89.2798 50.142 89.0639 50.1705C88.5412 50.2386 88.0526 50.3494 87.598 50.5028C87.1491 50.6506 86.7855 50.875 86.5071 51.1761C86.2344 51.4716 86.098 51.875 86.098 52.3864C86.098 53.0852 86.3565 53.6136 86.8736 53.9716C87.3963 54.3239 88.0582 54.5 88.8594 54.5ZM98.2237 56V42.9091H103.576C104.985 42.9091 106.104 43.2273 106.934 43.8636C107.763 44.5 108.178 45.3409 108.178 46.3864C108.178 47.1818 107.942 47.7983 107.471 48.2358C106.999 48.6676 106.394 48.9602 105.656 49.1136C106.138 49.1818 106.607 49.3523 107.062 49.625C107.522 49.8977 107.903 50.2727 108.204 50.75C108.505 51.2216 108.656 51.8011 108.656 52.4886C108.656 53.1591 108.485 53.7585 108.144 54.2869C107.803 54.8153 107.315 55.233 106.678 55.5398C106.042 55.8466 105.281 56 104.394 56H98.2237ZM100.133 54.1591H104.394C105.087 54.1591 105.63 53.9943 106.022 53.6648C106.414 53.3352 106.61 52.8864 106.61 52.3182C106.61 51.642 106.414 51.1108 106.022 50.7244C105.63 50.3324 105.087 50.1364 104.394 50.1364H100.133V54.1591ZM100.133 48.3977H103.576C104.116 48.3977 104.579 48.3239 104.965 48.1761C105.352 48.0227 105.647 47.8068 105.852 47.5284C106.062 47.2443 106.167 46.9091 106.167 46.5227C106.167 45.9716 105.937 45.5398 105.477 45.2273C105.016 44.9091 104.383 44.75 103.576 44.75H100.133V48.3977ZM111.7 60.9091V42.9091H113.643V44.9886H113.882C114.03 44.7614 114.234 44.4716 114.496 44.1193C114.763 43.7614 115.143 43.4432 115.638 43.1648C116.138 42.8807 116.814 42.7386 117.666 42.7386C118.768 42.7386 119.74 43.0142 120.581 43.5653C121.422 44.1165 122.078 44.8977 122.55 45.9091C123.021 46.9205 123.257 48.1136 123.257 49.4886C123.257 50.875 123.021 52.0767 122.55 53.0938C122.078 54.1051 121.425 54.8892 120.589 55.446C119.754 55.9972 118.791 56.2727 117.7 56.2727C116.859 56.2727 116.186 56.1335 115.68 55.8551C115.175 55.571 114.786 55.25 114.513 54.892C114.24 54.5284 114.03 54.2273 113.882 53.9886H113.712V60.9091H111.7ZM113.678 49.4545C113.678 50.4432 113.822 51.3153 114.112 52.071C114.402 52.821 114.825 53.4091 115.382 53.8352C115.939 54.2557 116.621 54.4659 117.428 54.4659C118.268 54.4659 118.97 54.2443 119.533 53.8011C120.101 53.3523 120.527 52.75 120.811 51.9943C121.101 51.233 121.246 50.3864 121.246 49.4545C121.246 48.5341 121.104 47.7045 120.82 46.9659C120.541 46.2216 120.118 45.6335 119.55 45.2017C118.987 44.7642 118.28 44.5455 117.428 44.5455C116.609 44.5455 115.922 44.7528 115.365 45.1676C114.808 45.5767 114.388 46.1506 114.104 46.8892C113.82 47.6222 113.678 48.4773 113.678 49.4545ZM130.178 56.3068C129.348 56.3068 128.595 56.1506 127.919 55.8381C127.243 55.5199 126.706 55.0625 126.308 54.4659C125.911 53.8636 125.712 53.1364 125.712 52.2841C125.712 51.5341 125.859 50.9261 126.155 50.4602C126.45 49.9886 126.845 49.6193 127.339 49.3523C127.834 49.0852 128.379 48.8864 128.976 48.7557C129.578 48.6193 130.183 48.5114 130.791 48.4318C131.587 48.3295 132.232 48.2528 132.726 48.2017C133.226 48.1449 133.589 48.0511 133.817 47.9205C134.05 47.7898 134.166 47.5625 134.166 47.2386V47.1705C134.166 46.3295 133.936 45.6761 133.476 45.2102C133.021 44.7443 132.331 44.5114 131.405 44.5114C130.445 44.5114 129.692 44.7216 129.146 45.142C128.601 45.5625 128.217 46.0114 127.996 46.4886L126.087 45.8068C126.428 45.0114 126.882 44.392 127.45 43.9489C128.024 43.5 128.649 43.1875 129.325 43.0114C130.007 42.8295 130.678 42.7386 131.337 42.7386C131.757 42.7386 132.24 42.7898 132.786 42.892C133.337 42.9886 133.868 43.1903 134.379 43.4972C134.896 43.804 135.325 44.267 135.666 44.8864C136.007 45.5057 136.178 46.3352 136.178 47.375V56H134.166V54.2273H134.064C133.928 54.5114 133.7 54.8153 133.382 55.1392C133.064 55.4631 132.641 55.7386 132.112 55.9659C131.584 56.1932 130.939 56.3068 130.178 56.3068ZM130.484 54.5C131.28 54.5 131.95 54.3438 132.496 54.0312C133.047 53.7188 133.462 53.3153 133.74 52.821C134.024 52.3267 134.166 51.8068 134.166 51.2614V49.4205C134.081 49.5227 133.893 49.6165 133.604 49.7017C133.32 49.7812 132.99 49.8523 132.615 49.9148C132.246 49.9716 131.885 50.0227 131.533 50.0682C131.186 50.108 130.905 50.142 130.689 50.1705C130.166 50.2386 129.678 50.3494 129.223 50.5028C128.774 50.6506 128.411 50.875 128.132 51.1761C127.859 51.4716 127.723 51.875 127.723 52.3864C127.723 53.0852 127.982 53.6136 128.499 53.9716C129.021 54.3239 129.683 54.5 130.484 54.5ZM150.144 42.9091V54.125H151.985V60.2273H149.974V56H139.849V42.9091H141.86V54.125H148.133V42.9091H150.144ZM157.094 53.0341L163.401 42.9091H165.719V56H163.708V45.875L157.435 56H155.083V42.9091H157.094V53.0341ZM177.278 56V44.75H173.801C173.017 44.75 172.401 44.9318 171.952 45.2955C171.503 45.6591 171.278 46.1591 171.278 46.7955C171.278 47.4205 171.48 47.9119 171.884 48.2699C172.293 48.6278 172.852 48.8068 173.562 48.8068H177.79V50.6818H173.562C172.676 50.6818 171.912 50.5256 171.27 50.2131C170.628 49.9006 170.134 49.4545 169.787 48.875C169.44 48.2898 169.267 47.5966 169.267 46.7955C169.267 45.9886 169.449 45.2955 169.812 44.7159C170.176 44.1364 170.696 43.6903 171.372 43.3778C172.054 43.0653 172.864 42.9091 173.801 42.9091H179.188V56H177.278ZM168.551 56L172.267 49.4886H174.449L170.733 56H168.551ZM189.63 60.9091V42.9091H191.573V44.9886H191.812C191.96 44.7614 192.164 44.4716 192.425 44.1193C192.692 43.7614 193.073 43.4432 193.567 43.1648C194.067 42.8807 194.744 42.7386 195.596 42.7386C196.698 42.7386 197.67 43.0142 198.511 43.5653C199.352 44.1165 200.008 44.8977 200.479 45.9091C200.951 46.9205 201.187 48.1136 201.187 49.4886C201.187 50.875 200.951 52.0767 200.479 53.0938C200.008 54.1051 199.354 54.8892 198.519 55.446C197.684 55.9972 196.721 56.2727 195.63 56.2727C194.789 56.2727 194.116 56.1335 193.61 55.8551C193.104 55.571 192.715 55.25 192.442 54.892C192.17 54.5284 191.96 54.2273 191.812 53.9886H191.641V60.9091H189.63ZM191.607 49.4545C191.607 50.4432 191.752 51.3153 192.042 52.071C192.332 52.821 192.755 53.4091 193.312 53.8352C193.869 54.2557 194.55 54.4659 195.357 54.4659C196.198 54.4659 196.9 54.2443 197.462 53.8011C198.031 53.3523 198.457 52.75 198.741 51.9943C199.031 51.233 199.175 50.3864 199.175 49.4545C199.175 48.5341 199.033 47.7045 198.749 46.9659C198.471 46.2216 198.048 45.6335 197.479 45.2017C196.917 44.7642 196.21 44.5455 195.357 44.5455C194.539 44.5455 193.852 44.7528 193.295 45.1676C192.738 45.5767 192.317 46.1506 192.033 46.8892C191.749 47.6222 191.607 48.4773 191.607 49.4545ZM208.107 56.3068C207.278 56.3068 206.525 56.1506 205.849 55.8381C205.173 55.5199 204.636 55.0625 204.238 54.4659C203.84 53.8636 203.641 53.1364 203.641 52.2841C203.641 51.5341 203.789 50.9261 204.085 50.4602C204.38 49.9886 204.775 49.6193 205.269 49.3523C205.763 49.0852 206.309 48.8864 206.906 48.7557C207.508 48.6193 208.113 48.5114 208.721 48.4318C209.516 48.3295 210.161 48.2528 210.656 48.2017C211.156 48.1449 211.519 48.0511 211.746 47.9205C211.979 47.7898 212.096 47.5625 212.096 47.2386V47.1705C212.096 46.3295 211.866 45.6761 211.406 45.2102C210.951 44.7443 210.261 44.5114 209.335 44.5114C208.374 44.5114 207.621 44.7216 207.076 45.142C206.531 45.5625 206.147 46.0114 205.925 46.4886L204.016 45.8068C204.357 45.0114 204.812 44.392 205.38 43.9489C205.954 43.5 206.579 43.1875 207.255 43.0114C207.937 42.8295 208.607 42.7386 209.266 42.7386C209.687 42.7386 210.17 42.7898 210.715 42.892C211.266 42.9886 211.798 43.1903 212.309 43.4972C212.826 43.804 213.255 44.267 213.596 44.8864C213.937 45.5057 214.107 46.3352 214.107 47.375V56H212.096V54.2273H211.994C211.857 54.5114 211.63 54.8153 211.312 55.1392C210.994 55.4631 210.57 55.7386 210.042 55.9659C209.513 56.1932 208.869 56.3068 208.107 56.3068ZM208.414 54.5C209.21 54.5 209.88 54.3438 210.425 54.0312C210.977 53.7188 211.391 53.3153 211.67 52.821C211.954 52.3267 212.096 51.8068 212.096 51.2614V49.4205C212.011 49.5227 211.823 49.6165 211.533 49.7017C211.249 49.7812 210.92 49.8523 210.545 49.9148C210.175 49.9716 209.815 50.0227 209.462 50.0682C209.116 50.108 208.835 50.142 208.619 50.1705C208.096 50.2386 207.607 50.3494 207.153 50.5028C206.704 50.6506 206.34 50.875 206.062 51.1761C205.789 51.4716 205.653 51.875 205.653 52.3864C205.653 53.0852 205.911 53.6136 206.428 53.9716C206.951 54.3239 207.613 54.5 208.414 54.5ZM216.96 52.6591H219.108C219.153 53.25 219.42 53.6989 219.909 54.0057C220.403 54.3125 221.045 54.4659 221.835 54.4659C222.642 54.4659 223.332 54.3011 223.906 53.9716C224.48 53.6364 224.767 53.0966 224.767 52.3523C224.767 51.9148 224.659 51.5341 224.443 51.2102C224.227 50.8807 223.923 50.625 223.531 50.4432C223.139 50.2614 222.676 50.1705 222.142 50.1705H219.892V48.3636H222.142C222.943 48.3636 223.534 48.1818 223.915 47.8182C224.301 47.4545 224.494 47 224.494 46.4545C224.494 45.8693 224.287 45.4006 223.872 45.0483C223.457 44.6903 222.869 44.5114 222.108 44.5114C221.341 44.5114 220.702 44.6847 220.19 45.0312C219.679 45.3722 219.409 45.8125 219.381 46.3523H217.267C217.29 45.6477 217.506 45.0256 217.915 44.4858C218.324 43.9403 218.881 43.5142 219.585 43.2074C220.29 42.8949 221.097 42.7386 222.006 42.7386C222.926 42.7386 223.724 42.9006 224.401 43.2244C225.082 43.5426 225.608 43.9773 225.977 44.5284C226.352 45.0739 226.54 45.6932 226.54 46.3864C226.54 47.125 226.332 47.7216 225.918 48.1761C225.503 48.6307 224.983 48.9545 224.358 49.1477V49.2841C224.852 49.3182 225.281 49.4773 225.645 49.7614C226.014 50.0398 226.301 50.4062 226.506 50.8608C226.71 51.3097 226.812 51.8068 226.812 52.3523C226.812 53.1477 226.599 53.8409 226.173 54.4318C225.747 55.017 225.162 55.4716 224.418 55.7955C223.673 56.1136 222.824 56.2727 221.869 56.2727C220.943 56.2727 220.114 56.1222 219.381 55.821C218.648 55.5142 218.065 55.0909 217.634 54.5511C217.207 54.0057 216.983 53.375 216.96 52.6591ZM239.354 38L240.376 39.2273C239.979 39.6136 239.518 39.8835 238.996 40.0369C238.473 40.1903 237.882 40.2841 237.223 40.3182C236.564 40.3523 235.831 40.3864 235.024 40.4205C234.115 40.4545 233.362 40.6761 232.766 41.0852C232.169 41.4943 231.709 42.0852 231.385 42.858C231.061 43.6307 230.854 44.5795 230.763 45.7045H230.933C231.376 44.8864 231.99 44.2841 232.774 43.8977C233.558 43.5114 234.399 43.3182 235.297 43.3182C236.32 43.3182 237.24 43.5568 238.058 44.0341C238.876 44.5114 239.524 45.2188 240.001 46.1562C240.479 47.0938 240.717 48.25 240.717 49.625C240.717 50.9943 240.473 52.1761 239.984 53.1705C239.501 54.1648 238.822 54.9318 237.947 55.4716C237.078 56.0057 236.058 56.2727 234.888 56.2727C233.717 56.2727 232.692 55.9972 231.811 55.446C230.93 54.8892 230.246 54.0653 229.757 52.9744C229.268 51.8778 229.024 50.5227 229.024 48.9091V47.5114C229.024 44.5966 229.518 42.3864 230.507 40.8807C231.501 39.375 232.996 38.5966 234.99 38.5455C235.695 38.5227 236.322 38.517 236.874 38.5284C237.425 38.5398 237.905 38.5142 238.314 38.4517C238.723 38.3892 239.07 38.2386 239.354 38ZM234.888 54.4659C235.678 54.4659 236.357 54.267 236.925 53.8693C237.499 53.4716 237.939 52.9119 238.246 52.1903C238.553 51.4631 238.706 50.608 238.706 49.625C238.706 48.6705 238.55 47.858 238.237 47.1875C237.93 46.517 237.49 46.0057 236.916 45.6534C236.342 45.3011 235.655 45.125 234.854 45.125C234.268 45.125 233.743 45.2244 233.277 45.4233C232.811 45.6222 232.413 45.9148 232.084 46.3011C231.754 46.6875 231.499 47.1591 231.317 47.7159C231.141 48.2727 231.047 48.9091 231.036 49.625C231.036 51.0909 231.379 52.2642 232.067 53.1449C232.754 54.0256 233.695 54.4659 234.888 54.4659ZM245.805 53.0341L252.112 42.9091H254.43V56H252.419V45.875L246.146 56H243.794V42.9091H245.805V53.0341ZM256.333 44.7841V42.9091H266.969V44.7841H262.674V56H260.663V44.7841H256.333ZM271.642 47.6477H275.392C276.926 47.6477 278.099 48.0369 278.912 48.8153C279.724 49.5937 280.131 50.5795 280.131 51.7727C280.131 52.5568 279.949 53.2699 279.585 53.9119C279.222 54.5483 278.688 55.0568 277.983 55.4375C277.278 55.8125 276.415 56 275.392 56H269.903V42.9091H271.915V54.125H275.392C276.188 54.125 276.841 53.9148 277.352 53.4943C277.864 53.0739 278.119 52.5341 278.119 51.875C278.119 51.1818 277.864 50.6165 277.352 50.179C276.841 49.7415 276.188 49.5227 275.392 49.5227H271.642V47.6477ZM282.21 56V42.9091H284.222V56H282.21ZM289.403 42.9091L292.54 48.2614L295.676 42.9091H297.994L293.767 49.4545L297.994 56H295.676L292.54 50.9205L289.403 56H287.085L291.244 49.4545L287.085 42.9091H289.403ZM312.933 56.2727C311.705 56.2727 310.648 55.983 309.762 55.4034C308.876 54.8239 308.194 54.0256 307.717 53.0085C307.239 51.9915 307.001 50.8295 307.001 49.5227C307.001 48.1932 307.245 47.0199 307.734 46.0028C308.228 44.9801 308.915 44.1818 309.796 43.608C310.683 43.0284 311.717 42.7386 312.898 42.7386C313.819 42.7386 314.648 42.9091 315.387 43.25C316.126 43.5909 316.731 44.0682 317.202 44.6818C317.674 45.2955 317.967 46.0114 318.08 46.8295H316.069C315.915 46.233 315.575 45.7045 315.046 45.2443C314.523 44.7784 313.819 44.5455 312.933 44.5455C312.148 44.5455 311.461 44.75 310.87 45.1591C310.285 45.5625 309.827 46.1335 309.498 46.8722C309.174 47.6051 309.012 48.4659 309.012 49.4545C309.012 50.4659 309.171 51.3466 309.489 52.0966C309.813 52.8466 310.268 53.429 310.853 53.8438C311.444 54.2585 312.137 54.4659 312.933 54.4659C313.455 54.4659 313.93 54.375 314.356 54.1932C314.782 54.0114 315.143 53.75 315.438 53.4091C315.734 53.0682 315.944 52.6591 316.069 52.1818H318.08C317.967 52.9545 317.685 53.6506 317.237 54.2699C316.793 54.8835 316.205 55.3722 315.472 55.7358C314.745 56.0938 313.898 56.2727 312.933 56.2727ZM326.509 56.2727C325.248 56.2727 324.16 55.9943 323.245 55.4375C322.336 54.875 321.634 54.0909 321.14 53.0852C320.651 52.0739 320.407 50.8977 320.407 49.5568C320.407 48.2159 320.651 47.0341 321.14 46.0114C321.634 44.983 322.322 44.1818 323.202 43.608C324.089 43.0284 325.123 42.7386 326.305 42.7386C326.987 42.7386 327.66 42.8523 328.325 43.0795C328.989 43.3068 329.594 43.6761 330.14 44.1875C330.685 44.6932 331.12 45.3636 331.444 46.1989C331.768 47.0341 331.93 48.0625 331.93 49.2841V50.1364H321.839V48.3977H329.884C329.884 47.6591 329.737 47 329.441 46.4205C329.151 45.8409 328.737 45.3835 328.197 45.0483C327.663 44.7131 327.032 44.5455 326.305 44.5455C325.504 44.5455 324.81 44.7443 324.225 45.142C323.646 45.5341 323.2 46.0455 322.887 46.6761C322.575 47.3068 322.418 47.983 322.418 48.7045V49.8636C322.418 50.8523 322.589 51.6903 322.93 52.3778C323.276 53.0597 323.756 53.5795 324.37 53.9375C324.984 54.2898 325.697 54.4659 326.509 54.4659C327.038 54.4659 327.515 54.392 327.941 54.2443C328.373 54.0909 328.745 53.8636 329.058 53.5625C329.37 53.2557 329.612 52.875 329.782 52.4205L331.725 52.9659C331.521 53.625 331.177 54.2045 330.694 54.7045C330.211 55.1989 329.614 55.5852 328.904 55.8636C328.194 56.1364 327.396 56.2727 326.509 56.2727ZM334.989 60.9091V42.9091H336.933V44.9886H337.171C337.319 44.7614 337.523 44.4716 337.785 44.1193C338.052 43.7614 338.433 43.4432 338.927 43.1648C339.427 42.8807 340.103 42.7386 340.955 42.7386C342.058 42.7386 343.029 43.0142 343.87 43.5653C344.711 44.1165 345.367 44.8977 345.839 45.9091C346.31 46.9205 346.546 48.1136 346.546 49.4886C346.546 50.875 346.31 52.0767 345.839 53.0938C345.367 54.1051 344.714 54.8892 343.879 55.446C343.043 55.9972 342.08 56.2727 340.989 56.2727C340.148 56.2727 339.475 56.1335 338.969 55.8551C338.464 55.571 338.075 55.25 337.802 54.892C337.529 54.5284 337.319 54.2273 337.171 53.9886H337.001V60.9091H334.989ZM336.967 49.4545C336.967 50.4432 337.112 51.3153 337.401 52.071C337.691 52.821 338.114 53.4091 338.671 53.8352C339.228 54.2557 339.91 54.4659 340.717 54.4659C341.558 54.4659 342.259 54.2443 342.822 53.8011C343.39 53.3523 343.816 52.75 344.1 51.9943C344.39 51.233 344.535 50.3864 344.535 49.4545C344.535 48.5341 344.393 47.7045 344.109 46.9659C343.83 46.2216 343.407 45.6335 342.839 45.2017C342.276 44.7642 341.569 44.5455 340.717 44.5455C339.898 44.5455 339.211 44.7528 338.654 45.1676C338.097 45.5767 337.677 46.1506 337.393 46.8892C337.109 47.6222 336.967 48.4773 336.967 49.4545ZM348.217 59.75V54.125H349.308C349.575 53.8466 349.805 53.5455 349.998 53.2216C350.191 52.8977 350.359 52.5142 350.501 52.071C350.648 51.6222 350.773 51.0767 350.876 50.4347C350.978 49.7869 351.069 49.0057 351.148 48.0909L351.592 42.9091H359.91V54.125H361.921V59.75H359.91V56H350.228V59.75H348.217ZM351.592 54.125H357.898V44.7841H353.467L353.126 48.0909C352.984 49.4602 352.808 50.6562 352.597 51.679C352.387 52.7017 352.052 53.517 351.592 54.125ZM370.08 56.2727C368.818 56.2727 367.73 55.9943 366.815 55.4375C365.906 54.875 365.205 54.0909 364.71 53.0852C364.222 52.0739 363.977 50.8977 363.977 49.5568C363.977 48.2159 364.222 47.0341 364.71 46.0114C365.205 44.983 365.892 44.1818 366.773 43.608C367.659 43.0284 368.693 42.7386 369.875 42.7386C370.557 42.7386 371.23 42.8523 371.895 43.0795C372.56 43.3068 373.165 43.6761 373.71 44.1875C374.256 44.6932 374.69 45.3636 375.014 46.1989C375.338 47.0341 375.5 48.0625 375.5 49.2841V50.1364H365.409V48.3977H373.455C373.455 47.6591 373.307 47 373.011 46.4205C372.722 45.8409 372.307 45.3835 371.767 45.0483C371.233 44.7131 370.602 44.5455 369.875 44.5455C369.074 44.5455 368.381 44.7443 367.795 45.142C367.216 45.5341 366.77 46.0455 366.457 46.6761C366.145 47.3068 365.989 47.983 365.989 48.7045V49.8636C365.989 50.8523 366.159 51.6903 366.5 52.3778C366.847 53.0597 367.327 53.5795 367.94 53.9375C368.554 54.2898 369.267 54.4659 370.08 54.4659C370.608 54.4659 371.085 54.392 371.511 54.2443C371.943 54.0909 372.315 53.8636 372.628 53.5625C372.94 53.2557 373.182 52.875 373.352 52.4205L375.295 52.9659C375.091 53.625 374.747 54.2045 374.264 54.7045C373.781 55.1989 373.185 55.5852 372.474 55.8636C371.764 56.1364 370.966 56.2727 370.08 56.2727ZM388.855 42.9091V54.125H390.696V60.2273H388.685V56H378.56V42.9091H380.571V54.125H386.844V42.9091H388.855Z" fill="white"/>
<rect x="102" y="65" width="422" height="40" fill="#1D1C22"/>
<path d="M137.841 86.9091V68.9091H139.784V70.9886H140.023C140.17 70.7614 140.375 70.4716 140.636 70.1193C140.903 69.7614 141.284 69.4432 141.778 69.1648C142.278 68.8807 142.955 68.7386 143.807 68.7386C144.909 68.7386 145.881 69.0142 146.722 69.5653C147.563 70.1165 148.219 70.8977 148.69 71.9091C149.162 72.9205 149.398 74.1136 149.398 75.4886C149.398 76.875 149.162 78.0767 148.69 79.0938C148.219 80.1051 147.565 80.8892 146.73 81.446C145.895 81.9972 144.932 82.2727 143.841 82.2727C143 82.2727 142.327 82.1335 141.821 81.8551C141.315 81.571 140.926 81.25 140.653 80.892C140.381 80.5284 140.17 80.2273 140.023 79.9886H139.852V86.9091H137.841ZM139.818 75.4545C139.818 76.4432 139.963 77.3153 140.253 78.071C140.543 78.821 140.966 79.4091 141.523 79.8352C142.08 80.2557 142.761 80.4659 143.568 80.4659C144.409 80.4659 145.111 80.2443 145.673 79.8011C146.241 79.3523 146.668 78.75 146.952 77.9943C147.241 77.233 147.386 76.3864 147.386 75.4545C147.386 74.5341 147.244 73.7045 146.96 72.9659C146.682 72.2216 146.259 71.6335 145.69 71.2017C145.128 70.7642 144.42 70.5455 143.568 70.5455C142.75 70.5455 142.063 70.7528 141.506 71.1676C140.949 71.5767 140.528 72.1506 140.244 72.8892C139.96 73.6222 139.818 74.4773 139.818 75.4545ZM157.955 82.2727C156.693 82.2727 155.605 81.9943 154.69 81.4375C153.781 80.875 153.08 80.0909 152.585 79.0852C152.097 78.0739 151.852 76.8977 151.852 75.5568C151.852 74.2159 152.097 73.0341 152.585 72.0114C153.08 70.983 153.767 70.1818 154.648 69.608C155.534 69.0284 156.568 68.7386 157.75 68.7386C158.432 68.7386 159.105 68.8523 159.77 69.0795C160.435 69.3068 161.04 69.6761 161.585 70.1875C162.131 70.6932 162.565 71.3636 162.889 72.1989C163.213 73.0341 163.375 74.0625 163.375 75.2841V76.1364H153.284V74.3977H161.33C161.33 73.6591 161.182 73 160.886 72.4205C160.597 71.8409 160.182 71.3835 159.642 71.0483C159.108 70.7131 158.477 70.5455 157.75 70.5455C156.949 70.5455 156.256 70.7443 155.67 71.142C155.091 71.5341 154.645 72.0455 154.332 72.6761C154.02 73.3068 153.864 73.983 153.864 74.7045V75.8636C153.864 76.8523 154.034 77.6903 154.375 78.3778C154.722 79.0597 155.202 79.5795 155.815 79.9375C156.429 80.2898 157.142 80.4659 157.955 80.4659C158.483 80.4659 158.96 80.392 159.386 80.2443C159.818 80.0909 160.19 79.8636 160.503 79.5625C160.815 79.2557 161.057 78.875 161.227 78.4205L163.17 78.9659C162.966 79.625 162.622 80.2045 162.139 80.7045C161.656 81.1989 161.06 81.5852 160.349 81.8636C159.639 82.1364 158.841 82.2727 157.955 82.2727ZM171.753 82.2727C170.526 82.2727 169.469 81.983 168.582 81.4034C167.696 80.8239 167.014 80.0256 166.537 79.0085C166.06 77.9915 165.821 76.8295 165.821 75.5227C165.821 74.1932 166.065 73.0199 166.554 72.0028C167.048 70.9801 167.736 70.1818 168.616 69.608C169.503 69.0284 170.537 68.7386 171.719 68.7386C172.639 68.7386 173.469 68.9091 174.207 69.25C174.946 69.5909 175.551 70.0682 176.023 70.6818C176.494 71.2955 176.787 72.0114 176.901 72.8295H174.889C174.736 72.233 174.395 71.7045 173.866 71.2443C173.344 70.7784 172.639 70.5455 171.753 70.5455C170.969 70.5455 170.281 70.75 169.69 71.1591C169.105 71.5625 168.648 72.1335 168.318 72.8722C167.994 73.6051 167.832 74.4659 167.832 75.4545C167.832 76.4659 167.991 77.3466 168.31 78.0966C168.634 78.8466 169.088 79.429 169.673 79.8438C170.264 80.2585 170.957 80.4659 171.753 80.4659C172.276 80.4659 172.75 80.375 173.176 80.1932C173.602 80.0114 173.963 79.75 174.259 79.4091C174.554 79.0682 174.764 78.6591 174.889 78.1818H176.901C176.787 78.9545 176.506 79.6506 176.057 80.2699C175.614 80.8835 175.026 81.3722 174.293 81.7358C173.565 82.0938 172.719 82.2727 171.753 82.2727ZM178.81 70.7841V68.9091H189.446V70.7841H185.151V82H183.139V70.7841H178.81ZM195.553 82.3068C194.723 82.3068 193.97 82.1506 193.294 81.8381C192.618 81.5199 192.081 81.0625 191.683 80.4659C191.286 79.8636 191.087 79.1364 191.087 78.2841C191.087 77.5341 191.234 76.9261 191.53 76.4602C191.825 75.9886 192.22 75.6193 192.714 75.3523C193.209 75.0852 193.754 74.8864 194.351 74.7557C194.953 74.6193 195.558 74.5114 196.166 74.4318C196.962 74.3295 197.607 74.2528 198.101 74.2017C198.601 74.1449 198.964 74.0511 199.192 73.9205C199.425 73.7898 199.541 73.5625 199.541 73.2386V73.1705C199.541 72.3295 199.311 71.6761 198.851 71.2102C198.396 70.7443 197.706 70.5114 196.78 70.5114C195.82 70.5114 195.067 70.7216 194.521 71.142C193.976 71.5625 193.592 72.0114 193.371 72.4886L191.462 71.8068C191.803 71.0114 192.257 70.392 192.825 69.9489C193.399 69.5 194.024 69.1875 194.7 69.0114C195.382 68.8295 196.053 68.7386 196.712 68.7386C197.132 68.7386 197.615 68.7898 198.161 68.892C198.712 68.9886 199.243 69.1903 199.754 69.4972C200.271 69.804 200.7 70.267 201.041 70.8864C201.382 71.5057 201.553 72.3352 201.553 73.375V82H199.541V80.2273H199.439C199.303 80.5114 199.075 80.8153 198.757 81.1392C198.439 81.4631 198.016 81.7386 197.487 81.9659C196.959 82.1932 196.314 82.3068 195.553 82.3068ZM195.859 80.5C196.655 80.5 197.325 80.3438 197.871 80.0312C198.422 79.7188 198.837 79.3153 199.115 78.821C199.399 78.3267 199.541 77.8068 199.541 77.2614V75.4205C199.456 75.5227 199.268 75.6165 198.979 75.7017C198.695 75.7812 198.365 75.8523 197.99 75.9148C197.621 75.9716 197.26 76.0227 196.908 76.0682C196.561 76.108 196.28 76.142 196.064 76.1705C195.541 76.2386 195.053 76.3494 194.598 76.5028C194.149 76.6506 193.786 76.875 193.507 77.1761C193.234 77.4716 193.098 77.875 193.098 78.3864C193.098 79.0852 193.357 79.6136 193.874 79.9716C194.396 80.3239 195.058 80.5 195.859 80.5ZM205.224 82V68.9091H210.576C211.985 68.9091 213.104 69.2273 213.934 69.8636C214.763 70.5 215.178 71.3409 215.178 72.3864C215.178 73.1818 214.942 73.7983 214.471 74.2358C213.999 74.6676 213.394 74.9602 212.656 75.1136C213.138 75.1818 213.607 75.3523 214.062 75.625C214.522 75.8977 214.903 76.2727 215.204 76.75C215.505 77.2216 215.656 77.8011 215.656 78.4886C215.656 79.1591 215.485 79.7585 215.144 80.2869C214.803 80.8153 214.315 81.233 213.678 81.5398C213.042 81.8466 212.281 82 211.394 82H205.224ZM207.133 80.1591H211.394C212.087 80.1591 212.63 79.9943 213.022 79.6648C213.414 79.3352 213.61 78.8864 213.61 78.3182C213.61 77.642 213.414 77.1108 213.022 76.7244C212.63 76.3324 212.087 76.1364 211.394 76.1364H207.133V80.1591ZM207.133 74.3977H210.576C211.116 74.3977 211.579 74.3239 211.965 74.1761C212.352 74.0227 212.647 73.8068 212.852 73.5284C213.062 73.2443 213.167 72.9091 213.167 72.5227C213.167 71.9716 212.937 71.5398 212.477 71.2273C212.016 70.9091 211.383 70.75 210.576 70.75H207.133V74.3977ZM218.7 86.9091V68.9091H220.643V70.9886H220.882C221.03 70.7614 221.234 70.4716 221.496 70.1193C221.763 69.7614 222.143 69.4432 222.638 69.1648C223.138 68.8807 223.814 68.7386 224.666 68.7386C225.768 68.7386 226.74 69.0142 227.581 69.5653C228.422 70.1165 229.078 70.8977 229.55 71.9091C230.021 72.9205 230.257 74.1136 230.257 75.4886C230.257 76.875 230.021 78.0767 229.55 79.0938C229.078 80.1051 228.425 80.8892 227.589 81.446C226.754 81.9972 225.791 82.2727 224.7 82.2727C223.859 82.2727 223.186 82.1335 222.68 81.8551C222.175 81.571 221.786 81.25 221.513 80.892C221.24 80.5284 221.03 80.2273 220.882 79.9886H220.712V86.9091H218.7ZM220.678 75.4545C220.678 76.4432 220.822 77.3153 221.112 78.071C221.402 78.821 221.825 79.4091 222.382 79.8352C222.939 80.2557 223.621 80.4659 224.428 80.4659C225.268 80.4659 225.97 80.2443 226.533 79.8011C227.101 79.3523 227.527 78.75 227.811 77.9943C228.101 77.233 228.246 76.3864 228.246 75.4545C228.246 74.5341 228.104 73.7045 227.82 72.9659C227.541 72.2216 227.118 71.6335 226.55 71.2017C225.987 70.7642 225.28 70.5455 224.428 70.5455C223.609 70.5455 222.922 70.7528 222.365 71.1676C221.808 71.5767 221.388 72.1506 221.104 72.8892C220.82 73.6222 220.678 74.4773 220.678 75.4545ZM237.178 82.3068C236.348 82.3068 235.595 82.1506 234.919 81.8381C234.243 81.5199 233.706 81.0625 233.308 80.4659C232.911 79.8636 232.712 79.1364 232.712 78.2841C232.712 77.5341 232.859 76.9261 233.155 76.4602C233.45 75.9886 233.845 75.6193 234.339 75.3523C234.834 75.0852 235.379 74.8864 235.976 74.7557C236.578 74.6193 237.183 74.5114 237.791 74.4318C238.587 74.3295 239.232 74.2528 239.726 74.2017C240.226 74.1449 240.589 74.0511 240.817 73.9205C241.05 73.7898 241.166 73.5625 241.166 73.2386V73.1705C241.166 72.3295 240.936 71.6761 240.476 71.2102C240.021 70.7443 239.331 70.5114 238.405 70.5114C237.445 70.5114 236.692 70.7216 236.146 71.142C235.601 71.5625 235.217 72.0114 234.996 72.4886L233.087 71.8068C233.428 71.0114 233.882 70.392 234.45 69.9489C235.024 69.5 235.649 69.1875 236.325 69.0114C237.007 68.8295 237.678 68.7386 238.337 68.7386C238.757 68.7386 239.24 68.7898 239.786 68.892C240.337 68.9886 240.868 69.1903 241.379 69.4972C241.896 69.804 242.325 70.267 242.666 70.8864C243.007 71.5057 243.178 72.3352 243.178 73.375V82H241.166V80.2273H241.064C240.928 80.5114 240.7 80.8153 240.382 81.1392C240.064 81.4631 239.641 81.7386 239.112 81.9659C238.584 82.1932 237.939 82.3068 237.178 82.3068ZM237.484 80.5C238.28 80.5 238.95 80.3438 239.496 80.0312C240.047 79.7188 240.462 79.3153 240.74 78.821C241.024 78.3267 241.166 77.8068 241.166 77.2614V75.4205C241.081 75.5227 240.893 75.6165 240.604 75.7017C240.32 75.7812 239.99 75.8523 239.615 75.9148C239.246 75.9716 238.885 76.0227 238.533 76.0682C238.186 76.108 237.905 76.142 237.689 76.1705C237.166 76.2386 236.678 76.3494 236.223 76.5028C235.774 76.6506 235.411 76.875 235.132 77.1761C234.859 77.4716 234.723 77.875 234.723 78.3864C234.723 79.0852 234.982 79.6136 235.499 79.9716C236.021 80.3239 236.683 80.5 237.484 80.5ZM257.144 68.9091V80.125H258.985V86.2273H256.974V82H246.849V68.9091H248.86V80.125H255.133V68.9091H257.144ZM264.094 79.0341L270.401 68.9091H272.719V82H270.708V71.875L264.435 82H262.083V68.9091H264.094V79.0341ZM284.278 82V70.75H280.801C280.017 70.75 279.401 70.9318 278.952 71.2955C278.503 71.6591 278.278 72.1591 278.278 72.7955C278.278 73.4205 278.48 73.9119 278.884 74.2699C279.293 74.6278 279.852 74.8068 280.562 74.8068H284.79V76.6818H280.562C279.676 76.6818 278.912 76.5256 278.27 76.2131C277.628 75.9006 277.134 75.4545 276.787 74.875C276.44 74.2898 276.267 73.5966 276.267 72.7955C276.267 71.9886 276.449 71.2955 276.812 70.7159C277.176 70.1364 277.696 69.6903 278.372 69.3778C279.054 69.0653 279.864 68.9091 280.801 68.9091H286.188V82H284.278ZM275.551 82L279.267 75.4886H281.449L277.733 82H275.551ZM296.63 86.9091V68.9091H298.573V70.9886H298.812C298.96 70.7614 299.164 70.4716 299.425 70.1193C299.692 69.7614 300.073 69.4432 300.567 69.1648C301.067 68.8807 301.744 68.7386 302.596 68.7386C303.698 68.7386 304.67 69.0142 305.511 69.5653C306.352 70.1165 307.008 70.8977 307.479 71.9091C307.951 72.9205 308.187 74.1136 308.187 75.4886C308.187 76.875 307.951 78.0767 307.479 79.0938C307.008 80.1051 306.354 80.8892 305.519 81.446C304.684 81.9972 303.721 82.2727 302.63 82.2727C301.789 82.2727 301.116 82.1335 300.61 81.8551C300.104 81.571 299.715 81.25 299.442 80.892C299.17 80.5284 298.96 80.2273 298.812 79.9886H298.641V86.9091H296.63ZM298.607 75.4545C298.607 76.4432 298.752 77.3153 299.042 78.071C299.332 78.821 299.755 79.4091 300.312 79.8352C300.869 80.2557 301.55 80.4659 302.357 80.4659C303.198 80.4659 303.9 80.2443 304.462 79.8011C305.031 79.3523 305.457 78.75 305.741 77.9943C306.031 77.233 306.175 76.3864 306.175 75.4545C306.175 74.5341 306.033 73.7045 305.749 72.9659C305.471 72.2216 305.048 71.6335 304.479 71.2017C303.917 70.7642 303.21 70.5455 302.357 70.5455C301.539 70.5455 300.852 70.7528 300.295 71.1676C299.738 71.5767 299.317 72.1506 299.033 72.8892C298.749 73.6222 298.607 74.4773 298.607 75.4545ZM315.107 82.3068C314.278 82.3068 313.525 82.1506 312.849 81.8381C312.173 81.5199 311.636 81.0625 311.238 80.4659C310.84 79.8636 310.641 79.1364 310.641 78.2841C310.641 77.5341 310.789 76.9261 311.085 76.4602C311.38 75.9886 311.775 75.6193 312.269 75.3523C312.763 75.0852 313.309 74.8864 313.906 74.7557C314.508 74.6193 315.113 74.5114 315.721 74.4318C316.516 74.3295 317.161 74.2528 317.656 74.2017C318.156 74.1449 318.519 74.0511 318.746 73.9205C318.979 73.7898 319.096 73.5625 319.096 73.2386V73.1705C319.096 72.3295 318.866 71.6761 318.406 71.2102C317.951 70.7443 317.261 70.5114 316.335 70.5114C315.374 70.5114 314.621 70.7216 314.076 71.142C313.531 71.5625 313.147 72.0114 312.925 72.4886L311.016 71.8068C311.357 71.0114 311.812 70.392 312.38 69.9489C312.954 69.5 313.579 69.1875 314.255 69.0114C314.937 68.8295 315.607 68.7386 316.266 68.7386C316.687 68.7386 317.17 68.7898 317.715 68.892C318.266 68.9886 318.798 69.1903 319.309 69.4972C319.826 69.804 320.255 70.267 320.596 70.8864C320.937 71.5057 321.107 72.3352 321.107 73.375V82H319.096V80.2273H318.994C318.857 80.5114 318.63 80.8153 318.312 81.1392C317.994 81.4631 317.57 81.7386 317.042 81.9659C316.513 82.1932 315.869 82.3068 315.107 82.3068ZM315.414 80.5C316.21 80.5 316.88 80.3438 317.425 80.0312C317.977 79.7188 318.391 79.3153 318.67 78.821C318.954 78.3267 319.096 77.8068 319.096 77.2614V75.4205C319.011 75.5227 318.823 75.6165 318.533 75.7017C318.249 75.7812 317.92 75.8523 317.545 75.9148C317.175 75.9716 316.815 76.0227 316.462 76.0682C316.116 76.108 315.835 76.142 315.619 76.1705C315.096 76.2386 314.607 76.3494 314.153 76.5028C313.704 76.6506 313.34 76.875 313.062 77.1761C312.789 77.4716 312.653 77.875 312.653 78.3864C312.653 79.0852 312.911 79.6136 313.428 79.9716C313.951 80.3239 314.613 80.5 315.414 80.5ZM323.96 78.6591H326.108C326.153 79.25 326.42 79.6989 326.909 80.0057C327.403 80.3125 328.045 80.4659 328.835 80.4659C329.642 80.4659 330.332 80.3011 330.906 79.9716C331.48 79.6364 331.767 79.0966 331.767 78.3523C331.767 77.9148 331.659 77.5341 331.443 77.2102C331.227 76.8807 330.923 76.625 330.531 76.4432C330.139 76.2614 329.676 76.1705 329.142 76.1705H326.892V74.3636H329.142C329.943 74.3636 330.534 74.1818 330.915 73.8182C331.301 73.4545 331.494 73 331.494 72.4545C331.494 71.8693 331.287 71.4006 330.872 71.0483C330.457 70.6903 329.869 70.5114 329.108 70.5114C328.341 70.5114 327.702 70.6847 327.19 71.0312C326.679 71.3722 326.409 71.8125 326.381 72.3523H324.267C324.29 71.6477 324.506 71.0256 324.915 70.4858C325.324 69.9403 325.881 69.5142 326.585 69.2074C327.29 68.8949 328.097 68.7386 329.006 68.7386C329.926 68.7386 330.724 68.9006 331.401 69.2244C332.082 69.5426 332.608 69.9773 332.977 70.5284C333.352 71.0739 333.54 71.6932 333.54 72.3864C333.54 73.125 333.332 73.7216 332.918 74.1761C332.503 74.6307 331.983 74.9545 331.358 75.1477V75.2841C331.852 75.3182 332.281 75.4773 332.645 75.7614C333.014 76.0398 333.301 76.4062 333.506 76.8608C333.71 77.3097 333.812 77.8068 333.812 78.3523C333.812 79.1477 333.599 79.8409 333.173 80.4318C332.747 81.017 332.162 81.4716 331.418 81.7955C330.673 82.1136 329.824 82.2727 328.869 82.2727C327.943 82.2727 327.114 82.1222 326.381 81.821C325.648 81.5142 325.065 81.0909 324.634 80.5511C324.207 80.0057 323.983 79.375 323.96 78.6591ZM346.354 64L347.376 65.2273C346.979 65.6136 346.518 65.8835 345.996 66.0369C345.473 66.1903 344.882 66.2841 344.223 66.3182C343.564 66.3523 342.831 66.3864 342.024 66.4205C341.115 66.4545 340.362 66.6761 339.766 67.0852C339.169 67.4943 338.709 68.0852 338.385 68.858C338.061 69.6307 337.854 70.5795 337.763 71.7045H337.933C338.376 70.8864 338.99 70.2841 339.774 69.8977C340.558 69.5114 341.399 69.3182 342.297 69.3182C343.32 69.3182 344.24 69.5568 345.058 70.0341C345.876 70.5114 346.524 71.2188 347.001 72.1562C347.479 73.0938 347.717 74.25 347.717 75.625C347.717 76.9943 347.473 78.1761 346.984 79.1705C346.501 80.1648 345.822 80.9318 344.947 81.4716C344.078 82.0057 343.058 82.2727 341.888 82.2727C340.717 82.2727 339.692 81.9972 338.811 81.446C337.93 80.8892 337.246 80.0653 336.757 78.9744C336.268 77.8778 336.024 76.5227 336.024 74.9091V73.5114C336.024 70.5966 336.518 68.3864 337.507 66.8807C338.501 65.375 339.996 64.5966 341.99 64.5455C342.695 64.5227 343.322 64.517 343.874 64.5284C344.425 64.5398 344.905 64.5142 345.314 64.4517C345.723 64.3892 346.07 64.2386 346.354 64ZM341.888 80.4659C342.678 80.4659 343.357 80.267 343.925 79.8693C344.499 79.4716 344.939 78.9119 345.246 78.1903C345.553 77.4631 345.706 76.608 345.706 75.625C345.706 74.6705 345.55 73.858 345.237 73.1875C344.93 72.517 344.49 72.0057 343.916 71.6534C343.342 71.3011 342.655 71.125 341.854 71.125C341.268 71.125 340.743 71.2244 340.277 71.4233C339.811 71.6222 339.413 71.9148 339.084 72.3011C338.754 72.6875 338.499 73.1591 338.317 73.7159C338.141 74.2727 338.047 74.9091 338.036 75.625C338.036 77.0909 338.379 78.2642 339.067 79.1449C339.754 80.0256 340.695 80.4659 341.888 80.4659ZM352.805 79.0341L359.112 68.9091H361.43V82H359.419V71.875L353.146 82H350.794V68.9091H352.805V79.0341ZM363.333 70.7841V68.9091H373.969V70.7841H369.674V82H367.663V70.7841H363.333ZM378.642 73.6477H382.392C383.926 73.6477 385.099 74.0369 385.912 74.8153C386.724 75.5937 387.131 76.5795 387.131 77.7727C387.131 78.5568 386.949 79.2699 386.585 79.9119C386.222 80.5483 385.688 81.0568 384.983 81.4375C384.278 81.8125 383.415 82 382.392 82H376.903V68.9091H378.915V80.125H382.392C383.188 80.125 383.841 79.9148 384.352 79.4943C384.864 79.0739 385.119 78.5341 385.119 77.875C385.119 77.1818 384.864 76.6165 384.352 76.179C383.841 75.7415 383.188 75.5227 382.392 75.5227H378.642V73.6477ZM389.21 82V68.9091H391.222V82H389.21ZM396.403 68.9091L399.54 74.2614L402.676 68.9091H404.994L400.767 75.4545L404.994 82H402.676L399.54 76.9205L396.403 82H394.085L398.244 75.4545L394.085 68.9091H396.403ZM419.933 82.2727C418.705 82.2727 417.648 81.983 416.762 81.4034C415.876 80.8239 415.194 80.0256 414.717 79.0085C414.239 77.9915 414.001 76.8295 414.001 75.5227C414.001 74.1932 414.245 73.0199 414.734 72.0028C415.228 70.9801 415.915 70.1818 416.796 69.608C417.683 69.0284 418.717 68.7386 419.898 68.7386C420.819 68.7386 421.648 68.9091 422.387 69.25C423.126 69.5909 423.731 70.0682 424.202 70.6818C424.674 71.2955 424.967 72.0114 425.08 72.8295H423.069C422.915 72.233 422.575 71.7045 422.046 71.2443C421.523 70.7784 420.819 70.5455 419.933 70.5455C419.148 70.5455 418.461 70.75 417.87 71.1591C417.285 71.5625 416.827 72.1335 416.498 72.8722C416.174 73.6051 416.012 74.4659 416.012 75.4545C416.012 76.4659 416.171 77.3466 416.489 78.0966C416.813 78.8466 417.268 79.429 417.853 79.8438C418.444 80.2585 419.137 80.4659 419.933 80.4659C420.455 80.4659 420.93 80.375 421.356 80.1932C421.782 80.0114 422.143 79.75 422.438 79.4091C422.734 79.0682 422.944 78.6591 423.069 78.1818H425.08C424.967 78.9545 424.685 79.6506 424.237 80.2699C423.793 80.8835 423.205 81.3722 422.472 81.7358C421.745 82.0938 420.898 82.2727 419.933 82.2727ZM433.509 82.2727C432.248 82.2727 431.16 81.9943 430.245 81.4375C429.336 80.875 428.634 80.0909 428.14 79.0852C427.651 78.0739 427.407 76.8977 427.407 75.5568C427.407 74.2159 427.651 73.0341 428.14 72.0114C428.634 70.983 429.322 70.1818 430.202 69.608C431.089 69.0284 432.123 68.7386 433.305 68.7386C433.987 68.7386 434.66 68.8523 435.325 69.0795C435.989 69.3068 436.594 69.6761 437.14 70.1875C437.685 70.6932 438.12 71.3636 438.444 72.1989C438.768 73.0341 438.93 74.0625 438.93 75.2841V76.1364H428.839V74.3977H436.884C436.884 73.6591 436.737 73 436.441 72.4205C436.151 71.8409 435.737 71.3835 435.197 71.0483C434.663 70.7131 434.032 70.5455 433.305 70.5455C432.504 70.5455 431.81 70.7443 431.225 71.142C430.646 71.5341 430.2 72.0455 429.887 72.6761C429.575 73.3068 429.418 73.983 429.418 74.7045V75.8636C429.418 76.8523 429.589 77.6903 429.93 78.3778C430.276 79.0597 430.756 79.5795 431.37 79.9375C431.984 80.2898 432.697 80.4659 433.509 80.4659C434.038 80.4659 434.515 80.392 434.941 80.2443C435.373 80.0909 435.745 79.8636 436.058 79.5625C436.37 79.2557 436.612 78.875 436.782 78.4205L438.725 78.9659C438.521 79.625 438.177 80.2045 437.694 80.7045C437.211 81.1989 436.614 81.5852 435.904 81.8636C435.194 82.1364 434.396 82.2727 433.509 82.2727ZM441.989 86.9091V68.9091H443.933V70.9886H444.171C444.319 70.7614 444.523 70.4716 444.785 70.1193C445.052 69.7614 445.433 69.4432 445.927 69.1648C446.427 68.8807 447.103 68.7386 447.955 68.7386C449.058 68.7386 450.029 69.0142 450.87 69.5653C451.711 70.1165 452.367 70.8977 452.839 71.9091C453.31 72.9205 453.546 74.1136 453.546 75.4886C453.546 76.875 453.31 78.0767 452.839 79.0938C452.367 80.1051 451.714 80.8892 450.879 81.446C450.043 81.9972 449.08 82.2727 447.989 82.2727C447.148 82.2727 446.475 82.1335 445.969 81.8551C445.464 81.571 445.075 81.25 444.802 80.892C444.529 80.5284 444.319 80.2273 444.171 79.9886H444.001V86.9091H441.989ZM443.967 75.4545C443.967 76.4432 444.112 77.3153 444.401 78.071C444.691 78.821 445.114 79.4091 445.671 79.8352C446.228 80.2557 446.91 80.4659 447.717 80.4659C448.558 80.4659 449.259 80.2443 449.822 79.8011C450.39 79.3523 450.816 78.75 451.1 77.9943C451.39 77.233 451.535 76.3864 451.535 75.4545C451.535 74.5341 451.393 73.7045 451.109 72.9659C450.83 72.2216 450.407 71.6335 449.839 71.2017C449.276 70.7642 448.569 70.5455 447.717 70.5455C446.898 70.5455 446.211 70.7528 445.654 71.1676C445.097 71.5767 444.677 72.1506 444.393 72.8892C444.109 73.6222 443.967 74.4773 443.967 75.4545ZM455.217 85.75V80.125H456.308C456.575 79.8466 456.805 79.5455 456.998 79.2216C457.191 78.8977 457.359 78.5142 457.501 78.071C457.648 77.6222 457.773 77.0767 457.876 76.4347C457.978 75.7869 458.069 75.0057 458.148 74.0909L458.592 68.9091H466.91V80.125H468.921V85.75H466.91V82H457.228V85.75H455.217ZM458.592 80.125H464.898V70.7841H460.467L460.126 74.0909C459.984 75.4602 459.808 76.6562 459.597 77.679C459.387 78.7017 459.052 79.517 458.592 80.125ZM477.08 82.2727C475.818 82.2727 474.73 81.9943 473.815 81.4375C472.906 80.875 472.205 80.0909 471.71 79.0852C471.222 78.0739 470.977 76.8977 470.977 75.5568C470.977 74.2159 471.222 73.0341 471.71 72.0114C472.205 70.983 472.892 70.1818 473.773 69.608C474.659 69.0284 475.693 68.7386 476.875 68.7386C477.557 68.7386 478.23 68.8523 478.895 69.0795C479.56 69.3068 480.165 69.6761 480.71 70.1875C481.256 70.6932 481.69 71.3636 482.014 72.1989C482.338 73.0341 482.5 74.0625 482.5 75.2841V76.1364H472.409V74.3977H480.455C480.455 73.6591 480.307 73 480.011 72.4205C479.722 71.8409 479.307 71.3835 478.767 71.0483C478.233 70.7131 477.602 70.5455 476.875 70.5455C476.074 70.5455 475.381 70.7443 474.795 71.142C474.216 71.5341 473.77 72.0455 473.457 72.6761C473.145 73.3068 472.989 73.983 472.989 74.7045V75.8636C472.989 76.8523 473.159 77.6903 473.5 78.3778C473.847 79.0597 474.327 79.5795 474.94 79.9375C475.554 80.2898 476.267 80.4659 477.08 80.4659C477.608 80.4659 478.085 80.392 478.511 80.2443C478.943 80.0909 479.315 79.8636 479.628 79.5625C479.94 79.2557 480.182 78.875 480.352 78.4205L482.295 78.9659C482.091 79.625 481.747 80.2045 481.264 80.7045C480.781 81.1989 480.185 81.5852 479.474 81.8636C478.764 82.1364 477.966 82.2727 477.08 82.2727ZM495.855 68.9091V80.125H497.696V86.2273H495.685V82H485.56V68.9091H487.571V80.125H493.844V68.9091H495.855Z" fill="white"/>
</svg>
