<svg width="519" height="76" viewBox="0 0 519 76" fill="none" xmlns="http://www.w3.org/2000/svg">
<rect width="408" height="40" fill="#1D1C22"/>
<path d="M31.8409 31.9091V13.9091H33.7841V15.9886H34.0227C34.1705 15.7614 34.375 15.4716 34.6364 15.1193C34.9034 14.7614 35.2841 14.4432 35.7784 14.1648C36.2784 13.8807 36.9545 13.7386 37.8068 13.7386C38.9091 13.7386 39.8807 14.0142 40.7216 14.5653C41.5625 15.1165 42.2188 15.8977 42.6903 16.9091C43.1619 17.9205 43.3977 19.1136 43.3977 20.4886C43.3977 21.875 43.1619 23.0767 42.6903 24.0938C42.2188 25.1051 41.5653 25.8892 40.7301 26.446C39.8949 26.9972 38.9318 27.2727 37.8409 27.2727C37 27.2727 36.3267 27.1335 35.821 26.8551C35.3153 26.571 34.9261 26.25 34.6534 25.892C34.3807 25.5284 34.1705 25.2273 34.0227 24.9886H33.8523V31.9091H31.8409ZM33.8182 20.4545C33.8182 21.4432 33.9631 22.3153 34.2528 23.071C34.5426 23.821 34.9659 24.4091 35.5227 24.8352C36.0795 25.2557 36.7614 25.4659 37.5682 25.4659C38.4091 25.4659 39.1108 25.2443 39.6733 24.8011C40.2415 24.3523 40.6676 23.75 40.9517 22.9943C41.2415 22.233 41.3864 21.3864 41.3864 20.4545C41.3864 19.5341 41.2443 18.7045 40.9602 17.9659C40.6818 17.2216 40.2585 16.6335 39.6903 16.2017C39.1278 15.7642 38.4205 15.5455 37.5682 15.5455C36.75 15.5455 36.0625 15.7528 35.5057 16.1676C34.9489 16.5767 34.5284 17.1506 34.2443 17.8892C33.9602 18.6222 33.8182 19.4773 33.8182 20.4545ZM51.9545 27.2727C50.6932 27.2727 49.6051 26.9943 48.6903 26.4375C47.7812 25.875 47.0795 25.0909 46.5852 24.0852C46.0966 23.0739 45.8523 21.8977 45.8523 20.5568C45.8523 19.2159 46.0966 18.0341 46.5852 17.0114C47.0795 15.983 47.767 15.1818 48.6477 14.608C49.5341 14.0284 50.5682 13.7386 51.75 13.7386C52.4318 13.7386 53.1051 13.8523 53.7699 14.0795C54.4347 14.3068 55.0398 14.6761 55.5852 15.1875C56.1307 15.6932 56.5653 16.3636 56.8892 17.1989C57.2131 18.0341 57.375 19.0625 57.375 20.2841V21.1364H47.2841V19.3977H55.3295C55.3295 18.6591 55.1818 18 54.8864 17.4205C54.5966 16.8409 54.1818 16.3835 53.642 16.0483C53.108 15.7131 52.4773 15.5455 51.75 15.5455C50.9489 15.5455 50.2557 15.7443 49.6705 16.142C49.0909 16.5341 48.6449 17.0455 48.3324 17.6761C48.0199 18.3068 47.8636 18.983 47.8636 19.7045V20.8636C47.8636 21.8523 48.0341 22.6903 48.375 23.3778C48.7216 24.0597 49.2017 24.5795 49.8153 24.9375C50.429 25.2898 51.142 25.4659 51.9545 25.4659C52.483 25.4659 52.9602 25.392 53.3864 25.2443C53.8182 25.0909 54.1903 24.8636 54.5028 24.5625C54.8153 24.2557 55.0568 23.875 55.2273 23.4205L57.1705 23.9659C56.9659 24.625 56.6222 25.2045 56.1392 25.7045C55.6563 26.1989 55.0597 26.5852 54.3494 26.8636C53.6392 27.1364 52.8409 27.2727 51.9545 27.2727ZM65.7528 27.2727C64.5256 27.2727 63.4688 26.983 62.5824 26.4034C61.696 25.8239 61.0142 25.0256 60.5369 24.0085C60.0597 22.9915 59.821 21.8295 59.821 20.5227C59.821 19.1932 60.0653 18.0199 60.554 17.0028C61.0483 15.9801 61.7358 15.1818 62.6165 14.608C63.5028 14.0284 64.5369 13.7386 65.7188 13.7386C66.6392 13.7386 67.4688 13.9091 68.2074 14.25C68.946 14.5909 69.5511 15.0682 70.0227 15.6818C70.4943 16.2955 70.7869 17.0114 70.9006 17.8295H68.8892C68.7358 17.233 68.3949 16.7045 67.8665 16.2443C67.3438 15.7784 66.6392 15.5455 65.7528 15.5455C64.9688 15.5455 64.2813 15.75 63.6903 16.1591C63.1051 16.5625 62.6477 17.1335 62.3182 17.8722C61.9943 18.6051 61.8324 19.4659 61.8324 20.4545C61.8324 21.4659 61.9915 22.3466 62.3097 23.0966C62.6335 23.8466 63.0881 24.429 63.6733 24.8438C64.2642 25.2585 64.9574 25.4659 65.7528 25.4659C66.2756 25.4659 66.75 25.375 67.1761 25.1932C67.6023 25.0114 67.9631 24.75 68.2585 24.4091C68.554 24.0682 68.7642 23.6591 68.8892 23.1818H70.9006C70.7869 23.9545 70.5057 24.6506 70.0568 25.2699C69.6136 25.8835 69.0256 26.3722 68.2926 26.7358C67.5653 27.0938 66.7188 27.2727 65.7528 27.2727ZM72.8097 15.7841V13.9091H83.446V15.7841H79.1506V27H77.1392V15.7841H72.8097ZM89.5526 27.3068C88.723 27.3068 87.9702 27.1506 87.294 26.8381C86.6179 26.5199 86.081 26.0625 85.6832 25.4659C85.2855 24.8636 85.0866 24.1364 85.0866 23.2841C85.0866 22.5341 85.2344 21.9261 85.5298 21.4602C85.8253 20.9886 86.2202 20.6193 86.7145 20.3523C87.2088 20.0852 87.7543 19.8864 88.3509 19.7557C88.9531 19.6193 89.5582 19.5114 90.1662 19.4318C90.9616 19.3295 91.6065 19.2528 92.1009 19.2017C92.6009 19.1449 92.9645 19.0511 93.1918 18.9205C93.4247 18.7898 93.5412 18.5625 93.5412 18.2386V18.1705C93.5412 17.3295 93.3111 16.6761 92.8509 16.2102C92.3963 15.7443 91.706 15.5114 90.7798 15.5114C89.8196 15.5114 89.0668 15.7216 88.5213 16.142C87.9759 16.5625 87.5923 17.0114 87.3707 17.4886L85.4616 16.8068C85.8026 16.0114 86.2571 15.392 86.8253 14.9489C87.3991 14.5 88.0241 14.1875 88.7003 14.0114C89.3821 13.8295 90.0526 13.7386 90.7116 13.7386C91.1321 13.7386 91.6151 13.7898 92.1605 13.892C92.7116 13.9886 93.2429 14.1903 93.7543 14.4972C94.2713 14.804 94.7003 15.267 95.0412 15.8864C95.3821 16.5057 95.5526 17.3352 95.5526 18.375V27H93.5412V25.2273H93.4389C93.3026 25.5114 93.0753 25.8153 92.7571 26.1392C92.4389 26.4631 92.0156 26.7386 91.4872 26.9659C90.9588 27.1932 90.3139 27.3068 89.5526 27.3068ZM89.8594 25.5C90.6548 25.5 91.3253 25.3438 91.8707 25.0312C92.4219 24.7188 92.8366 24.3153 93.1151 23.821C93.3991 23.3267 93.5412 22.8068 93.5412 22.2614V20.4205C93.456 20.5227 93.2685 20.6165 92.9787 20.7017C92.6946 20.7812 92.3651 20.8523 91.9901 20.9148C91.6207 20.9716 91.2599 21.0227 90.9077 21.0682C90.5611 21.108 90.2798 21.142 90.0639 21.1705C89.5412 21.2386 89.0526 21.3494 88.598 21.5028C88.1491 21.6506 87.7855 21.875 87.5071 22.1761C87.2344 22.4716 87.098 22.875 87.098 23.3864C87.098 24.0852 87.3565 24.6136 87.8736 24.9716C88.3963 25.3239 89.0582 25.5 89.8594 25.5ZM99.2237 27V13.9091H104.576C105.985 13.9091 107.104 14.2273 107.934 14.8636C108.763 15.5 109.178 16.3409 109.178 17.3864C109.178 18.1818 108.942 18.7983 108.471 19.2358C107.999 19.6676 107.394 19.9602 106.656 20.1136C107.138 20.1818 107.607 20.3523 108.062 20.625C108.522 20.8977 108.903 21.2727 109.204 21.75C109.505 22.2216 109.656 22.8011 109.656 23.4886C109.656 24.1591 109.485 24.7585 109.144 25.2869C108.803 25.8153 108.315 26.233 107.678 26.5398C107.042 26.8466 106.281 27 105.394 27H99.2237ZM101.133 25.1591H105.394C106.087 25.1591 106.63 24.9943 107.022 24.6648C107.414 24.3352 107.61 23.8864 107.61 23.3182C107.61 22.642 107.414 22.1108 107.022 21.7244C106.63 21.3324 106.087 21.1364 105.394 21.1364H101.133V25.1591ZM101.133 19.3977H104.576C105.116 19.3977 105.579 19.3239 105.965 19.1761C106.352 19.0227 106.647 18.8068 106.852 18.5284C107.062 18.2443 107.167 17.9091 107.167 17.5227C107.167 16.9716 106.937 16.5398 106.477 16.2273C106.016 15.9091 105.383 15.75 104.576 15.75H101.133V19.3977ZM112.7 31.9091V13.9091H114.643V15.9886H114.882C115.03 15.7614 115.234 15.4716 115.496 15.1193C115.763 14.7614 116.143 14.4432 116.638 14.1648C117.138 13.8807 117.814 13.7386 118.666 13.7386C119.768 13.7386 120.74 14.0142 121.581 14.5653C122.422 15.1165 123.078 15.8977 123.55 16.9091C124.021 17.9205 124.257 19.1136 124.257 20.4886C124.257 21.875 124.021 23.0767 123.55 24.0938C123.078 25.1051 122.425 25.8892 121.589 26.446C120.754 26.9972 119.791 27.2727 118.7 27.2727C117.859 27.2727 117.186 27.1335 116.68 26.8551C116.175 26.571 115.786 26.25 115.513 25.892C115.24 25.5284 115.03 25.2273 114.882 24.9886H114.712V31.9091H112.7ZM114.678 20.4545C114.678 21.4432 114.822 22.3153 115.112 23.071C115.402 23.821 115.825 24.4091 116.382 24.8352C116.939 25.2557 117.621 25.4659 118.428 25.4659C119.268 25.4659 119.97 25.2443 120.533 24.8011C121.101 24.3523 121.527 23.75 121.811 22.9943C122.101 22.233 122.246 21.3864 122.246 20.4545C122.246 19.5341 122.104 18.7045 121.82 17.9659C121.541 17.2216 121.118 16.6335 120.55 16.2017C119.987 15.7642 119.28 15.5455 118.428 15.5455C117.609 15.5455 116.922 15.7528 116.365 16.1676C115.808 16.5767 115.388 17.1506 115.104 17.8892C114.82 18.6222 114.678 19.4773 114.678 20.4545ZM131.178 27.3068C130.348 27.3068 129.595 27.1506 128.919 26.8381C128.243 26.5199 127.706 26.0625 127.308 25.4659C126.911 24.8636 126.712 24.1364 126.712 23.2841C126.712 22.5341 126.859 21.9261 127.155 21.4602C127.45 20.9886 127.845 20.6193 128.339 20.3523C128.834 20.0852 129.379 19.8864 129.976 19.7557C130.578 19.6193 131.183 19.5114 131.791 19.4318C132.587 19.3295 133.232 19.2528 133.726 19.2017C134.226 19.1449 134.589 19.0511 134.817 18.9205C135.05 18.7898 135.166 18.5625 135.166 18.2386V18.1705C135.166 17.3295 134.936 16.6761 134.476 16.2102C134.021 15.7443 133.331 15.5114 132.405 15.5114C131.445 15.5114 130.692 15.7216 130.146 16.142C129.601 16.5625 129.217 17.0114 128.996 17.4886L127.087 16.8068C127.428 16.0114 127.882 15.392 128.45 14.9489C129.024 14.5 129.649 14.1875 130.325 14.0114C131.007 13.8295 131.678 13.7386 132.337 13.7386C132.757 13.7386 133.24 13.7898 133.786 13.892C134.337 13.9886 134.868 14.1903 135.379 14.4972C135.896 14.804 136.325 15.267 136.666 15.8864C137.007 16.5057 137.178 17.3352 137.178 18.375V27H135.166V25.2273H135.064C134.928 25.5114 134.7 25.8153 134.382 26.1392C134.064 26.4631 133.641 26.7386 133.112 26.9659C132.584 27.1932 131.939 27.3068 131.178 27.3068ZM131.484 25.5C132.28 25.5 132.95 25.3438 133.496 25.0312C134.047 24.7188 134.462 24.3153 134.74 23.821C135.024 23.3267 135.166 22.8068 135.166 22.2614V20.4205C135.081 20.5227 134.893 20.6165 134.604 20.7017C134.32 20.7812 133.99 20.8523 133.615 20.9148C133.246 20.9716 132.885 21.0227 132.533 21.0682C132.186 21.108 131.905 21.142 131.689 21.1705C131.166 21.2386 130.678 21.3494 130.223 21.5028C129.774 21.6506 129.411 21.875 129.132 22.1761C128.859 22.4716 128.723 22.875 128.723 23.3864C128.723 24.0852 128.982 24.6136 129.499 24.9716C130.021 25.3239 130.683 25.5 131.484 25.5ZM151.144 13.9091V25.125H152.985V31.2273H150.974V27H140.849V13.9091H142.86V25.125H149.133V13.9091H151.144ZM158.094 24.0341L164.401 13.9091H166.719V27H164.708V16.875L158.435 27H156.083V13.9091H158.094V24.0341ZM178.278 27V15.75H174.801C174.017 15.75 173.401 15.9318 172.952 16.2955C172.503 16.6591 172.278 17.1591 172.278 17.7955C172.278 18.4205 172.48 18.9119 172.884 19.2699C173.293 19.6278 173.852 19.8068 174.562 19.8068H178.79V21.6818H174.562C173.676 21.6818 172.912 21.5256 172.27 21.2131C171.628 20.9006 171.134 20.4545 170.787 19.875C170.44 19.2898 170.267 18.5966 170.267 17.7955C170.267 16.9886 170.449 16.2955 170.812 15.7159C171.176 15.1364 171.696 14.6903 172.372 14.3778C173.054 14.0653 173.864 13.9091 174.801 13.9091H180.188V27H178.278ZM169.551 27L173.267 20.4886H175.449L171.733 27H169.551ZM190.63 31.9091V13.9091H192.573V15.9886H192.812C192.96 15.7614 193.164 15.4716 193.425 15.1193C193.692 14.7614 194.073 14.4432 194.567 14.1648C195.067 13.8807 195.744 13.7386 196.596 13.7386C197.698 13.7386 198.67 14.0142 199.511 14.5653C200.352 15.1165 201.008 15.8977 201.479 16.9091C201.951 17.9205 202.187 19.1136 202.187 20.4886C202.187 21.875 201.951 23.0767 201.479 24.0938C201.008 25.1051 200.354 25.8892 199.519 26.446C198.684 26.9972 197.721 27.2727 196.63 27.2727C195.789 27.2727 195.116 27.1335 194.61 26.8551C194.104 26.571 193.715 26.25 193.442 25.892C193.17 25.5284 192.96 25.2273 192.812 24.9886H192.641V31.9091H190.63ZM192.607 20.4545C192.607 21.4432 192.752 22.3153 193.042 23.071C193.332 23.821 193.755 24.4091 194.312 24.8352C194.869 25.2557 195.55 25.4659 196.357 25.4659C197.198 25.4659 197.9 25.2443 198.462 24.8011C199.031 24.3523 199.457 23.75 199.741 22.9943C200.031 22.233 200.175 21.3864 200.175 20.4545C200.175 19.5341 200.033 18.7045 199.749 17.9659C199.471 17.2216 199.048 16.6335 198.479 16.2017C197.917 15.7642 197.21 15.5455 196.357 15.5455C195.539 15.5455 194.852 15.7528 194.295 16.1676C193.738 16.5767 193.317 17.1506 193.033 17.8892C192.749 18.6222 192.607 19.4773 192.607 20.4545ZM209.107 27.3068C208.278 27.3068 207.525 27.1506 206.849 26.8381C206.173 26.5199 205.636 26.0625 205.238 25.4659C204.84 24.8636 204.641 24.1364 204.641 23.2841C204.641 22.5341 204.789 21.9261 205.085 21.4602C205.38 20.9886 205.775 20.6193 206.269 20.3523C206.763 20.0852 207.309 19.8864 207.906 19.7557C208.508 19.6193 209.113 19.5114 209.721 19.4318C210.516 19.3295 211.161 19.2528 211.656 19.2017C212.156 19.1449 212.519 19.0511 212.746 18.9205C212.979 18.7898 213.096 18.5625 213.096 18.2386V18.1705C213.096 17.3295 212.866 16.6761 212.406 16.2102C211.951 15.7443 211.261 15.5114 210.335 15.5114C209.374 15.5114 208.621 15.7216 208.076 16.142C207.531 16.5625 207.147 17.0114 206.925 17.4886L205.016 16.8068C205.357 16.0114 205.812 15.392 206.38 14.9489C206.954 14.5 207.579 14.1875 208.255 14.0114C208.937 13.8295 209.607 13.7386 210.266 13.7386C210.687 13.7386 211.17 13.7898 211.715 13.892C212.266 13.9886 212.798 14.1903 213.309 14.4972C213.826 14.804 214.255 15.267 214.596 15.8864C214.937 16.5057 215.107 17.3352 215.107 18.375V27H213.096V25.2273H212.994C212.857 25.5114 212.63 25.8153 212.312 26.1392C211.994 26.4631 211.57 26.7386 211.042 26.9659C210.513 27.1932 209.869 27.3068 209.107 27.3068ZM209.414 25.5C210.21 25.5 210.88 25.3438 211.425 25.0312C211.977 24.7188 212.391 24.3153 212.67 23.821C212.954 23.3267 213.096 22.8068 213.096 22.2614V20.4205C213.011 20.5227 212.823 20.6165 212.533 20.7017C212.249 20.7812 211.92 20.8523 211.545 20.9148C211.175 20.9716 210.815 21.0227 210.462 21.0682C210.116 21.108 209.835 21.142 209.619 21.1705C209.096 21.2386 208.607 21.3494 208.153 21.5028C207.704 21.6506 207.34 21.875 207.062 22.1761C206.789 22.4716 206.653 22.875 206.653 23.3864C206.653 24.0852 206.911 24.6136 207.428 24.9716C207.951 25.3239 208.613 25.5 209.414 25.5ZM217.96 23.6591H220.108C220.153 24.25 220.42 24.6989 220.909 25.0057C221.403 25.3125 222.045 25.4659 222.835 25.4659C223.642 25.4659 224.332 25.3011 224.906 24.9716C225.48 24.6364 225.767 24.0966 225.767 23.3523C225.767 22.9148 225.659 22.5341 225.443 22.2102C225.227 21.8807 224.923 21.625 224.531 21.4432C224.139 21.2614 223.676 21.1705 223.142 21.1705H220.892V19.3636H223.142C223.943 19.3636 224.534 19.1818 224.915 18.8182C225.301 18.4545 225.494 18 225.494 17.4545C225.494 16.8693 225.287 16.4006 224.872 16.0483C224.457 15.6903 223.869 15.5114 223.108 15.5114C222.341 15.5114 221.702 15.6847 221.19 16.0312C220.679 16.3722 220.409 16.8125 220.381 17.3523H218.267C218.29 16.6477 218.506 16.0256 218.915 15.4858C219.324 14.9403 219.881 14.5142 220.585 14.2074C221.29 13.8949 222.097 13.7386 223.006 13.7386C223.926 13.7386 224.724 13.9006 225.401 14.2244C226.082 14.5426 226.608 14.9773 226.977 15.5284C227.352 16.0739 227.54 16.6932 227.54 17.3864C227.54 18.125 227.332 18.7216 226.918 19.1761C226.503 19.6307 225.983 19.9545 225.358 20.1477V20.2841C225.852 20.3182 226.281 20.4773 226.645 20.7614C227.014 21.0398 227.301 21.4062 227.506 21.8608C227.71 22.3097 227.812 22.8068 227.812 23.3523C227.812 24.1477 227.599 24.8409 227.173 25.4318C226.747 26.017 226.162 26.4716 225.418 26.7955C224.673 27.1136 223.824 27.2727 222.869 27.2727C221.943 27.2727 221.114 27.1222 220.381 26.821C219.648 26.5142 219.065 26.0909 218.634 25.5511C218.207 25.0057 217.983 24.375 217.96 23.6591ZM240.354 9L241.376 10.2273C240.979 10.6136 240.518 10.8835 239.996 11.0369C239.473 11.1903 238.882 11.2841 238.223 11.3182C237.564 11.3523 236.831 11.3864 236.024 11.4205C235.115 11.4545 234.362 11.6761 233.766 12.0852C233.169 12.4943 232.709 13.0852 232.385 13.858C232.061 14.6307 231.854 15.5795 231.763 16.7045H231.933C232.376 15.8864 232.99 15.2841 233.774 14.8977C234.558 14.5114 235.399 14.3182 236.297 14.3182C237.32 14.3182 238.24 14.5568 239.058 15.0341C239.876 15.5114 240.524 16.2188 241.001 17.1562C241.479 18.0938 241.717 19.25 241.717 20.625C241.717 21.9943 241.473 23.1761 240.984 24.1705C240.501 25.1648 239.822 25.9318 238.947 26.4716C238.078 27.0057 237.058 27.2727 235.888 27.2727C234.717 27.2727 233.692 26.9972 232.811 26.446C231.93 25.8892 231.246 25.0653 230.757 23.9744C230.268 22.8778 230.024 21.5227 230.024 19.9091V18.5114C230.024 15.5966 230.518 13.3864 231.507 11.8807C232.501 10.375 233.996 9.59659 235.99 9.54545C236.695 9.52273 237.322 9.51705 237.874 9.52841C238.425 9.53977 238.905 9.5142 239.314 9.4517C239.723 9.3892 240.07 9.23864 240.354 9ZM235.888 25.4659C236.678 25.4659 237.357 25.267 237.925 24.8693C238.499 24.4716 238.939 23.9119 239.246 23.1903C239.553 22.4631 239.706 21.608 239.706 20.625C239.706 19.6705 239.55 18.858 239.237 18.1875C238.93 17.517 238.49 17.0057 237.916 16.6534C237.342 16.3011 236.655 16.125 235.854 16.125C235.268 16.125 234.743 16.2244 234.277 16.4233C233.811 16.6222 233.413 16.9148 233.084 17.3011C232.754 17.6875 232.499 18.1591 232.317 18.7159C232.141 19.2727 232.047 19.9091 232.036 20.625C232.036 22.0909 232.379 23.2642 233.067 24.1449C233.754 25.0256 234.695 25.4659 235.888 25.4659ZM246.805 24.0341L253.112 13.9091H255.43V27H253.419V16.875L247.146 27H244.794V13.9091H246.805V24.0341ZM257.333 15.7841V13.9091H267.969V15.7841H263.674V27H261.663V15.7841H257.333ZM272.642 18.6477H276.392C277.926 18.6477 279.099 19.0369 279.912 19.8153C280.724 20.5937 281.131 21.5795 281.131 22.7727C281.131 23.5568 280.949 24.2699 280.585 24.9119C280.222 25.5483 279.688 26.0568 278.983 26.4375C278.278 26.8125 277.415 27 276.392 27H270.903V13.9091H272.915V25.125H276.392C277.188 25.125 277.841 24.9148 278.352 24.4943C278.864 24.0739 279.119 23.5341 279.119 22.875C279.119 22.1818 278.864 21.6165 278.352 21.179C277.841 20.7415 277.188 20.5227 276.392 20.5227H272.642V18.6477ZM283.21 27V13.9091H285.222V27H283.21ZM290.403 13.9091L293.54 19.2614L296.676 13.9091H298.994L294.767 20.4545L298.994 27H296.676L293.54 21.9205L290.403 27H288.085L292.244 20.4545L288.085 13.9091H290.403ZM313.933 27.2727C312.705 27.2727 311.648 26.983 310.762 26.4034C309.876 25.8239 309.194 25.0256 308.717 24.0085C308.239 22.9915 308.001 21.8295 308.001 20.5227C308.001 19.1932 308.245 18.0199 308.734 17.0028C309.228 15.9801 309.915 15.1818 310.796 14.608C311.683 14.0284 312.717 13.7386 313.898 13.7386C314.819 13.7386 315.648 13.9091 316.387 14.25C317.126 14.5909 317.731 15.0682 318.202 15.6818C318.674 16.2955 318.967 17.0114 319.08 17.8295H317.069C316.915 17.233 316.575 16.7045 316.046 16.2443C315.523 15.7784 314.819 15.5455 313.933 15.5455C313.148 15.5455 312.461 15.75 311.87 16.1591C311.285 16.5625 310.827 17.1335 310.498 17.8722C310.174 18.6051 310.012 19.4659 310.012 20.4545C310.012 21.4659 310.171 22.3466 310.489 23.0966C310.813 23.8466 311.268 24.429 311.853 24.8438C312.444 25.2585 313.137 25.4659 313.933 25.4659C314.455 25.4659 314.93 25.375 315.356 25.1932C315.782 25.0114 316.143 24.75 316.438 24.4091C316.734 24.0682 316.944 23.6591 317.069 23.1818H319.08C318.967 23.9545 318.685 24.6506 318.237 25.2699C317.793 25.8835 317.205 26.3722 316.472 26.7358C315.745 27.0938 314.898 27.2727 313.933 27.2727ZM327.509 27.2727C326.248 27.2727 325.16 26.9943 324.245 26.4375C323.336 25.875 322.634 25.0909 322.14 24.0852C321.651 23.0739 321.407 21.8977 321.407 20.5568C321.407 19.2159 321.651 18.0341 322.14 17.0114C322.634 15.983 323.322 15.1818 324.202 14.608C325.089 14.0284 326.123 13.7386 327.305 13.7386C327.987 13.7386 328.66 13.8523 329.325 14.0795C329.989 14.3068 330.594 14.6761 331.14 15.1875C331.685 15.6932 332.12 16.3636 332.444 17.1989C332.768 18.0341 332.93 19.0625 332.93 20.2841V21.1364H322.839V19.3977H330.884C330.884 18.6591 330.737 18 330.441 17.4205C330.151 16.8409 329.737 16.3835 329.197 16.0483C328.663 15.7131 328.032 15.5455 327.305 15.5455C326.504 15.5455 325.81 15.7443 325.225 16.142C324.646 16.5341 324.2 17.0455 323.887 17.6761C323.575 18.3068 323.418 18.983 323.418 19.7045V20.8636C323.418 21.8523 323.589 22.6903 323.93 23.3778C324.276 24.0597 324.756 24.5795 325.37 24.9375C325.984 25.2898 326.697 25.4659 327.509 25.4659C328.038 25.4659 328.515 25.392 328.941 25.2443C329.373 25.0909 329.745 24.8636 330.058 24.5625C330.37 24.2557 330.612 23.875 330.782 23.4205L332.725 23.9659C332.521 24.625 332.177 25.2045 331.694 25.7045C331.211 26.1989 330.614 26.5852 329.904 26.8636C329.194 27.1364 328.396 27.2727 327.509 27.2727ZM335.989 31.9091V13.9091H337.933V15.9886H338.171C338.319 15.7614 338.523 15.4716 338.785 15.1193C339.052 14.7614 339.433 14.4432 339.927 14.1648C340.427 13.8807 341.103 13.7386 341.955 13.7386C343.058 13.7386 344.029 14.0142 344.87 14.5653C345.711 15.1165 346.367 15.8977 346.839 16.9091C347.31 17.9205 347.546 19.1136 347.546 20.4886C347.546 21.875 347.31 23.0767 346.839 24.0938C346.367 25.1051 345.714 25.8892 344.879 26.446C344.043 26.9972 343.08 27.2727 341.989 27.2727C341.148 27.2727 340.475 27.1335 339.969 26.8551C339.464 26.571 339.075 26.25 338.802 25.892C338.529 25.5284 338.319 25.2273 338.171 24.9886H338.001V31.9091H335.989ZM337.967 20.4545C337.967 21.4432 338.112 22.3153 338.401 23.071C338.691 23.821 339.114 24.4091 339.671 24.8352C340.228 25.2557 340.91 25.4659 341.717 25.4659C342.558 25.4659 343.259 25.2443 343.822 24.8011C344.39 24.3523 344.816 23.75 345.1 22.9943C345.39 22.233 345.535 21.3864 345.535 20.4545C345.535 19.5341 345.393 18.7045 345.109 17.9659C344.83 17.2216 344.407 16.6335 343.839 16.2017C343.276 15.7642 342.569 15.5455 341.717 15.5455C340.898 15.5455 340.211 15.7528 339.654 16.1676C339.097 16.5767 338.677 17.1506 338.393 17.8892C338.109 18.6222 337.967 19.4773 337.967 20.4545ZM349.217 30.75V25.125H350.308C350.575 24.8466 350.805 24.5455 350.998 24.2216C351.191 23.8977 351.359 23.5142 351.501 23.071C351.648 22.6222 351.773 22.0767 351.876 21.4347C351.978 20.7869 352.069 20.0057 352.148 19.0909L352.592 13.9091H360.91V25.125H362.921V30.75H360.91V27H351.228V30.75H349.217ZM352.592 25.125H358.898V15.7841H354.467L354.126 19.0909C353.984 20.4602 353.808 21.6562 353.597 22.679C353.387 23.7017 353.052 24.517 352.592 25.125ZM371.08 27.2727C369.818 27.2727 368.73 26.9943 367.815 26.4375C366.906 25.875 366.205 25.0909 365.71 24.0852C365.222 23.0739 364.977 21.8977 364.977 20.5568C364.977 19.2159 365.222 18.0341 365.71 17.0114C366.205 15.983 366.892 15.1818 367.773 14.608C368.659 14.0284 369.693 13.7386 370.875 13.7386C371.557 13.7386 372.23 13.8523 372.895 14.0795C373.56 14.3068 374.165 14.6761 374.71 15.1875C375.256 15.6932 375.69 16.3636 376.014 17.1989C376.338 18.0341 376.5 19.0625 376.5 20.2841V21.1364H366.409V19.3977H374.455C374.455 18.6591 374.307 18 374.011 17.4205C373.722 16.8409 373.307 16.3835 372.767 16.0483C372.233 15.7131 371.602 15.5455 370.875 15.5455C370.074 15.5455 369.381 15.7443 368.795 16.142C368.216 16.5341 367.77 17.0455 367.457 17.6761C367.145 18.3068 366.989 18.983 366.989 19.7045V20.8636C366.989 21.8523 367.159 22.6903 367.5 23.3778C367.847 24.0597 368.327 24.5795 368.94 24.9375C369.554 25.2898 370.267 25.4659 371.08 25.4659C371.608 25.4659 372.085 25.392 372.511 25.2443C372.943 25.0909 373.315 24.8636 373.628 24.5625C373.94 24.2557 374.182 23.875 374.352 23.4205L376.295 23.9659C376.091 24.625 375.747 25.2045 375.264 25.7045C374.781 26.1989 374.185 26.5852 373.474 26.8636C372.764 27.1364 371.966 27.2727 371.08 27.2727ZM389.855 13.9091V25.125H391.696V31.2273H389.685V27H379.56V13.9091H381.571V25.125H387.844V13.9091H389.855Z" fill="white"/>
<rect x="97" y="36" width="422" height="40" fill="#1D1C22"/>
<path d="M128.841 72.9091V54.9091H130.784V56.9886H131.023C131.17 56.7614 131.375 56.4716 131.636 56.1193C131.903 55.7614 132.284 55.4432 132.778 55.1648C133.278 54.8807 133.955 54.7386 134.807 54.7386C135.909 54.7386 136.881 55.0142 137.722 55.5653C138.563 56.1165 139.219 56.8977 139.69 57.9091C140.162 58.9205 140.398 60.1136 140.398 61.4886C140.398 62.875 140.162 64.0767 139.69 65.0938C139.219 66.1051 138.565 66.8892 137.73 67.446C136.895 67.9972 135.932 68.2727 134.841 68.2727C134 68.2727 133.327 68.1335 132.821 67.8551C132.315 67.571 131.926 67.25 131.653 66.892C131.381 66.5284 131.17 66.2273 131.023 65.9886H130.852V72.9091H128.841ZM130.818 61.4545C130.818 62.4432 130.963 63.3153 131.253 64.071C131.543 64.821 131.966 65.4091 132.523 65.8352C133.08 66.2557 133.761 66.4659 134.568 66.4659C135.409 66.4659 136.111 66.2443 136.673 65.8011C137.241 65.3523 137.668 64.75 137.952 63.9943C138.241 63.233 138.386 62.3864 138.386 61.4545C138.386 60.5341 138.244 59.7045 137.96 58.9659C137.682 58.2216 137.259 57.6335 136.69 57.2017C136.128 56.7642 135.42 56.5455 134.568 56.5455C133.75 56.5455 133.063 56.7528 132.506 57.1676C131.949 57.5767 131.528 58.1506 131.244 58.8892C130.96 59.6222 130.818 60.4773 130.818 61.4545ZM148.955 68.2727C147.693 68.2727 146.605 67.9943 145.69 67.4375C144.781 66.875 144.08 66.0909 143.585 65.0852C143.097 64.0739 142.852 62.8977 142.852 61.5568C142.852 60.2159 143.097 59.0341 143.585 58.0114C144.08 56.983 144.767 56.1818 145.648 55.608C146.534 55.0284 147.568 54.7386 148.75 54.7386C149.432 54.7386 150.105 54.8523 150.77 55.0795C151.435 55.3068 152.04 55.6761 152.585 56.1875C153.131 56.6932 153.565 57.3636 153.889 58.1989C154.213 59.0341 154.375 60.0625 154.375 61.2841V62.1364H144.284V60.3977H152.33C152.33 59.6591 152.182 59 151.886 58.4205C151.597 57.8409 151.182 57.3835 150.642 57.0483C150.108 56.7131 149.477 56.5455 148.75 56.5455C147.949 56.5455 147.256 56.7443 146.67 57.142C146.091 57.5341 145.645 58.0455 145.332 58.6761C145.02 59.3068 144.864 59.983 144.864 60.7045V61.8636C144.864 62.8523 145.034 63.6903 145.375 64.3778C145.722 65.0597 146.202 65.5795 146.815 65.9375C147.429 66.2898 148.142 66.4659 148.955 66.4659C149.483 66.4659 149.96 66.392 150.386 66.2443C150.818 66.0909 151.19 65.8636 151.503 65.5625C151.815 65.2557 152.057 64.875 152.227 64.4205L154.17 64.9659C153.966 65.625 153.622 66.2045 153.139 66.7045C152.656 67.1989 152.06 67.5852 151.349 67.8636C150.639 68.1364 149.841 68.2727 148.955 68.2727ZM162.753 68.2727C161.526 68.2727 160.469 67.983 159.582 67.4034C158.696 66.8239 158.014 66.0256 157.537 65.0085C157.06 63.9915 156.821 62.8295 156.821 61.5227C156.821 60.1932 157.065 59.0199 157.554 58.0028C158.048 56.9801 158.736 56.1818 159.616 55.608C160.503 55.0284 161.537 54.7386 162.719 54.7386C163.639 54.7386 164.469 54.9091 165.207 55.25C165.946 55.5909 166.551 56.0682 167.023 56.6818C167.494 57.2955 167.787 58.0114 167.901 58.8295H165.889C165.736 58.233 165.395 57.7045 164.866 57.2443C164.344 56.7784 163.639 56.5455 162.753 56.5455C161.969 56.5455 161.281 56.75 160.69 57.1591C160.105 57.5625 159.648 58.1335 159.318 58.8722C158.994 59.6051 158.832 60.4659 158.832 61.4545C158.832 62.4659 158.991 63.3466 159.31 64.0966C159.634 64.8466 160.088 65.429 160.673 65.8438C161.264 66.2585 161.957 66.4659 162.753 66.4659C163.276 66.4659 163.75 66.375 164.176 66.1932C164.602 66.0114 164.963 65.75 165.259 65.4091C165.554 65.0682 165.764 64.6591 165.889 64.1818H167.901C167.787 64.9545 167.506 65.6506 167.057 66.2699C166.614 66.8835 166.026 67.3722 165.293 67.7358C164.565 68.0938 163.719 68.2727 162.753 68.2727ZM169.81 56.7841V54.9091H180.446V56.7841H176.151V68H174.139V56.7841H169.81ZM186.553 68.3068C185.723 68.3068 184.97 68.1506 184.294 67.8381C183.618 67.5199 183.081 67.0625 182.683 66.4659C182.286 65.8636 182.087 65.1364 182.087 64.2841C182.087 63.5341 182.234 62.9261 182.53 62.4602C182.825 61.9886 183.22 61.6193 183.714 61.3523C184.209 61.0852 184.754 60.8864 185.351 60.7557C185.953 60.6193 186.558 60.5114 187.166 60.4318C187.962 60.3295 188.607 60.2528 189.101 60.2017C189.601 60.1449 189.964 60.0511 190.192 59.9205C190.425 59.7898 190.541 59.5625 190.541 59.2386V59.1705C190.541 58.3295 190.311 57.6761 189.851 57.2102C189.396 56.7443 188.706 56.5114 187.78 56.5114C186.82 56.5114 186.067 56.7216 185.521 57.142C184.976 57.5625 184.592 58.0114 184.371 58.4886L182.462 57.8068C182.803 57.0114 183.257 56.392 183.825 55.9489C184.399 55.5 185.024 55.1875 185.7 55.0114C186.382 54.8295 187.053 54.7386 187.712 54.7386C188.132 54.7386 188.615 54.7898 189.161 54.892C189.712 54.9886 190.243 55.1903 190.754 55.4972C191.271 55.804 191.7 56.267 192.041 56.8864C192.382 57.5057 192.553 58.3352 192.553 59.375V68H190.541V66.2273H190.439C190.303 66.5114 190.075 66.8153 189.757 67.1392C189.439 67.4631 189.016 67.7386 188.487 67.9659C187.959 68.1932 187.314 68.3068 186.553 68.3068ZM186.859 66.5C187.655 66.5 188.325 66.3438 188.871 66.0312C189.422 65.7188 189.837 65.3153 190.115 64.821C190.399 64.3267 190.541 63.8068 190.541 63.2614V61.4205C190.456 61.5227 190.268 61.6165 189.979 61.7017C189.695 61.7812 189.365 61.8523 188.99 61.9148C188.621 61.9716 188.26 62.0227 187.908 62.0682C187.561 62.108 187.28 62.142 187.064 62.1705C186.541 62.2386 186.053 62.3494 185.598 62.5028C185.149 62.6506 184.786 62.875 184.507 63.1761C184.234 63.4716 184.098 63.875 184.098 64.3864C184.098 65.0852 184.357 65.6136 184.874 65.9716C185.396 66.3239 186.058 66.5 186.859 66.5ZM196.224 68V54.9091H201.576C202.985 54.9091 204.104 55.2273 204.934 55.8636C205.763 56.5 206.178 57.3409 206.178 58.3864C206.178 59.1818 205.942 59.7983 205.471 60.2358C204.999 60.6676 204.394 60.9602 203.656 61.1136C204.138 61.1818 204.607 61.3523 205.062 61.625C205.522 61.8977 205.903 62.2727 206.204 62.75C206.505 63.2216 206.656 63.8011 206.656 64.4886C206.656 65.1591 206.485 65.7585 206.144 66.2869C205.803 66.8153 205.315 67.233 204.678 67.5398C204.042 67.8466 203.281 68 202.394 68H196.224ZM198.133 66.1591H202.394C203.087 66.1591 203.63 65.9943 204.022 65.6648C204.414 65.3352 204.61 64.8864 204.61 64.3182C204.61 63.642 204.414 63.1108 204.022 62.7244C203.63 62.3324 203.087 62.1364 202.394 62.1364H198.133V66.1591ZM198.133 60.3977H201.576C202.116 60.3977 202.579 60.3239 202.965 60.1761C203.352 60.0227 203.647 59.8068 203.852 59.5284C204.062 59.2443 204.167 58.9091 204.167 58.5227C204.167 57.9716 203.937 57.5398 203.477 57.2273C203.016 56.9091 202.383 56.75 201.576 56.75H198.133V60.3977ZM209.7 72.9091V54.9091H211.643V56.9886H211.882C212.03 56.7614 212.234 56.4716 212.496 56.1193C212.763 55.7614 213.143 55.4432 213.638 55.1648C214.138 54.8807 214.814 54.7386 215.666 54.7386C216.768 54.7386 217.74 55.0142 218.581 55.5653C219.422 56.1165 220.078 56.8977 220.55 57.9091C221.021 58.9205 221.257 60.1136 221.257 61.4886C221.257 62.875 221.021 64.0767 220.55 65.0938C220.078 66.1051 219.425 66.8892 218.589 67.446C217.754 67.9972 216.791 68.2727 215.7 68.2727C214.859 68.2727 214.186 68.1335 213.68 67.8551C213.175 67.571 212.786 67.25 212.513 66.892C212.24 66.5284 212.03 66.2273 211.882 65.9886H211.712V72.9091H209.7ZM211.678 61.4545C211.678 62.4432 211.822 63.3153 212.112 64.071C212.402 64.821 212.825 65.4091 213.382 65.8352C213.939 66.2557 214.621 66.4659 215.428 66.4659C216.268 66.4659 216.97 66.2443 217.533 65.8011C218.101 65.3523 218.527 64.75 218.811 63.9943C219.101 63.233 219.246 62.3864 219.246 61.4545C219.246 60.5341 219.104 59.7045 218.82 58.9659C218.541 58.2216 218.118 57.6335 217.55 57.2017C216.987 56.7642 216.28 56.5455 215.428 56.5455C214.609 56.5455 213.922 56.7528 213.365 57.1676C212.808 57.5767 212.388 58.1506 212.104 58.8892C211.82 59.6222 211.678 60.4773 211.678 61.4545ZM228.178 68.3068C227.348 68.3068 226.595 68.1506 225.919 67.8381C225.243 67.5199 224.706 67.0625 224.308 66.4659C223.911 65.8636 223.712 65.1364 223.712 64.2841C223.712 63.5341 223.859 62.9261 224.155 62.4602C224.45 61.9886 224.845 61.6193 225.339 61.3523C225.834 61.0852 226.379 60.8864 226.976 60.7557C227.578 60.6193 228.183 60.5114 228.791 60.4318C229.587 60.3295 230.232 60.2528 230.726 60.2017C231.226 60.1449 231.589 60.0511 231.817 59.9205C232.05 59.7898 232.166 59.5625 232.166 59.2386V59.1705C232.166 58.3295 231.936 57.6761 231.476 57.2102C231.021 56.7443 230.331 56.5114 229.405 56.5114C228.445 56.5114 227.692 56.7216 227.146 57.142C226.601 57.5625 226.217 58.0114 225.996 58.4886L224.087 57.8068C224.428 57.0114 224.882 56.392 225.45 55.9489C226.024 55.5 226.649 55.1875 227.325 55.0114C228.007 54.8295 228.678 54.7386 229.337 54.7386C229.757 54.7386 230.24 54.7898 230.786 54.892C231.337 54.9886 231.868 55.1903 232.379 55.4972C232.896 55.804 233.325 56.267 233.666 56.8864C234.007 57.5057 234.178 58.3352 234.178 59.375V68H232.166V66.2273H232.064C231.928 66.5114 231.7 66.8153 231.382 67.1392C231.064 67.4631 230.641 67.7386 230.112 67.9659C229.584 68.1932 228.939 68.3068 228.178 68.3068ZM228.484 66.5C229.28 66.5 229.95 66.3438 230.496 66.0312C231.047 65.7188 231.462 65.3153 231.74 64.821C232.024 64.3267 232.166 63.8068 232.166 63.2614V61.4205C232.081 61.5227 231.893 61.6165 231.604 61.7017C231.32 61.7812 230.99 61.8523 230.615 61.9148C230.246 61.9716 229.885 62.0227 229.533 62.0682C229.186 62.108 228.905 62.142 228.689 62.1705C228.166 62.2386 227.678 62.3494 227.223 62.5028C226.774 62.6506 226.411 62.875 226.132 63.1761C225.859 63.4716 225.723 63.875 225.723 64.3864C225.723 65.0852 225.982 65.6136 226.499 65.9716C227.021 66.3239 227.683 66.5 228.484 66.5ZM248.144 54.9091V66.125H249.985V72.2273H247.974V68H237.849V54.9091H239.86V66.125H246.133V54.9091H248.144ZM255.094 65.0341L261.401 54.9091H263.719V68H261.708V57.875L255.435 68H253.083V54.9091H255.094V65.0341ZM275.278 68V56.75H271.801C271.017 56.75 270.401 56.9318 269.952 57.2955C269.503 57.6591 269.278 58.1591 269.278 58.7955C269.278 59.4205 269.48 59.9119 269.884 60.2699C270.293 60.6278 270.852 60.8068 271.562 60.8068H275.79V62.6818H271.562C270.676 62.6818 269.912 62.5256 269.27 62.2131C268.628 61.9006 268.134 61.4545 267.787 60.875C267.44 60.2898 267.267 59.5966 267.267 58.7955C267.267 57.9886 267.449 57.2955 267.812 56.7159C268.176 56.1364 268.696 55.6903 269.372 55.3778C270.054 55.0653 270.864 54.9091 271.801 54.9091H277.188V68H275.278ZM266.551 68L270.267 61.4886H272.449L268.733 68H266.551ZM287.63 72.9091V54.9091H289.573V56.9886H289.812C289.96 56.7614 290.164 56.4716 290.425 56.1193C290.692 55.7614 291.073 55.4432 291.567 55.1648C292.067 54.8807 292.744 54.7386 293.596 54.7386C294.698 54.7386 295.67 55.0142 296.511 55.5653C297.352 56.1165 298.008 56.8977 298.479 57.9091C298.951 58.9205 299.187 60.1136 299.187 61.4886C299.187 62.875 298.951 64.0767 298.479 65.0938C298.008 66.1051 297.354 66.8892 296.519 67.446C295.684 67.9972 294.721 68.2727 293.63 68.2727C292.789 68.2727 292.116 68.1335 291.61 67.8551C291.104 67.571 290.715 67.25 290.442 66.892C290.17 66.5284 289.96 66.2273 289.812 65.9886H289.641V72.9091H287.63ZM289.607 61.4545C289.607 62.4432 289.752 63.3153 290.042 64.071C290.332 64.821 290.755 65.4091 291.312 65.8352C291.869 66.2557 292.55 66.4659 293.357 66.4659C294.198 66.4659 294.9 66.2443 295.462 65.8011C296.031 65.3523 296.457 64.75 296.741 63.9943C297.031 63.233 297.175 62.3864 297.175 61.4545C297.175 60.5341 297.033 59.7045 296.749 58.9659C296.471 58.2216 296.048 57.6335 295.479 57.2017C294.917 56.7642 294.21 56.5455 293.357 56.5455C292.539 56.5455 291.852 56.7528 291.295 57.1676C290.738 57.5767 290.317 58.1506 290.033 58.8892C289.749 59.6222 289.607 60.4773 289.607 61.4545ZM306.107 68.3068C305.278 68.3068 304.525 68.1506 303.849 67.8381C303.173 67.5199 302.636 67.0625 302.238 66.4659C301.84 65.8636 301.641 65.1364 301.641 64.2841C301.641 63.5341 301.789 62.9261 302.085 62.4602C302.38 61.9886 302.775 61.6193 303.269 61.3523C303.763 61.0852 304.309 60.8864 304.906 60.7557C305.508 60.6193 306.113 60.5114 306.721 60.4318C307.516 60.3295 308.161 60.2528 308.656 60.2017C309.156 60.1449 309.519 60.0511 309.746 59.9205C309.979 59.7898 310.096 59.5625 310.096 59.2386V59.1705C310.096 58.3295 309.866 57.6761 309.406 57.2102C308.951 56.7443 308.261 56.5114 307.335 56.5114C306.374 56.5114 305.621 56.7216 305.076 57.142C304.531 57.5625 304.147 58.0114 303.925 58.4886L302.016 57.8068C302.357 57.0114 302.812 56.392 303.38 55.9489C303.954 55.5 304.579 55.1875 305.255 55.0114C305.937 54.8295 306.607 54.7386 307.266 54.7386C307.687 54.7386 308.17 54.7898 308.715 54.892C309.266 54.9886 309.798 55.1903 310.309 55.4972C310.826 55.804 311.255 56.267 311.596 56.8864C311.937 57.5057 312.107 58.3352 312.107 59.375V68H310.096V66.2273H309.994C309.857 66.5114 309.63 66.8153 309.312 67.1392C308.994 67.4631 308.57 67.7386 308.042 67.9659C307.513 68.1932 306.869 68.3068 306.107 68.3068ZM306.414 66.5C307.21 66.5 307.88 66.3438 308.425 66.0312C308.977 65.7188 309.391 65.3153 309.67 64.821C309.954 64.3267 310.096 63.8068 310.096 63.2614V61.4205C310.011 61.5227 309.823 61.6165 309.533 61.7017C309.249 61.7812 308.92 61.8523 308.545 61.9148C308.175 61.9716 307.815 62.0227 307.462 62.0682C307.116 62.108 306.835 62.142 306.619 62.1705C306.096 62.2386 305.607 62.3494 305.153 62.5028C304.704 62.6506 304.34 62.875 304.062 63.1761C303.789 63.4716 303.653 63.875 303.653 64.3864C303.653 65.0852 303.911 65.6136 304.428 65.9716C304.951 66.3239 305.613 66.5 306.414 66.5ZM314.96 64.6591H317.108C317.153 65.25 317.42 65.6989 317.909 66.0057C318.403 66.3125 319.045 66.4659 319.835 66.4659C320.642 66.4659 321.332 66.3011 321.906 65.9716C322.48 65.6364 322.767 65.0966 322.767 64.3523C322.767 63.9148 322.659 63.5341 322.443 63.2102C322.227 62.8807 321.923 62.625 321.531 62.4432C321.139 62.2614 320.676 62.1705 320.142 62.1705H317.892V60.3636H320.142C320.943 60.3636 321.534 60.1818 321.915 59.8182C322.301 59.4545 322.494 59 322.494 58.4545C322.494 57.8693 322.287 57.4006 321.872 57.0483C321.457 56.6903 320.869 56.5114 320.108 56.5114C319.341 56.5114 318.702 56.6847 318.19 57.0312C317.679 57.3722 317.409 57.8125 317.381 58.3523H315.267C315.29 57.6477 315.506 57.0256 315.915 56.4858C316.324 55.9403 316.881 55.5142 317.585 55.2074C318.29 54.8949 319.097 54.7386 320.006 54.7386C320.926 54.7386 321.724 54.9006 322.401 55.2244C323.082 55.5426 323.608 55.9773 323.977 56.5284C324.352 57.0739 324.54 57.6932 324.54 58.3864C324.54 59.125 324.332 59.7216 323.918 60.1761C323.503 60.6307 322.983 60.9545 322.358 61.1477V61.2841C322.852 61.3182 323.281 61.4773 323.645 61.7614C324.014 62.0398 324.301 62.4062 324.506 62.8608C324.71 63.3097 324.812 63.8068 324.812 64.3523C324.812 65.1477 324.599 65.8409 324.173 66.4318C323.747 67.017 323.162 67.4716 322.418 67.7955C321.673 68.1136 320.824 68.2727 319.869 68.2727C318.943 68.2727 318.114 68.1222 317.381 67.821C316.648 67.5142 316.065 67.0909 315.634 66.5511C315.207 66.0057 314.983 65.375 314.96 64.6591ZM337.354 50L338.376 51.2273C337.979 51.6136 337.518 51.8835 336.996 52.0369C336.473 52.1903 335.882 52.2841 335.223 52.3182C334.564 52.3523 333.831 52.3864 333.024 52.4205C332.115 52.4545 331.362 52.6761 330.766 53.0852C330.169 53.4943 329.709 54.0852 329.385 54.858C329.061 55.6307 328.854 56.5795 328.763 57.7045H328.933C329.376 56.8864 329.99 56.2841 330.774 55.8977C331.558 55.5114 332.399 55.3182 333.297 55.3182C334.32 55.3182 335.24 55.5568 336.058 56.0341C336.876 56.5114 337.524 57.2188 338.001 58.1562C338.479 59.0938 338.717 60.25 338.717 61.625C338.717 62.9943 338.473 64.1761 337.984 65.1705C337.501 66.1648 336.822 66.9318 335.947 67.4716C335.078 68.0057 334.058 68.2727 332.888 68.2727C331.717 68.2727 330.692 67.9972 329.811 67.446C328.93 66.8892 328.246 66.0653 327.757 64.9744C327.268 63.8778 327.024 62.5227 327.024 60.9091V59.5114C327.024 56.5966 327.518 54.3864 328.507 52.8807C329.501 51.375 330.996 50.5966 332.99 50.5455C333.695 50.5227 334.322 50.517 334.874 50.5284C335.425 50.5398 335.905 50.5142 336.314 50.4517C336.723 50.3892 337.07 50.2386 337.354 50ZM332.888 66.4659C333.678 66.4659 334.357 66.267 334.925 65.8693C335.499 65.4716 335.939 64.9119 336.246 64.1903C336.553 63.4631 336.706 62.608 336.706 61.625C336.706 60.6705 336.55 59.858 336.237 59.1875C335.93 58.517 335.49 58.0057 334.916 57.6534C334.342 57.3011 333.655 57.125 332.854 57.125C332.268 57.125 331.743 57.2244 331.277 57.4233C330.811 57.6222 330.413 57.9148 330.084 58.3011C329.754 58.6875 329.499 59.1591 329.317 59.7159C329.141 60.2727 329.047 60.9091 329.036 61.625C329.036 63.0909 329.379 64.2642 330.067 65.1449C330.754 66.0256 331.695 66.4659 332.888 66.4659ZM343.805 65.0341L350.112 54.9091H352.43V68H350.419V57.875L344.146 68H341.794V54.9091H343.805V65.0341ZM354.333 56.7841V54.9091H364.969V56.7841H360.674V68H358.663V56.7841H354.333ZM369.642 59.6477H373.392C374.926 59.6477 376.099 60.0369 376.912 60.8153C377.724 61.5937 378.131 62.5795 378.131 63.7727C378.131 64.5568 377.949 65.2699 377.585 65.9119C377.222 66.5483 376.688 67.0568 375.983 67.4375C375.278 67.8125 374.415 68 373.392 68H367.903V54.9091H369.915V66.125H373.392C374.188 66.125 374.841 65.9148 375.352 65.4943C375.864 65.0739 376.119 64.5341 376.119 63.875C376.119 63.1818 375.864 62.6165 375.352 62.179C374.841 61.7415 374.188 61.5227 373.392 61.5227H369.642V59.6477ZM380.21 68V54.9091H382.222V68H380.21ZM387.403 54.9091L390.54 60.2614L393.676 54.9091H395.994L391.767 61.4545L395.994 68H393.676L390.54 62.9205L387.403 68H385.085L389.244 61.4545L385.085 54.9091H387.403ZM410.933 68.2727C409.705 68.2727 408.648 67.983 407.762 67.4034C406.876 66.8239 406.194 66.0256 405.717 65.0085C405.239 63.9915 405.001 62.8295 405.001 61.5227C405.001 60.1932 405.245 59.0199 405.734 58.0028C406.228 56.9801 406.915 56.1818 407.796 55.608C408.683 55.0284 409.717 54.7386 410.898 54.7386C411.819 54.7386 412.648 54.9091 413.387 55.25C414.126 55.5909 414.731 56.0682 415.202 56.6818C415.674 57.2955 415.967 58.0114 416.08 58.8295H414.069C413.915 58.233 413.575 57.7045 413.046 57.2443C412.523 56.7784 411.819 56.5455 410.933 56.5455C410.148 56.5455 409.461 56.75 408.87 57.1591C408.285 57.5625 407.827 58.1335 407.498 58.8722C407.174 59.6051 407.012 60.4659 407.012 61.4545C407.012 62.4659 407.171 63.3466 407.489 64.0966C407.813 64.8466 408.268 65.429 408.853 65.8438C409.444 66.2585 410.137 66.4659 410.933 66.4659C411.455 66.4659 411.93 66.375 412.356 66.1932C412.782 66.0114 413.143 65.75 413.438 65.4091C413.734 65.0682 413.944 64.6591 414.069 64.1818H416.08C415.967 64.9545 415.685 65.6506 415.237 66.2699C414.793 66.8835 414.205 67.3722 413.472 67.7358C412.745 68.0938 411.898 68.2727 410.933 68.2727ZM424.509 68.2727C423.248 68.2727 422.16 67.9943 421.245 67.4375C420.336 66.875 419.634 66.0909 419.14 65.0852C418.651 64.0739 418.407 62.8977 418.407 61.5568C418.407 60.2159 418.651 59.0341 419.14 58.0114C419.634 56.983 420.322 56.1818 421.202 55.608C422.089 55.0284 423.123 54.7386 424.305 54.7386C424.987 54.7386 425.66 54.8523 426.325 55.0795C426.989 55.3068 427.594 55.6761 428.14 56.1875C428.685 56.6932 429.12 57.3636 429.444 58.1989C429.768 59.0341 429.93 60.0625 429.93 61.2841V62.1364H419.839V60.3977H427.884C427.884 59.6591 427.737 59 427.441 58.4205C427.151 57.8409 426.737 57.3835 426.197 57.0483C425.663 56.7131 425.032 56.5455 424.305 56.5455C423.504 56.5455 422.81 56.7443 422.225 57.142C421.646 57.5341 421.2 58.0455 420.887 58.6761C420.575 59.3068 420.418 59.983 420.418 60.7045V61.8636C420.418 62.8523 420.589 63.6903 420.93 64.3778C421.276 65.0597 421.756 65.5795 422.37 65.9375C422.984 66.2898 423.697 66.4659 424.509 66.4659C425.038 66.4659 425.515 66.392 425.941 66.2443C426.373 66.0909 426.745 65.8636 427.058 65.5625C427.37 65.2557 427.612 64.875 427.782 64.4205L429.725 64.9659C429.521 65.625 429.177 66.2045 428.694 66.7045C428.211 67.1989 427.614 67.5852 426.904 67.8636C426.194 68.1364 425.396 68.2727 424.509 68.2727ZM432.989 72.9091V54.9091H434.933V56.9886H435.171C435.319 56.7614 435.523 56.4716 435.785 56.1193C436.052 55.7614 436.433 55.4432 436.927 55.1648C437.427 54.8807 438.103 54.7386 438.955 54.7386C440.058 54.7386 441.029 55.0142 441.87 55.5653C442.711 56.1165 443.367 56.8977 443.839 57.9091C444.31 58.9205 444.546 60.1136 444.546 61.4886C444.546 62.875 444.31 64.0767 443.839 65.0938C443.367 66.1051 442.714 66.8892 441.879 67.446C441.043 67.9972 440.08 68.2727 438.989 68.2727C438.148 68.2727 437.475 68.1335 436.969 67.8551C436.464 67.571 436.075 67.25 435.802 66.892C435.529 66.5284 435.319 66.2273 435.171 65.9886H435.001V72.9091H432.989ZM434.967 61.4545C434.967 62.4432 435.112 63.3153 435.401 64.071C435.691 64.821 436.114 65.4091 436.671 65.8352C437.228 66.2557 437.91 66.4659 438.717 66.4659C439.558 66.4659 440.259 66.2443 440.822 65.8011C441.39 65.3523 441.816 64.75 442.1 63.9943C442.39 63.233 442.535 62.3864 442.535 61.4545C442.535 60.5341 442.393 59.7045 442.109 58.9659C441.83 58.2216 441.407 57.6335 440.839 57.2017C440.276 56.7642 439.569 56.5455 438.717 56.5455C437.898 56.5455 437.211 56.7528 436.654 57.1676C436.097 57.5767 435.677 58.1506 435.393 58.8892C435.109 59.6222 434.967 60.4773 434.967 61.4545ZM446.217 71.75V66.125H447.308C447.575 65.8466 447.805 65.5455 447.998 65.2216C448.191 64.8977 448.359 64.5142 448.501 64.071C448.648 63.6222 448.773 63.0767 448.876 62.4347C448.978 61.7869 449.069 61.0057 449.148 60.0909L449.592 54.9091H457.91V66.125H459.921V71.75H457.91V68H448.228V71.75H446.217ZM449.592 66.125H455.898V56.7841H451.467L451.126 60.0909C450.984 61.4602 450.808 62.6562 450.597 63.679C450.387 64.7017 450.052 65.517 449.592 66.125ZM468.08 68.2727C466.818 68.2727 465.73 67.9943 464.815 67.4375C463.906 66.875 463.205 66.0909 462.71 65.0852C462.222 64.0739 461.977 62.8977 461.977 61.5568C461.977 60.2159 462.222 59.0341 462.71 58.0114C463.205 56.983 463.892 56.1818 464.773 55.608C465.659 55.0284 466.693 54.7386 467.875 54.7386C468.557 54.7386 469.23 54.8523 469.895 55.0795C470.56 55.3068 471.165 55.6761 471.71 56.1875C472.256 56.6932 472.69 57.3636 473.014 58.1989C473.338 59.0341 473.5 60.0625 473.5 61.2841V62.1364H463.409V60.3977H471.455C471.455 59.6591 471.307 59 471.011 58.4205C470.722 57.8409 470.307 57.3835 469.767 57.0483C469.233 56.7131 468.602 56.5455 467.875 56.5455C467.074 56.5455 466.381 56.7443 465.795 57.142C465.216 57.5341 464.77 58.0455 464.457 58.6761C464.145 59.3068 463.989 59.983 463.989 60.7045V61.8636C463.989 62.8523 464.159 63.6903 464.5 64.3778C464.847 65.0597 465.327 65.5795 465.94 65.9375C466.554 66.2898 467.267 66.4659 468.08 66.4659C468.608 66.4659 469.085 66.392 469.511 66.2443C469.943 66.0909 470.315 65.8636 470.628 65.5625C470.94 65.2557 471.182 64.875 471.352 64.4205L473.295 64.9659C473.091 65.625 472.747 66.2045 472.264 66.7045C471.781 67.1989 471.185 67.5852 470.474 67.8636C469.764 68.1364 468.966 68.2727 468.08 68.2727ZM486.855 54.9091V66.125H488.696V72.2273H486.685V68H476.56V54.9091H478.571V66.125H484.844V54.9091H486.855Z" fill="white"/>
</svg>
